<?xml version="1.0" encoding="utf-8" standalone="no"?>
<!DOCTYPE svg PUBLIC "-//W3C//DTD SVG 1.1//EN"
  "http://www.w3.org/Graphics/SVG/1.1/DTD/svg11.dtd">
<svg xmlns:xlink="http://www.w3.org/1999/xlink" width="483.59952pt" height="353.99952pt" viewBox="0 0 483.59952 353.99952" xmlns="http://www.w3.org/2000/svg" version="1.1">
 <metadata>
  <rdf:RDF xmlns:dc="http://purl.org/dc/elements/1.1/" xmlns:cc="http://creativecommons.org/ns#" xmlns:rdf="http://www.w3.org/1999/02/22-rdf-syntax-ns#">
   <cc:Work>
    <dc:type rdf:resource="http://purl.org/dc/dcmitype/StillImage"/>
    <dc:date>2026-07-31T08:47:51.858399</dc:date>
    <dc:format>image/svg+xml</dc:format>
    <dc:creator>
     <cc:Agent>
      <dc:title>Matplotlib v3.10.8, https://matplotlib.org/</dc:title>
     </cc:Agent>
    </dc:creator>
   </cc:Work>
  </rdf:RDF>
 </metadata>
 <defs>
  <style type="text/css">*{stroke-linejoin: round; stroke-linecap: butt}</style>
 </defs>
 <g id="figure_1">
  <g id="patch_1">
   <path d="M 0 353.99952 
L 483.59952 353.99952 
L 483.59952 0 
L 0 0 
z
" style="fill: #ffffff"/>
  </g>
  <g id="axes_1">
   <g id="patch_2">
    <path d="M 43.78125 316.44327 
L 468.447958 316.44327 
L 468.447958 7.2 
L 43.78125 7.2 
z
" style="fill: #ffffff"/>
   </g>
   <g id="matplotlib.axis_1">
    <g id="xtick_1">
     <g id="line2d_1">
      <path d="M 43.78125 316.44327 
L 43.78125 7.2 
" clip-path="url(#pa92ed09256)" style="fill: none; stroke: #b0b0b0; stroke-opacity: 0.55; stroke-width: 0.8; stroke-linecap: square"/>
     </g>
     <g id="line2d_2">
      <defs>
       <path id="m4950a6c004" d="M 0 0 
L 0 3.5 
" style="stroke: #000000; stroke-width: 0.8"/>
      </defs>
      <g>
       <use xlink:href="#m4950a6c004" x="43.78125" y="316.44327" style="stroke: #000000; stroke-width: 0.8"/>
      </g>
     </g>
     <g id="text_1">
      <!-- 0.0 -->
      <g transform="translate(35.829688 331.041707) scale(0.1 -0.1)">
       <defs>
        <path id="DejaVuSans-30" d="M 2034 4250 
Q 1547 4250 1301 3770 
Q 1056 3291 1056 2328 
Q 1056 1369 1301 889 
Q 1547 409 2034 409 
Q 2525 409 2770 889 
Q 3016 1369 3016 2328 
Q 3016 3291 2770 3770 
Q 2525 4250 2034 4250 
z
M 2034 4750 
Q 2819 4750 3233 4129 
Q 3647 3509 3647 2328 
Q 3647 1150 3233 529 
Q 2819 -91 2034 -91 
Q 1250 -91 836 529 
Q 422 1150 422 2328 
Q 422 3509 836 4129 
Q 1250 4750 2034 4750 
z
" transform="scale(0.015625)"/>
        <path id="DejaVuSans-2e" d="M 684 794 
L 1344 794 
L 1344 0 
L 684 0 
L 684 794 
z
" transform="scale(0.015625)"/>
       </defs>
       <use xlink:href="#DejaVuSans-30"/>
       <use xlink:href="#DejaVuSans-2e" transform="translate(63.623047 0)"/>
       <use xlink:href="#DejaVuSans-30" transform="translate(95.410156 0)"/>
      </g>
     </g>
    </g>
    <g id="xtick_2">
     <g id="line2d_3">
      <path d="M 128.714592 316.44327 
L 128.714592 7.2 
" clip-path="url(#pa92ed09256)" style="fill: none; stroke: #b0b0b0; stroke-opacity: 0.55; stroke-width: 0.8; stroke-linecap: square"/>
     </g>
     <g id="line2d_4">
      <g>
       <use xlink:href="#m4950a6c004" x="128.714592" y="316.44327" style="stroke: #000000; stroke-width: 0.8"/>
      </g>
     </g>
     <g id="text_2">
      <!-- 0.2 -->
      <g transform="translate(120.763029 331.041707) scale(0.1 -0.1)">
       <defs>
        <path id="DejaVuSans-32" d="M 1228 531 
L 3431 531 
L 3431 0 
L 469 0 
L 469 531 
Q 828 903 1448 1529 
Q 2069 2156 2228 2338 
Q 2531 2678 2651 2914 
Q 2772 3150 2772 3378 
Q 2772 3750 2511 3984 
Q 2250 4219 1831 4219 
Q 1534 4219 1204 4116 
Q 875 4013 500 3803 
L 500 4441 
Q 881 4594 1212 4672 
Q 1544 4750 1819 4750 
Q 2544 4750 2975 4387 
Q 3406 4025 3406 3419 
Q 3406 3131 3298 2873 
Q 3191 2616 2906 2266 
Q 2828 2175 2409 1742 
Q 1991 1309 1228 531 
z
" transform="scale(0.015625)"/>
       </defs>
       <use xlink:href="#DejaVuSans-30"/>
       <use xlink:href="#DejaVuSans-2e" transform="translate(63.623047 0)"/>
       <use xlink:href="#DejaVuSans-32" transform="translate(95.410156 0)"/>
      </g>
     </g>
    </g>
    <g id="xtick_3">
     <g id="line2d_5">
      <path d="M 213.647933 316.44327 
L 213.647933 7.2 
" clip-path="url(#pa92ed09256)" style="fill: none; stroke: #b0b0b0; stroke-opacity: 0.55; stroke-width: 0.8; stroke-linecap: square"/>
     </g>
     <g id="line2d_6">
      <g>
       <use xlink:href="#m4950a6c004" x="213.647933" y="316.44327" style="stroke: #000000; stroke-width: 0.8"/>
      </g>
     </g>
     <g id="text_3">
      <!-- 0.4 -->
      <g transform="translate(205.696371 331.041707) scale(0.1 -0.1)">
       <defs>
        <path id="DejaVuSans-34" d="M 2419 4116 
L 825 1625 
L 2419 1625 
L 2419 4116 
z
M 2253 4666 
L 3047 4666 
L 3047 1625 
L 3713 1625 
L 3713 1100 
L 3047 1100 
L 3047 0 
L 2419 0 
L 2419 1100 
L 313 1100 
L 313 1709 
L 2253 4666 
z
" transform="scale(0.015625)"/>
       </defs>
       <use xlink:href="#DejaVuSans-30"/>
       <use xlink:href="#DejaVuSans-2e" transform="translate(63.623047 0)"/>
       <use xlink:href="#DejaVuSans-34" transform="translate(95.410156 0)"/>
      </g>
     </g>
    </g>
    <g id="xtick_4">
     <g id="line2d_7">
      <path d="M 298.581275 316.44327 
L 298.581275 7.2 
" clip-path="url(#pa92ed09256)" style="fill: none; stroke: #b0b0b0; stroke-opacity: 0.55; stroke-width: 0.8; stroke-linecap: square"/>
     </g>
     <g id="line2d_8">
      <g>
       <use xlink:href="#m4950a6c004" x="298.581275" y="316.44327" style="stroke: #000000; stroke-width: 0.8"/>
      </g>
     </g>
     <g id="text_4">
      <!-- 0.6 -->
      <g transform="translate(290.629712 331.041707) scale(0.1 -0.1)">
       <defs>
        <path id="DejaVuSans-36" d="M 2113 2584 
Q 1688 2584 1439 2293 
Q 1191 2003 1191 1497 
Q 1191 994 1439 701 
Q 1688 409 2113 409 
Q 2538 409 2786 701 
Q 3034 994 3034 1497 
Q 3034 2003 2786 2293 
Q 2538 2584 2113 2584 
z
M 3366 4563 
L 3366 3988 
Q 3128 4100 2886 4159 
Q 2644 4219 2406 4219 
Q 1781 4219 1451 3797 
Q 1122 3375 1075 2522 
Q 1259 2794 1537 2939 
Q 1816 3084 2150 3084 
Q 2853 3084 3261 2657 
Q 3669 2231 3669 1497 
Q 3669 778 3244 343 
Q 2819 -91 2113 -91 
Q 1303 -91 875 529 
Q 447 1150 447 2328 
Q 447 3434 972 4092 
Q 1497 4750 2381 4750 
Q 2619 4750 2861 4703 
Q 3103 4656 3366 4563 
z
" transform="scale(0.015625)"/>
       </defs>
       <use xlink:href="#DejaVuSans-30"/>
       <use xlink:href="#DejaVuSans-2e" transform="translate(63.623047 0)"/>
       <use xlink:href="#DejaVuSans-36" transform="translate(95.410156 0)"/>
      </g>
     </g>
    </g>
    <g id="xtick_5">
     <g id="line2d_9">
      <path d="M 383.514616 316.44327 
L 383.514616 7.2 
" clip-path="url(#pa92ed09256)" style="fill: none; stroke: #b0b0b0; stroke-opacity: 0.55; stroke-width: 0.8; stroke-linecap: square"/>
     </g>
     <g id="line2d_10">
      <g>
       <use xlink:href="#m4950a6c004" x="383.514616" y="316.44327" style="stroke: #000000; stroke-width: 0.8"/>
      </g>
     </g>
     <g id="text_5">
      <!-- 0.8 -->
      <g transform="translate(375.563054 331.041707) scale(0.1 -0.1)">
       <defs>
        <path id="DejaVuSans-38" d="M 2034 2216 
Q 1584 2216 1326 1975 
Q 1069 1734 1069 1313 
Q 1069 891 1326 650 
Q 1584 409 2034 409 
Q 2484 409 2743 651 
Q 3003 894 3003 1313 
Q 3003 1734 2745 1975 
Q 2488 2216 2034 2216 
z
M 1403 2484 
Q 997 2584 770 2862 
Q 544 3141 544 3541 
Q 544 4100 942 4425 
Q 1341 4750 2034 4750 
Q 2731 4750 3128 4425 
Q 3525 4100 3525 3541 
Q 3525 3141 3298 2862 
Q 3072 2584 2669 2484 
Q 3125 2378 3379 2068 
Q 3634 1759 3634 1313 
Q 3634 634 3220 271 
Q 2806 -91 2034 -91 
Q 1263 -91 848 271 
Q 434 634 434 1313 
Q 434 1759 690 2068 
Q 947 2378 1403 2484 
z
M 1172 3481 
Q 1172 3119 1398 2916 
Q 1625 2713 2034 2713 
Q 2441 2713 2670 2916 
Q 2900 3119 2900 3481 
Q 2900 3844 2670 4047 
Q 2441 4250 2034 4250 
Q 1625 4250 1398 4047 
Q 1172 3844 1172 3481 
z
" transform="scale(0.015625)"/>
       </defs>
       <use xlink:href="#DejaVuSans-30"/>
       <use xlink:href="#DejaVuSans-2e" transform="translate(63.623047 0)"/>
       <use xlink:href="#DejaVuSans-38" transform="translate(95.410156 0)"/>
      </g>
     </g>
    </g>
    <g id="xtick_6">
     <g id="line2d_11">
      <path d="M 468.447958 316.44327 
L 468.447958 7.2 
" clip-path="url(#pa92ed09256)" style="fill: none; stroke: #b0b0b0; stroke-opacity: 0.55; stroke-width: 0.8; stroke-linecap: square"/>
     </g>
     <g id="line2d_12">
      <g>
       <use xlink:href="#m4950a6c004" x="468.447958" y="316.44327" style="stroke: #000000; stroke-width: 0.8"/>
      </g>
     </g>
     <g id="text_6">
      <!-- 1.0 -->
      <g transform="translate(460.496395 331.041707) scale(0.1 -0.1)">
       <defs>
        <path id="DejaVuSans-31" d="M 794 531 
L 1825 531 
L 1825 4091 
L 703 3866 
L 703 4441 
L 1819 4666 
L 2450 4666 
L 2450 531 
L 3481 531 
L 3481 0 
L 794 0 
L 794 531 
z
" transform="scale(0.015625)"/>
       </defs>
       <use xlink:href="#DejaVuSans-31"/>
       <use xlink:href="#DejaVuSans-2e" transform="translate(63.623047 0)"/>
       <use xlink:href="#DejaVuSans-30" transform="translate(95.410156 0)"/>
      </g>
     </g>
    </g>
    <g id="text_7">
     <!-- Densidade de corrente (A/cm²) -->
     <g transform="translate(178.886479 344.719832) scale(0.1 -0.1)">
      <defs>
       <path id="DejaVuSans-44" d="M 1259 4147 
L 1259 519 
L 2022 519 
Q 2988 519 3436 956 
Q 3884 1394 3884 2338 
Q 3884 3275 3436 3711 
Q 2988 4147 2022 4147 
L 1259 4147 
z
M 628 4666 
L 1925 4666 
Q 3281 4666 3915 4102 
Q 4550 3538 4550 2338 
Q 4550 1131 3912 565 
Q 3275 0 1925 0 
L 628 0 
L 628 4666 
z
" transform="scale(0.015625)"/>
       <path id="DejaVuSans-65" d="M 3597 1894 
L 3597 1613 
L 953 1613 
Q 991 1019 1311 708 
Q 1631 397 2203 397 
Q 2534 397 2845 478 
Q 3156 559 3463 722 
L 3463 178 
Q 3153 47 2828 -22 
Q 2503 -91 2169 -91 
Q 1331 -91 842 396 
Q 353 884 353 1716 
Q 353 2575 817 3079 
Q 1281 3584 2069 3584 
Q 2775 3584 3186 3129 
Q 3597 2675 3597 1894 
z
M 3022 2063 
Q 3016 2534 2758 2815 
Q 2500 3097 2075 3097 
Q 1594 3097 1305 2825 
Q 1016 2553 972 2059 
L 3022 2063 
z
" transform="scale(0.015625)"/>
       <path id="DejaVuSans-6e" d="M 3513 2113 
L 3513 0 
L 2938 0 
L 2938 2094 
Q 2938 2591 2744 2837 
Q 2550 3084 2163 3084 
Q 1697 3084 1428 2787 
Q 1159 2491 1159 1978 
L 1159 0 
L 581 0 
L 581 3500 
L 1159 3500 
L 1159 2956 
Q 1366 3272 1645 3428 
Q 1925 3584 2291 3584 
Q 2894 3584 3203 3211 
Q 3513 2838 3513 2113 
z
" transform="scale(0.015625)"/>
       <path id="DejaVuSans-73" d="M 2834 3397 
L 2834 2853 
Q 2591 2978 2328 3040 
Q 2066 3103 1784 3103 
Q 1356 3103 1142 2972 
Q 928 2841 928 2578 
Q 928 2378 1081 2264 
Q 1234 2150 1697 2047 
L 1894 2003 
Q 2506 1872 2764 1633 
Q 3022 1394 3022 966 
Q 3022 478 2636 193 
Q 2250 -91 1575 -91 
Q 1294 -91 989 -36 
Q 684 19 347 128 
L 347 722 
Q 666 556 975 473 
Q 1284 391 1588 391 
Q 1994 391 2212 530 
Q 2431 669 2431 922 
Q 2431 1156 2273 1281 
Q 2116 1406 1581 1522 
L 1381 1569 
Q 847 1681 609 1914 
Q 372 2147 372 2553 
Q 372 3047 722 3315 
Q 1072 3584 1716 3584 
Q 2034 3584 2315 3537 
Q 2597 3491 2834 3397 
z
" transform="scale(0.015625)"/>
       <path id="DejaVuSans-69" d="M 603 3500 
L 1178 3500 
L 1178 0 
L 603 0 
L 603 3500 
z
M 603 4863 
L 1178 4863 
L 1178 4134 
L 603 4134 
L 603 4863 
z
" transform="scale(0.015625)"/>
       <path id="DejaVuSans-64" d="M 2906 2969 
L 2906 4863 
L 3481 4863 
L 3481 0 
L 2906 0 
L 2906 525 
Q 2725 213 2448 61 
Q 2172 -91 1784 -91 
Q 1150 -91 751 415 
Q 353 922 353 1747 
Q 353 2572 751 3078 
Q 1150 3584 1784 3584 
Q 2172 3584 2448 3432 
Q 2725 3281 2906 2969 
z
M 947 1747 
Q 947 1113 1208 752 
Q 1469 391 1925 391 
Q 2381 391 2643 752 
Q 2906 1113 2906 1747 
Q 2906 2381 2643 2742 
Q 2381 3103 1925 3103 
Q 1469 3103 1208 2742 
Q 947 2381 947 1747 
z
" transform="scale(0.015625)"/>
       <path id="DejaVuSans-61" d="M 2194 1759 
Q 1497 1759 1228 1600 
Q 959 1441 959 1056 
Q 959 750 1161 570 
Q 1363 391 1709 391 
Q 2188 391 2477 730 
Q 2766 1069 2766 1631 
L 2766 1759 
L 2194 1759 
z
M 3341 1997 
L 3341 0 
L 2766 0 
L 2766 531 
Q 2569 213 2275 61 
Q 1981 -91 1556 -91 
Q 1019 -91 701 211 
Q 384 513 384 1019 
Q 384 1609 779 1909 
Q 1175 2209 1959 2209 
L 2766 2209 
L 2766 2266 
Q 2766 2663 2505 2880 
Q 2244 3097 1772 3097 
Q 1472 3097 1187 3025 
Q 903 2953 641 2809 
L 641 3341 
Q 956 3463 1253 3523 
Q 1550 3584 1831 3584 
Q 2591 3584 2966 3190 
Q 3341 2797 3341 1997 
z
" transform="scale(0.015625)"/>
       <path id="DejaVuSans-20" transform="scale(0.015625)"/>
       <path id="DejaVuSans-63" d="M 3122 3366 
L 3122 2828 
Q 2878 2963 2633 3030 
Q 2388 3097 2138 3097 
Q 1578 3097 1268 2742 
Q 959 2388 959 1747 
Q 959 1106 1268 751 
Q 1578 397 2138 397 
Q 2388 397 2633 464 
Q 2878 531 3122 666 
L 3122 134 
Q 2881 22 2623 -34 
Q 2366 -91 2075 -91 
Q 1284 -91 818 406 
Q 353 903 353 1747 
Q 353 2603 823 3093 
Q 1294 3584 2113 3584 
Q 2378 3584 2631 3529 
Q 2884 3475 3122 3366 
z
" transform="scale(0.015625)"/>
       <path id="DejaVuSans-6f" d="M 1959 3097 
Q 1497 3097 1228 2736 
Q 959 2375 959 1747 
Q 959 1119 1226 758 
Q 1494 397 1959 397 
Q 2419 397 2687 759 
Q 2956 1122 2956 1747 
Q 2956 2369 2687 2733 
Q 2419 3097 1959 3097 
z
M 1959 3584 
Q 2709 3584 3137 3096 
Q 3566 2609 3566 1747 
Q 3566 888 3137 398 
Q 2709 -91 1959 -91 
Q 1206 -91 779 398 
Q 353 888 353 1747 
Q 353 2609 779 3096 
Q 1206 3584 1959 3584 
z
" transform="scale(0.015625)"/>
       <path id="DejaVuSans-72" d="M 2631 2963 
Q 2534 3019 2420 3045 
Q 2306 3072 2169 3072 
Q 1681 3072 1420 2755 
Q 1159 2438 1159 1844 
L 1159 0 
L 581 0 
L 581 3500 
L 1159 3500 
L 1159 2956 
Q 1341 3275 1631 3429 
Q 1922 3584 2338 3584 
Q 2397 3584 2469 3576 
Q 2541 3569 2628 3553 
L 2631 2963 
z
" transform="scale(0.015625)"/>
       <path id="DejaVuSans-74" d="M 1172 4494 
L 1172 3500 
L 2356 3500 
L 2356 3053 
L 1172 3053 
L 1172 1153 
Q 1172 725 1289 603 
Q 1406 481 1766 481 
L 2356 481 
L 2356 0 
L 1766 0 
Q 1100 0 847 248 
Q 594 497 594 1153 
L 594 3053 
L 172 3053 
L 172 3500 
L 594 3500 
L 594 4494 
L 1172 4494 
z
" transform="scale(0.015625)"/>
       <path id="DejaVuSans-28" d="M 1984 4856 
Q 1566 4138 1362 3434 
Q 1159 2731 1159 2009 
Q 1159 1288 1364 580 
Q 1569 -128 1984 -844 
L 1484 -844 
Q 1016 -109 783 600 
Q 550 1309 550 2009 
Q 550 2706 781 3412 
Q 1013 4119 1484 4856 
L 1984 4856 
z
" transform="scale(0.015625)"/>
       <path id="DejaVuSans-41" d="M 2188 4044 
L 1331 1722 
L 3047 1722 
L 2188 4044 
z
M 1831 4666 
L 2547 4666 
L 4325 0 
L 3669 0 
L 3244 1197 
L 1141 1197 
L 716 0 
L 50 0 
L 1831 4666 
z
" transform="scale(0.015625)"/>
       <path id="DejaVuSans-2f" d="M 1625 4666 
L 2156 4666 
L 531 -594 
L 0 -594 
L 1625 4666 
z
" transform="scale(0.015625)"/>
       <path id="DejaVuSans-6d" d="M 3328 2828 
Q 3544 3216 3844 3400 
Q 4144 3584 4550 3584 
Q 5097 3584 5394 3201 
Q 5691 2819 5691 2113 
L 5691 0 
L 5113 0 
L 5113 2094 
Q 5113 2597 4934 2840 
Q 4756 3084 4391 3084 
Q 3944 3084 3684 2787 
Q 3425 2491 3425 1978 
L 3425 0 
L 2847 0 
L 2847 2094 
Q 2847 2600 2669 2842 
Q 2491 3084 2119 3084 
Q 1678 3084 1418 2786 
Q 1159 2488 1159 1978 
L 1159 0 
L 581 0 
L 581 3500 
L 1159 3500 
L 1159 2956 
Q 1356 3278 1631 3431 
Q 1906 3584 2284 3584 
Q 2666 3584 2933 3390 
Q 3200 3197 3328 2828 
z
" transform="scale(0.015625)"/>
       <path id="DejaVuSans-b2" d="M 838 2444 
L 2163 2444 
L 2163 2088 
L 294 2088 
L 294 2431 
Q 400 2528 597 2703 
Q 1672 3656 1672 3950 
Q 1672 4156 1509 4282 
Q 1347 4409 1081 4409 
Q 919 4409 728 4354 
Q 538 4300 313 4191 
L 313 4575 
Q 553 4663 761 4706 
Q 969 4750 1147 4750 
Q 1600 4750 1872 4544 
Q 2144 4338 2144 4000 
Q 2144 3566 1109 2678 
Q 934 2528 838 2444 
z
" transform="scale(0.015625)"/>
       <path id="DejaVuSans-29" d="M 513 4856 
L 1013 4856 
Q 1481 4119 1714 3412 
Q 1947 2706 1947 2009 
Q 1947 1309 1714 600 
Q 1481 -109 1013 -844 
L 513 -844 
Q 928 -128 1133 580 
Q 1338 1288 1338 2009 
Q 1338 2731 1133 3434 
Q 928 4138 513 4856 
z
" transform="scale(0.015625)"/>
      </defs>
      <use xlink:href="#DejaVuSans-44"/>
      <use xlink:href="#DejaVuSans-65" transform="translate(77.001953 0)"/>
      <use xlink:href="#DejaVuSans-6e" transform="translate(138.525391 0)"/>
      <use xlink:href="#DejaVuSans-73" transform="translate(201.904297 0)"/>
      <use xlink:href="#DejaVuSans-69" transform="translate(254.003906 0)"/>
      <use xlink:href="#DejaVuSans-64" transform="translate(281.787109 0)"/>
      <use xlink:href="#DejaVuSans-61" transform="translate(345.263672 0)"/>
      <use xlink:href="#DejaVuSans-64" transform="translate(406.542969 0)"/>
      <use xlink:href="#DejaVuSans-65" transform="translate(470.019531 0)"/>
      <use xlink:href="#DejaVuSans-20" transform="translate(531.542969 0)"/>
      <use xlink:href="#DejaVuSans-64" transform="translate(563.330078 0)"/>
      <use xlink:href="#DejaVuSans-65" transform="translate(626.806641 0)"/>
      <use xlink:href="#DejaVuSans-20" transform="translate(688.330078 0)"/>
      <use xlink:href="#DejaVuSans-63" transform="translate(720.117188 0)"/>
      <use xlink:href="#DejaVuSans-6f" transform="translate(775.097656 0)"/>
      <use xlink:href="#DejaVuSans-72" transform="translate(836.279297 0)"/>
      <use xlink:href="#DejaVuSans-72" transform="translate(875.642578 0)"/>
      <use xlink:href="#DejaVuSans-65" transform="translate(914.505859 0)"/>
      <use xlink:href="#DejaVuSans-6e" transform="translate(976.029297 0)"/>
      <use xlink:href="#DejaVuSans-74" transform="translate(1039.408203 0)"/>
      <use xlink:href="#DejaVuSans-65" transform="translate(1078.617188 0)"/>
      <use xlink:href="#DejaVuSans-20" transform="translate(1140.140625 0)"/>
      <use xlink:href="#DejaVuSans-28" transform="translate(1171.927734 0)"/>
      <use xlink:href="#DejaVuSans-41" transform="translate(1210.941406 0)"/>
      <use xlink:href="#DejaVuSans-2f" transform="translate(1279.349609 0)"/>
      <use xlink:href="#DejaVuSans-63" transform="translate(1313.041016 0)"/>
      <use xlink:href="#DejaVuSans-6d" transform="translate(1368.021484 0)"/>
      <use xlink:href="#DejaVuSans-b2" transform="translate(1465.433594 0)"/>
      <use xlink:href="#DejaVuSans-29" transform="translate(1505.521484 0)"/>
     </g>
    </g>
   </g>
   <g id="matplotlib.axis_2">
    <g id="ytick_1">
     <g id="line2d_13">
      <path d="M 43.78125 302.514453 
L 468.447958 302.514453 
" clip-path="url(#pa92ed09256)" style="fill: none; stroke: #b0b0b0; stroke-opacity: 0.55; stroke-width: 0.8; stroke-linecap: square"/>
     </g>
     <g id="line2d_14">
      <defs>
       <path id="m6ef0dd6677" d="M 0 0 
L -3.5 0 
" style="stroke: #000000; stroke-width: 0.8"/>
      </defs>
      <g>
       <use xlink:href="#m6ef0dd6677" x="43.78125" y="302.514453" style="stroke: #000000; stroke-width: 0.8"/>
      </g>
     </g>
     <g id="text_8">
      <!-- 0.0 -->
      <g transform="translate(20.878125 306.313672) scale(0.1 -0.1)">
       <use xlink:href="#DejaVuSans-30"/>
       <use xlink:href="#DejaVuSans-2e" transform="translate(63.623047 0)"/>
       <use xlink:href="#DejaVuSans-30" transform="translate(95.410156 0)"/>
      </g>
     </g>
    </g>
    <g id="ytick_2">
     <g id="line2d_15">
      <path d="M 43.78125 255.960192 
L 468.447958 255.960192 
" clip-path="url(#pa92ed09256)" style="fill: none; stroke: #b0b0b0; stroke-opacity: 0.55; stroke-width: 0.8; stroke-linecap: square"/>
     </g>
     <g id="line2d_16">
      <g>
       <use xlink:href="#m6ef0dd6677" x="43.78125" y="255.960192" style="stroke: #000000; stroke-width: 0.8"/>
      </g>
     </g>
     <g id="text_9">
      <!-- 0.2 -->
      <g transform="translate(20.878125 259.759411) scale(0.1 -0.1)">
       <use xlink:href="#DejaVuSans-30"/>
       <use xlink:href="#DejaVuSans-2e" transform="translate(63.623047 0)"/>
       <use xlink:href="#DejaVuSans-32" transform="translate(95.410156 0)"/>
      </g>
     </g>
    </g>
    <g id="ytick_3">
     <g id="line2d_17">
      <path d="M 43.78125 209.405931 
L 468.447958 209.405931 
" clip-path="url(#pa92ed09256)" style="fill: none; stroke: #b0b0b0; stroke-opacity: 0.55; stroke-width: 0.8; stroke-linecap: square"/>
     </g>
     <g id="line2d_18">
      <g>
       <use xlink:href="#m6ef0dd6677" x="43.78125" y="209.405931" style="stroke: #000000; stroke-width: 0.8"/>
      </g>
     </g>
     <g id="text_10">
      <!-- 0.4 -->
      <g transform="translate(20.878125 213.20515) scale(0.1 -0.1)">
       <use xlink:href="#DejaVuSans-30"/>
       <use xlink:href="#DejaVuSans-2e" transform="translate(63.623047 0)"/>
       <use xlink:href="#DejaVuSans-34" transform="translate(95.410156 0)"/>
      </g>
     </g>
    </g>
    <g id="ytick_4">
     <g id="line2d_19">
      <path d="M 43.78125 162.85167 
L 468.447958 162.85167 
" clip-path="url(#pa92ed09256)" style="fill: none; stroke: #b0b0b0; stroke-opacity: 0.55; stroke-width: 0.8; stroke-linecap: square"/>
     </g>
     <g id="line2d_20">
      <g>
       <use xlink:href="#m6ef0dd6677" x="43.78125" y="162.85167" style="stroke: #000000; stroke-width: 0.8"/>
      </g>
     </g>
     <g id="text_11">
      <!-- 0.6 -->
      <g transform="translate(20.878125 166.650889) scale(0.1 -0.1)">
       <use xlink:href="#DejaVuSans-30"/>
       <use xlink:href="#DejaVuSans-2e" transform="translate(63.623047 0)"/>
       <use xlink:href="#DejaVuSans-36" transform="translate(95.410156 0)"/>
      </g>
     </g>
    </g>
    <g id="ytick_5">
     <g id="line2d_21">
      <path d="M 43.78125 116.297409 
L 468.447958 116.297409 
" clip-path="url(#pa92ed09256)" style="fill: none; stroke: #b0b0b0; stroke-opacity: 0.55; stroke-width: 0.8; stroke-linecap: square"/>
     </g>
     <g id="line2d_22">
      <g>
       <use xlink:href="#m6ef0dd6677" x="43.78125" y="116.297409" style="stroke: #000000; stroke-width: 0.8"/>
      </g>
     </g>
     <g id="text_12">
      <!-- 0.8 -->
      <g transform="translate(20.878125 120.096628) scale(0.1 -0.1)">
       <use xlink:href="#DejaVuSans-30"/>
       <use xlink:href="#DejaVuSans-2e" transform="translate(63.623047 0)"/>
       <use xlink:href="#DejaVuSans-38" transform="translate(95.410156 0)"/>
      </g>
     </g>
    </g>
    <g id="ytick_6">
     <g id="line2d_23">
      <path d="M 43.78125 69.743148 
L 468.447958 69.743148 
" clip-path="url(#pa92ed09256)" style="fill: none; stroke: #b0b0b0; stroke-opacity: 0.55; stroke-width: 0.8; stroke-linecap: square"/>
     </g>
     <g id="line2d_24">
      <g>
       <use xlink:href="#m6ef0dd6677" x="43.78125" y="69.743148" style="stroke: #000000; stroke-width: 0.8"/>
      </g>
     </g>
     <g id="text_13">
      <!-- 1.0 -->
      <g transform="translate(20.878125 73.542367) scale(0.1 -0.1)">
       <use xlink:href="#DejaVuSans-31"/>
       <use xlink:href="#DejaVuSans-2e" transform="translate(63.623047 0)"/>
       <use xlink:href="#DejaVuSans-30" transform="translate(95.410156 0)"/>
      </g>
     </g>
    </g>
    <g id="ytick_7">
     <g id="line2d_25">
      <path d="M 43.78125 23.188887 
L 468.447958 23.188887 
" clip-path="url(#pa92ed09256)" style="fill: none; stroke: #b0b0b0; stroke-opacity: 0.55; stroke-width: 0.8; stroke-linecap: square"/>
     </g>
     <g id="line2d_26">
      <g>
       <use xlink:href="#m6ef0dd6677" x="43.78125" y="23.188887" style="stroke: #000000; stroke-width: 0.8"/>
      </g>
     </g>
     <g id="text_14">
      <!-- 1.2 -->
      <g transform="translate(20.878125 26.988106) scale(0.1 -0.1)">
       <use xlink:href="#DejaVuSans-31"/>
       <use xlink:href="#DejaVuSans-2e" transform="translate(63.623047 0)"/>
       <use xlink:href="#DejaVuSans-32" transform="translate(95.410156 0)"/>
      </g>
     </g>
    </g>
    <g id="text_15">
     <!-- Erro percentual absoluto (%) -->
     <g transform="translate(14.798438 233.620854) rotate(-90) scale(0.1 -0.1)">
      <defs>
       <path id="DejaVuSans-45" d="M 628 4666 
L 3578 4666 
L 3578 4134 
L 1259 4134 
L 1259 2753 
L 3481 2753 
L 3481 2222 
L 1259 2222 
L 1259 531 
L 3634 531 
L 3634 0 
L 628 0 
L 628 4666 
z
" transform="scale(0.015625)"/>
       <path id="DejaVuSans-70" d="M 1159 525 
L 1159 -1331 
L 581 -1331 
L 581 3500 
L 1159 3500 
L 1159 2969 
Q 1341 3281 1617 3432 
Q 1894 3584 2278 3584 
Q 2916 3584 3314 3078 
Q 3713 2572 3713 1747 
Q 3713 922 3314 415 
Q 2916 -91 2278 -91 
Q 1894 -91 1617 61 
Q 1341 213 1159 525 
z
M 3116 1747 
Q 3116 2381 2855 2742 
Q 2594 3103 2138 3103 
Q 1681 3103 1420 2742 
Q 1159 2381 1159 1747 
Q 1159 1113 1420 752 
Q 1681 391 2138 391 
Q 2594 391 2855 752 
Q 3116 1113 3116 1747 
z
" transform="scale(0.015625)"/>
       <path id="DejaVuSans-75" d="M 544 1381 
L 544 3500 
L 1119 3500 
L 1119 1403 
Q 1119 906 1312 657 
Q 1506 409 1894 409 
Q 2359 409 2629 706 
Q 2900 1003 2900 1516 
L 2900 3500 
L 3475 3500 
L 3475 0 
L 2900 0 
L 2900 538 
Q 2691 219 2414 64 
Q 2138 -91 1772 -91 
Q 1169 -91 856 284 
Q 544 659 544 1381 
z
M 1991 3584 
L 1991 3584 
z
" transform="scale(0.015625)"/>
       <path id="DejaVuSans-6c" d="M 603 4863 
L 1178 4863 
L 1178 0 
L 603 0 
L 603 4863 
z
" transform="scale(0.015625)"/>
       <path id="DejaVuSans-62" d="M 3116 1747 
Q 3116 2381 2855 2742 
Q 2594 3103 2138 3103 
Q 1681 3103 1420 2742 
Q 1159 2381 1159 1747 
Q 1159 1113 1420 752 
Q 1681 391 2138 391 
Q 2594 391 2855 752 
Q 3116 1113 3116 1747 
z
M 1159 2969 
Q 1341 3281 1617 3432 
Q 1894 3584 2278 3584 
Q 2916 3584 3314 3078 
Q 3713 2572 3713 1747 
Q 3713 922 3314 415 
Q 2916 -91 2278 -91 
Q 1894 -91 1617 61 
Q 1341 213 1159 525 
L 1159 0 
L 581 0 
L 581 4863 
L 1159 4863 
L 1159 2969 
z
" transform="scale(0.015625)"/>
       <path id="DejaVuSans-25" d="M 4653 2053 
Q 4381 2053 4226 1822 
Q 4072 1591 4072 1178 
Q 4072 772 4226 539 
Q 4381 306 4653 306 
Q 4919 306 5073 539 
Q 5228 772 5228 1178 
Q 5228 1588 5073 1820 
Q 4919 2053 4653 2053 
z
M 4653 2450 
Q 5147 2450 5437 2106 
Q 5728 1763 5728 1178 
Q 5728 594 5436 251 
Q 5144 -91 4653 -91 
Q 4153 -91 3862 251 
Q 3572 594 3572 1178 
Q 3572 1766 3864 2108 
Q 4156 2450 4653 2450 
z
M 1428 4353 
Q 1159 4353 1004 4120 
Q 850 3888 850 3481 
Q 850 3069 1003 2837 
Q 1156 2606 1428 2606 
Q 1700 2606 1854 2837 
Q 2009 3069 2009 3481 
Q 2009 3884 1853 4118 
Q 1697 4353 1428 4353 
z
M 4250 4750 
L 4750 4750 
L 1831 -91 
L 1331 -91 
L 4250 4750 
z
M 1428 4750 
Q 1922 4750 2215 4408 
Q 2509 4066 2509 3481 
Q 2509 2891 2217 2550 
Q 1925 2209 1428 2209 
Q 931 2209 642 2551 
Q 353 2894 353 3481 
Q 353 4063 643 4406 
Q 934 4750 1428 4750 
z
" transform="scale(0.015625)"/>
      </defs>
      <use xlink:href="#DejaVuSans-45"/>
      <use xlink:href="#DejaVuSans-72" transform="translate(63.183594 0)"/>
      <use xlink:href="#DejaVuSans-72" transform="translate(102.546875 0)"/>
      <use xlink:href="#DejaVuSans-6f" transform="translate(141.410156 0)"/>
      <use xlink:href="#DejaVuSans-20" transform="translate(202.591797 0)"/>
      <use xlink:href="#DejaVuSans-70" transform="translate(234.378906 0)"/>
      <use xlink:href="#DejaVuSans-65" transform="translate(297.855469 0)"/>
      <use xlink:href="#DejaVuSans-72" transform="translate(359.378906 0)"/>
      <use xlink:href="#DejaVuSans-63" transform="translate(398.242188 0)"/>
      <use xlink:href="#DejaVuSans-65" transform="translate(453.222656 0)"/>
      <use xlink:href="#DejaVuSans-6e" transform="translate(514.746094 0)"/>
      <use xlink:href="#DejaVuSans-74" transform="translate(578.125 0)"/>
      <use xlink:href="#DejaVuSans-75" transform="translate(617.333984 0)"/>
      <use xlink:href="#DejaVuSans-61" transform="translate(680.712891 0)"/>
      <use xlink:href="#DejaVuSans-6c" transform="translate(741.992188 0)"/>
      <use xlink:href="#DejaVuSans-20" transform="translate(769.775391 0)"/>
      <use xlink:href="#DejaVuSans-61" transform="translate(801.5625 0)"/>
      <use xlink:href="#DejaVuSans-62" transform="translate(862.841797 0)"/>
      <use xlink:href="#DejaVuSans-73" transform="translate(926.318359 0)"/>
      <use xlink:href="#DejaVuSans-6f" transform="translate(978.417969 0)"/>
      <use xlink:href="#DejaVuSans-6c" transform="translate(1039.599609 0)"/>
      <use xlink:href="#DejaVuSans-75" transform="translate(1067.382812 0)"/>
      <use xlink:href="#DejaVuSans-74" transform="translate(1130.761719 0)"/>
      <use xlink:href="#DejaVuSans-6f" transform="translate(1169.970703 0)"/>
      <use xlink:href="#DejaVuSans-20" transform="translate(1231.152344 0)"/>
      <use xlink:href="#DejaVuSans-28" transform="translate(1262.939453 0)"/>
      <use xlink:href="#DejaVuSans-25" transform="translate(1301.953125 0)"/>
      <use xlink:href="#DejaVuSans-29" transform="translate(1396.972656 0)"/>
     </g>
    </g>
   </g>
   <g id="line2d_27">
    <path d="M 48.231905 163.578498 
L 52.434066 21.256512 
L 56.636226 69.299701 
L 60.838387 157.184781 
L 65.040548 287.44663 
L 69.242708 250.770952 
L 73.444869 248.936203 
L 77.647029 274.948311 
L 81.84919 268.529431 
L 86.05135 267.122101 
L 90.253511 260.726839 
L 94.455671 264.467397 
L 98.657832 271.046864 
L 102.859992 274.41641 
L 107.062153 275.090682 
L 111.264313 273.461757 
L 115.466474 269.689022 
L 119.668634 264.12897 
L 123.870795 256.959244 
L 128.072955 248.298661 
L 132.275116 253.777319 
L 136.477276 236.254453 
L 140.679437 244.240741 
L 144.881597 256.532059 
L 149.083758 246.81525 
L 153.285918 261.824383 
L 157.488079 252.508908 
L 161.69024 260.823367 
L 165.8924 274.538063 
L 170.094561 273.719424 
L 174.296721 271.164923 
L 178.498882 284.121104 
L 182.701042 266.67067 
L 186.903203 279.336292 
L 191.105363 273.857988 
L 195.307524 273.979644 
L 199.509684 286.590157 
L 203.711845 299.294838 
L 207.914005 281.11807 
L 212.116166 294.031465 
L 216.318326 277.945473 
L 220.520487 289.129264 
L 224.722647 290.690189 
L 228.924808 284.87294 
L 233.126968 299.003882 
L 237.329129 283.149542 
L 241.531289 296.401526 
L 245.73345 295.702984 
L 249.93561 295.159207 
L 254.137771 293.606459 
L 258.339931 295.589832 
L 262.542092 292.095371 
L 266.744253 294.291133 
L 270.946413 288.457449 
L 275.148574 302.386758 
L 279.350734 291.84446 
L 283.552895 295.121332 
L 287.755055 282.62519 
L 291.957216 284.885242 
L 296.159376 289.588974 
L 300.361537 271.33974 
L 304.563697 280.414148 
L 308.765858 288.69252 
L 312.968018 296.105945 
L 317.170179 292.362111 
L 321.372339 289.995916 
L 325.5745 277.326438 
L 329.77666 280.616634 
L 333.978821 253.660088 
L 338.180981 262.445865 
L 342.383142 283.353324 
L 346.585302 281.662625 
L 350.787463 275.666926 
L 354.989623 274.047397 
L 359.191784 267.915327 
L 363.393944 260.180644 
L 367.596105 288.233754 
L 371.798266 277.147849 
L 376.000426 264.202207 
L 380.202587 249.193316 
L 384.404747 270.638277 
L 388.606908 251.60479 
L 392.809068 269.270244 
L 397.011229 263.953651 
L 401.213389 259.22316 
L 405.41555 270.600961 
L 409.61771 279.803724 
L 413.819871 269.084806 
L 418.022031 290.871606 
L 422.224192 256.301902 
L 426.426352 287.171397 
L 430.628513 289.259084 
L 434.830673 299.257806 
L 439.032834 292.77083 
L 443.234994 298.822668 
L 447.437155 270.633819 
L 451.639315 237.309718 
L 455.841476 221.606242 
L 460.043636 215.040204 
L 464.245797 207.331673 
L 468.447958 213.846872 
" clip-path="url(#pa92ed09256)" style="fill: none; stroke: #006bbd; stroke-width: 2; stroke-linecap: square"/>
    <defs>
     <path id="mb7adbbcb06" d="M 0 1.4 
C 0.371284 1.4 0.727412 1.252487 0.989949 0.989949 
C 1.252487 0.727412 1.4 0.371284 1.4 0 
C 1.4 -0.371284 1.252487 -0.727412 0.989949 -0.989949 
C 0.727412 -1.252487 0.371284 -1.4 0 -1.4 
C -0.371284 -1.4 -0.727412 -1.252487 -0.989949 -0.989949 
C -1.252487 -0.727412 -1.4 -0.371284 -1.4 0 
C -1.4 0.371284 -1.252487 0.727412 -0.989949 0.989949 
C -0.727412 1.252487 -0.371284 1.4 0 1.4 
z
" style="stroke: #006bbd"/>
    </defs>
    <g clip-path="url(#pa92ed09256)">
     <use xlink:href="#mb7adbbcb06" x="48.231905" y="163.578498" style="fill: #006bbd; stroke: #006bbd"/>
     <use xlink:href="#mb7adbbcb06" x="52.434066" y="21.256512" style="fill: #006bbd; stroke: #006bbd"/>
     <use xlink:href="#mb7adbbcb06" x="56.636226" y="69.299701" style="fill: #006bbd; stroke: #006bbd"/>
     <use xlink:href="#mb7adbbcb06" x="60.838387" y="157.184781" style="fill: #006bbd; stroke: #006bbd"/>
     <use xlink:href="#mb7adbbcb06" x="65.040548" y="287.44663" style="fill: #006bbd; stroke: #006bbd"/>
     <use xlink:href="#mb7adbbcb06" x="69.242708" y="250.770952" style="fill: #006bbd; stroke: #006bbd"/>
     <use xlink:href="#mb7adbbcb06" x="73.444869" y="248.936203" style="fill: #006bbd; stroke: #006bbd"/>
     <use xlink:href="#mb7adbbcb06" x="77.647029" y="274.948311" style="fill: #006bbd; stroke: #006bbd"/>
     <use xlink:href="#mb7adbbcb06" x="81.84919" y="268.529431" style="fill: #006bbd; stroke: #006bbd"/>
     <use xlink:href="#mb7adbbcb06" x="86.05135" y="267.122101" style="fill: #006bbd; stroke: #006bbd"/>
     <use xlink:href="#mb7adbbcb06" x="90.253511" y="260.726839" style="fill: #006bbd; stroke: #006bbd"/>
     <use xlink:href="#mb7adbbcb06" x="94.455671" y="264.467397" style="fill: #006bbd; stroke: #006bbd"/>
     <use xlink:href="#mb7adbbcb06" x="98.657832" y="271.046864" style="fill: #006bbd; stroke: #006bbd"/>
     <use xlink:href="#mb7adbbcb06" x="102.859992" y="274.41641" style="fill: #006bbd; stroke: #006bbd"/>
     <use xlink:href="#mb7adbbcb06" x="107.062153" y="275.090682" style="fill: #006bbd; stroke: #006bbd"/>
     <use xlink:href="#mb7adbbcb06" x="111.264313" y="273.461757" style="fill: #006bbd; stroke: #006bbd"/>
     <use xlink:href="#mb7adbbcb06" x="115.466474" y="269.689022" style="fill: #006bbd; stroke: #006bbd"/>
     <use xlink:href="#mb7adbbcb06" x="119.668634" y="264.12897" style="fill: #006bbd; stroke: #006bbd"/>
     <use xlink:href="#mb7adbbcb06" x="123.870795" y="256.959244" style="fill: #006bbd; stroke: #006bbd"/>
     <use xlink:href="#mb7adbbcb06" x="128.072955" y="248.298661" style="fill: #006bbd; stroke: #006bbd"/>
     <use xlink:href="#mb7adbbcb06" x="132.275116" y="253.777319" style="fill: #006bbd; stroke: #006bbd"/>
     <use xlink:href="#mb7adbbcb06" x="136.477276" y="236.254453" style="fill: #006bbd; stroke: #006bbd"/>
     <use xlink:href="#mb7adbbcb06" x="140.679437" y="244.240741" style="fill: #006bbd; stroke: #006bbd"/>
     <use xlink:href="#mb7adbbcb06" x="144.881597" y="256.532059" style="fill: #006bbd; stroke: #006bbd"/>
     <use xlink:href="#mb7adbbcb06" x="149.083758" y="246.81525" style="fill: #006bbd; stroke: #006bbd"/>
     <use xlink:href="#mb7adbbcb06" x="153.285918" y="261.824383" style="fill: #006bbd; stroke: #006bbd"/>
     <use xlink:href="#mb7adbbcb06" x="157.488079" y="252.508908" style="fill: #006bbd; stroke: #006bbd"/>
     <use xlink:href="#mb7adbbcb06" x="161.69024" y="260.823367" style="fill: #006bbd; stroke: #006bbd"/>
     <use xlink:href="#mb7adbbcb06" x="165.8924" y="274.538063" style="fill: #006bbd; stroke: #006bbd"/>
     <use xlink:href="#mb7adbbcb06" x="170.094561" y="273.719424" style="fill: #006bbd; stroke: #006bbd"/>
     <use xlink:href="#mb7adbbcb06" x="174.296721" y="271.164923" style="fill: #006bbd; stroke: #006bbd"/>
     <use xlink:href="#mb7adbbcb06" x="178.498882" y="284.121104" style="fill: #006bbd; stroke: #006bbd"/>
     <use xlink:href="#mb7adbbcb06" x="182.701042" y="266.67067" style="fill: #006bbd; stroke: #006bbd"/>
     <use xlink:href="#mb7adbbcb06" x="186.903203" y="279.336292" style="fill: #006bbd; stroke: #006bbd"/>
     <use xlink:href="#mb7adbbcb06" x="191.105363" y="273.857988" style="fill: #006bbd; stroke: #006bbd"/>
     <use xlink:href="#mb7adbbcb06" x="195.307524" y="273.979644" style="fill: #006bbd; stroke: #006bbd"/>
     <use xlink:href="#mb7adbbcb06" x="199.509684" y="286.590157" style="fill: #006bbd; stroke: #006bbd"/>
     <use xlink:href="#mb7adbbcb06" x="203.711845" y="299.294838" style="fill: #006bbd; stroke: #006bbd"/>
     <use xlink:href="#mb7adbbcb06" x="207.914005" y="281.11807" style="fill: #006bbd; stroke: #006bbd"/>
     <use xlink:href="#mb7adbbcb06" x="212.116166" y="294.031465" style="fill: #006bbd; stroke: #006bbd"/>
     <use xlink:href="#mb7adbbcb06" x="216.318326" y="277.945473" style="fill: #006bbd; stroke: #006bbd"/>
     <use xlink:href="#mb7adbbcb06" x="220.520487" y="289.129264" style="fill: #006bbd; stroke: #006bbd"/>
     <use xlink:href="#mb7adbbcb06" x="224.722647" y="290.690189" style="fill: #006bbd; stroke: #006bbd"/>
     <use xlink:href="#mb7adbbcb06" x="228.924808" y="284.87294" style="fill: #006bbd; stroke: #006bbd"/>
     <use xlink:href="#mb7adbbcb06" x="233.126968" y="299.003882" style="fill: #006bbd; stroke: #006bbd"/>
     <use xlink:href="#mb7adbbcb06" x="237.329129" y="283.149542" style="fill: #006bbd; stroke: #006bbd"/>
     <use xlink:href="#mb7adbbcb06" x="241.531289" y="296.401526" style="fill: #006bbd; stroke: #006bbd"/>
     <use xlink:href="#mb7adbbcb06" x="245.73345" y="295.702984" style="fill: #006bbd; stroke: #006bbd"/>
     <use xlink:href="#mb7adbbcb06" x="249.93561" y="295.159207" style="fill: #006bbd; stroke: #006bbd"/>
     <use xlink:href="#mb7adbbcb06" x="254.137771" y="293.606459" style="fill: #006bbd; stroke: #006bbd"/>
     <use xlink:href="#mb7adbbcb06" x="258.339931" y="295.589832" style="fill: #006bbd; stroke: #006bbd"/>
     <use xlink:href="#mb7adbbcb06" x="262.542092" y="292.095371" style="fill: #006bbd; stroke: #006bbd"/>
     <use xlink:href="#mb7adbbcb06" x="266.744253" y="294.291133" style="fill: #006bbd; stroke: #006bbd"/>
     <use xlink:href="#mb7adbbcb06" x="270.946413" y="288.457449" style="fill: #006bbd; stroke: #006bbd"/>
     <use xlink:href="#mb7adbbcb06" x="275.148574" y="302.386758" style="fill: #006bbd; stroke: #006bbd"/>
     <use xlink:href="#mb7adbbcb06" x="279.350734" y="291.84446" style="fill: #006bbd; stroke: #006bbd"/>
     <use xlink:href="#mb7adbbcb06" x="283.552895" y="295.121332" style="fill: #006bbd; stroke: #006bbd"/>
     <use xlink:href="#mb7adbbcb06" x="287.755055" y="282.62519" style="fill: #006bbd; stroke: #006bbd"/>
     <use xlink:href="#mb7adbbcb06" x="291.957216" y="284.885242" style="fill: #006bbd; stroke: #006bbd"/>
     <use xlink:href="#mb7adbbcb06" x="296.159376" y="289.588974" style="fill: #006bbd; stroke: #006bbd"/>
     <use xlink:href="#mb7adbbcb06" x="300.361537" y="271.33974" style="fill: #006bbd; stroke: #006bbd"/>
     <use xlink:href="#mb7adbbcb06" x="304.563697" y="280.414148" style="fill: #006bbd; stroke: #006bbd"/>
     <use xlink:href="#mb7adbbcb06" x="308.765858" y="288.69252" style="fill: #006bbd; stroke: #006bbd"/>
     <use xlink:href="#mb7adbbcb06" x="312.968018" y="296.105945" style="fill: #006bbd; stroke: #006bbd"/>
     <use xlink:href="#mb7adbbcb06" x="317.170179" y="292.362111" style="fill: #006bbd; stroke: #006bbd"/>
     <use xlink:href="#mb7adbbcb06" x="321.372339" y="289.995916" style="fill: #006bbd; stroke: #006bbd"/>
     <use xlink:href="#mb7adbbcb06" x="325.5745" y="277.326438" style="fill: #006bbd; stroke: #006bbd"/>
     <use xlink:href="#mb7adbbcb06" x="329.77666" y="280.616634" style="fill: #006bbd; stroke: #006bbd"/>
     <use xlink:href="#mb7adbbcb06" x="333.978821" y="253.660088" style="fill: #006bbd; stroke: #006bbd"/>
     <use xlink:href="#mb7adbbcb06" x="338.180981" y="262.445865" style="fill: #006bbd; stroke: #006bbd"/>
     <use xlink:href="#mb7adbbcb06" x="342.383142" y="283.353324" style="fill: #006bbd; stroke: #006bbd"/>
     <use xlink:href="#mb7adbbcb06" x="346.585302" y="281.662625" style="fill: #006bbd; stroke: #006bbd"/>
     <use xlink:href="#mb7adbbcb06" x="350.787463" y="275.666926" style="fill: #006bbd; stroke: #006bbd"/>
     <use xlink:href="#mb7adbbcb06" x="354.989623" y="274.047397" style="fill: #006bbd; stroke: #006bbd"/>
     <use xlink:href="#mb7adbbcb06" x="359.191784" y="267.915327" style="fill: #006bbd; stroke: #006bbd"/>
     <use xlink:href="#mb7adbbcb06" x="363.393944" y="260.180644" style="fill: #006bbd; stroke: #006bbd"/>
     <use xlink:href="#mb7adbbcb06" x="367.596105" y="288.233754" style="fill: #006bbd; stroke: #006bbd"/>
     <use xlink:href="#mb7adbbcb06" x="371.798266" y="277.147849" style="fill: #006bbd; stroke: #006bbd"/>
     <use xlink:href="#mb7adbbcb06" x="376.000426" y="264.202207" style="fill: #006bbd; stroke: #006bbd"/>
     <use xlink:href="#mb7adbbcb06" x="380.202587" y="249.193316" style="fill: #006bbd; stroke: #006bbd"/>
     <use xlink:href="#mb7adbbcb06" x="384.404747" y="270.638277" style="fill: #006bbd; stroke: #006bbd"/>
     <use xlink:href="#mb7adbbcb06" x="388.606908" y="251.60479" style="fill: #006bbd; stroke: #006bbd"/>
     <use xlink:href="#mb7adbbcb06" x="392.809068" y="269.270244" style="fill: #006bbd; stroke: #006bbd"/>
     <use xlink:href="#mb7adbbcb06" x="397.011229" y="263.953651" style="fill: #006bbd; stroke: #006bbd"/>
     <use xlink:href="#mb7adbbcb06" x="401.213389" y="259.22316" style="fill: #006bbd; stroke: #006bbd"/>
     <use xlink:href="#mb7adbbcb06" x="405.41555" y="270.600961" style="fill: #006bbd; stroke: #006bbd"/>
     <use xlink:href="#mb7adbbcb06" x="409.61771" y="279.803724" style="fill: #006bbd; stroke: #006bbd"/>
     <use xlink:href="#mb7adbbcb06" x="413.819871" y="269.084806" style="fill: #006bbd; stroke: #006bbd"/>
     <use xlink:href="#mb7adbbcb06" x="418.022031" y="290.871606" style="fill: #006bbd; stroke: #006bbd"/>
     <use xlink:href="#mb7adbbcb06" x="422.224192" y="256.301902" style="fill: #006bbd; stroke: #006bbd"/>
     <use xlink:href="#mb7adbbcb06" x="426.426352" y="287.171397" style="fill: #006bbd; stroke: #006bbd"/>
     <use xlink:href="#mb7adbbcb06" x="430.628513" y="289.259084" style="fill: #006bbd; stroke: #006bbd"/>
     <use xlink:href="#mb7adbbcb06" x="434.830673" y="299.257806" style="fill: #006bbd; stroke: #006bbd"/>
     <use xlink:href="#mb7adbbcb06" x="439.032834" y="292.77083" style="fill: #006bbd; stroke: #006bbd"/>
     <use xlink:href="#mb7adbbcb06" x="443.234994" y="298.822668" style="fill: #006bbd; stroke: #006bbd"/>
     <use xlink:href="#mb7adbbcb06" x="447.437155" y="270.633819" style="fill: #006bbd; stroke: #006bbd"/>
     <use xlink:href="#mb7adbbcb06" x="451.639315" y="237.309718" style="fill: #006bbd; stroke: #006bbd"/>
     <use xlink:href="#mb7adbbcb06" x="455.841476" y="221.606242" style="fill: #006bbd; stroke: #006bbd"/>
     <use xlink:href="#mb7adbbcb06" x="460.043636" y="215.040204" style="fill: #006bbd; stroke: #006bbd"/>
     <use xlink:href="#mb7adbbcb06" x="464.245797" y="207.331673" style="fill: #006bbd; stroke: #006bbd"/>
     <use xlink:href="#mb7adbbcb06" x="468.447958" y="213.846872" style="fill: #006bbd; stroke: #006bbd"/>
    </g>
   </g>
   <g id="line2d_28">
    <path d="M 48.231905 240.968128 
L 52.434066 164.77666 
L 56.636226 163.387949 
L 60.838387 228.298884 
L 65.040548 301.546496 
L 69.242708 261.228057 
L 73.444869 269.479873 
L 77.647029 278.847669 
L 81.84919 286.527844 
L 86.05135 286.545908 
L 90.253511 299.722951 
L 94.455671 297.020675 
L 98.657832 293.129564 
L 102.859992 293.163875 
L 107.062153 289.65681 
L 111.264313 283.675415 
L 115.466474 280.228696 
L 119.668634 278.88268 
L 123.870795 280.519279 
L 128.072955 295.128969 
L 132.275116 298.384839 
L 136.477276 281.940968 
L 140.679437 294.486426 
L 144.881597 300.704452 
L 149.083758 292.279947 
L 153.285918 298.459362 
L 157.488079 275.327408 
L 161.69024 287.606277 
L 165.8924 297.099066 
L 170.094561 278.813877 
L 174.296721 283.667745 
L 178.498882 275.984284 
L 182.701042 293.110565 
L 186.903203 283.688325 
L 191.105363 301.382843 
L 195.307524 294.489688 
L 199.509684 286.527309 
L 203.711845 299.23306 
L 207.914005 296.639391 
L 212.116166 296.454202 
L 216.318326 279.923288 
L 220.520487 301.953024 
L 224.722647 297.718966 
L 228.924808 296.201185 
L 233.126968 298.510798 
L 237.329129 289.360122 
L 241.531289 297.580768 
L 245.73345 295.996455 
L 249.93561 298.661189 
L 254.137771 302.365736 
L 258.339931 294.910897 
L 262.542092 297.528704 
L 266.744253 280.126564 
L 270.946413 294.880084 
L 275.148574 278.553792 
L 279.350734 294.776513 
L 283.552895 279.70048 
L 287.755055 273.993162 
L 291.957216 252.9839 
L 296.159376 297.916159 
L 300.361537 278.636752 
L 304.563697 260.06181 
L 308.765858 270.353207 
L 312.968018 261.040338 
L 317.170179 276.351069 
L 321.372339 261.687939 
L 325.5745 248.047294 
L 329.77666 268.261991 
L 333.978821 292.499534 
L 338.180981 282.747908 
L 342.383142 274.272797 
L 346.585302 262.234936 
L 350.787463 264.377568 
L 354.989623 257.47785 
L 359.191784 255.019875 
L 363.393944 254.227325 
L 367.596105 255.267814 
L 371.798266 272.376645 
L 376.000426 278.307022 
L 380.202587 293.58513 
L 384.404747 274.450487 
L 388.606908 290.855249 
L 392.809068 253.748774 
L 397.011229 286.716502 
L 401.213389 265.222855 
L 405.41555 286.231334 
L 409.61771 293.624609 
L 413.819871 295.210508 
L 418.022031 292.522692 
L 422.224192 288.269115 
L 426.426352 293.038096 
L 430.628513 272.061416 
L 434.830673 290.59455 
L 439.032834 284.413779 
L 443.234994 269.311332 
L 447.437155 294.128328 
L 451.639315 263.227782 
L 455.841476 244.871113 
L 460.043636 268.493882 
L 464.245797 268.419455 
L 468.447958 301.981358 
" clip-path="url(#pa92ed09256)" style="fill: none; stroke: #ff0000; stroke-width: 2; stroke-linecap: square"/>
    <defs>
     <path id="m5a9938f79d" d="M 0 1.4 
C 0.371284 1.4 0.727412 1.252487 0.989949 0.989949 
C 1.252487 0.727412 1.4 0.371284 1.4 0 
C 1.4 -0.371284 1.252487 -0.727412 0.989949 -0.989949 
C 0.727412 -1.252487 0.371284 -1.4 0 -1.4 
C -0.371284 -1.4 -0.727412 -1.252487 -0.989949 -0.989949 
C -1.252487 -0.727412 -1.4 -0.371284 -1.4 0 
C -1.4 0.371284 -1.252487 0.727412 -0.989949 0.989949 
C -0.727412 1.252487 -0.371284 1.4 0 1.4 
z
" style="stroke: #ff0000"/>
    </defs>
    <g clip-path="url(#pa92ed09256)">
     <use xlink:href="#m5a9938f79d" x="48.231905" y="240.968128" style="fill: #ff0000; stroke: #ff0000"/>
     <use xlink:href="#m5a9938f79d" x="52.434066" y="164.77666" style="fill: #ff0000; stroke: #ff0000"/>
     <use xlink:href="#m5a9938f79d" x="56.636226" y="163.387949" style="fill: #ff0000; stroke: #ff0000"/>
     <use xlink:href="#m5a9938f79d" x="60.838387" y="228.298884" style="fill: #ff0000; stroke: #ff0000"/>
     <use xlink:href="#m5a9938f79d" x="65.040548" y="301.546496" style="fill: #ff0000; stroke: #ff0000"/>
     <use xlink:href="#m5a9938f79d" x="69.242708" y="261.228057" style="fill: #ff0000; stroke: #ff0000"/>
     <use xlink:href="#m5a9938f79d" x="73.444869" y="269.479873" style="fill: #ff0000; stroke: #ff0000"/>
     <use xlink:href="#m5a9938f79d" x="77.647029" y="278.847669" style="fill: #ff0000; stroke: #ff0000"/>
     <use xlink:href="#m5a9938f79d" x="81.84919" y="286.527844" style="fill: #ff0000; stroke: #ff0000"/>
     <use xlink:href="#m5a9938f79d" x="86.05135" y="286.545908" style="fill: #ff0000; stroke: #ff0000"/>
     <use xlink:href="#m5a9938f79d" x="90.253511" y="299.722951" style="fill: #ff0000; stroke: #ff0000"/>
     <use xlink:href="#m5a9938f79d" x="94.455671" y="297.020675" style="fill: #ff0000; stroke: #ff0000"/>
     <use xlink:href="#m5a9938f79d" x="98.657832" y="293.129564" style="fill: #ff0000; stroke: #ff0000"/>
     <use xlink:href="#m5a9938f79d" x="102.859992" y="293.163875" style="fill: #ff0000; stroke: #ff0000"/>
     <use xlink:href="#m5a9938f79d" x="107.062153" y="289.65681" style="fill: #ff0000; stroke: #ff0000"/>
     <use xlink:href="#m5a9938f79d" x="111.264313" y="283.675415" style="fill: #ff0000; stroke: #ff0000"/>
     <use xlink:href="#m5a9938f79d" x="115.466474" y="280.228696" style="fill: #ff0000; stroke: #ff0000"/>
     <use xlink:href="#m5a9938f79d" x="119.668634" y="278.88268" style="fill: #ff0000; stroke: #ff0000"/>
     <use xlink:href="#m5a9938f79d" x="123.870795" y="280.519279" style="fill: #ff0000; stroke: #ff0000"/>
     <use xlink:href="#m5a9938f79d" x="128.072955" y="295.128969" style="fill: #ff0000; stroke: #ff0000"/>
     <use xlink:href="#m5a9938f79d" x="132.275116" y="298.384839" style="fill: #ff0000; stroke: #ff0000"/>
     <use xlink:href="#m5a9938f79d" x="136.477276" y="281.940968" style="fill: #ff0000; stroke: #ff0000"/>
     <use xlink:href="#m5a9938f79d" x="140.679437" y="294.486426" style="fill: #ff0000; stroke: #ff0000"/>
     <use xlink:href="#m5a9938f79d" x="144.881597" y="300.704452" style="fill: #ff0000; stroke: #ff0000"/>
     <use xlink:href="#m5a9938f79d" x="149.083758" y="292.279947" style="fill: #ff0000; stroke: #ff0000"/>
     <use xlink:href="#m5a9938f79d" x="153.285918" y="298.459362" style="fill: #ff0000; stroke: #ff0000"/>
     <use xlink:href="#m5a9938f79d" x="157.488079" y="275.327408" style="fill: #ff0000; stroke: #ff0000"/>
     <use xlink:href="#m5a9938f79d" x="161.69024" y="287.606277" style="fill: #ff0000; stroke: #ff0000"/>
     <use xlink:href="#m5a9938f79d" x="165.8924" y="297.099066" style="fill: #ff0000; stroke: #ff0000"/>
     <use xlink:href="#m5a9938f79d" x="170.094561" y="278.813877" style="fill: #ff0000; stroke: #ff0000"/>
     <use xlink:href="#m5a9938f79d" x="174.296721" y="283.667745" style="fill: #ff0000; stroke: #ff0000"/>
     <use xlink:href="#m5a9938f79d" x="178.498882" y="275.984284" style="fill: #ff0000; stroke: #ff0000"/>
     <use xlink:href="#m5a9938f79d" x="182.701042" y="293.110565" style="fill: #ff0000; stroke: #ff0000"/>
     <use xlink:href="#m5a9938f79d" x="186.903203" y="283.688325" style="fill: #ff0000; stroke: #ff0000"/>
     <use xlink:href="#m5a9938f79d" x="191.105363" y="301.382843" style="fill: #ff0000; stroke: #ff0000"/>
     <use xlink:href="#m5a9938f79d" x="195.307524" y="294.489688" style="fill: #ff0000; stroke: #ff0000"/>
     <use xlink:href="#m5a9938f79d" x="199.509684" y="286.527309" style="fill: #ff0000; stroke: #ff0000"/>
     <use xlink:href="#m5a9938f79d" x="203.711845" y="299.23306" style="fill: #ff0000; stroke: #ff0000"/>
     <use xlink:href="#m5a9938f79d" x="207.914005" y="296.639391" style="fill: #ff0000; stroke: #ff0000"/>
     <use xlink:href="#m5a9938f79d" x="212.116166" y="296.454202" style="fill: #ff0000; stroke: #ff0000"/>
     <use xlink:href="#m5a9938f79d" x="216.318326" y="279.923288" style="fill: #ff0000; stroke: #ff0000"/>
     <use xlink:href="#m5a9938f79d" x="220.520487" y="301.953024" style="fill: #ff0000; stroke: #ff0000"/>
     <use xlink:href="#m5a9938f79d" x="224.722647" y="297.718966" style="fill: #ff0000; stroke: #ff0000"/>
     <use xlink:href="#m5a9938f79d" x="228.924808" y="296.201185" style="fill: #ff0000; stroke: #ff0000"/>
     <use xlink:href="#m5a9938f79d" x="233.126968" y="298.510798" style="fill: #ff0000; stroke: #ff0000"/>
     <use xlink:href="#m5a9938f79d" x="237.329129" y="289.360122" style="fill: #ff0000; stroke: #ff0000"/>
     <use xlink:href="#m5a9938f79d" x="241.531289" y="297.580768" style="fill: #ff0000; stroke: #ff0000"/>
     <use xlink:href="#m5a9938f79d" x="245.73345" y="295.996455" style="fill: #ff0000; stroke: #ff0000"/>
     <use xlink:href="#m5a9938f79d" x="249.93561" y="298.661189" style="fill: #ff0000; stroke: #ff0000"/>
     <use xlink:href="#m5a9938f79d" x="254.137771" y="302.365736" style="fill: #ff0000; stroke: #ff0000"/>
     <use xlink:href="#m5a9938f79d" x="258.339931" y="294.910897" style="fill: #ff0000; stroke: #ff0000"/>
     <use xlink:href="#m5a9938f79d" x="262.542092" y="297.528704" style="fill: #ff0000; stroke: #ff0000"/>
     <use xlink:href="#m5a9938f79d" x="266.744253" y="280.126564" style="fill: #ff0000; stroke: #ff0000"/>
     <use xlink:href="#m5a9938f79d" x="270.946413" y="294.880084" style="fill: #ff0000; stroke: #ff0000"/>
     <use xlink:href="#m5a9938f79d" x="275.148574" y="278.553792" style="fill: #ff0000; stroke: #ff0000"/>
     <use xlink:href="#m5a9938f79d" x="279.350734" y="294.776513" style="fill: #ff0000; stroke: #ff0000"/>
     <use xlink:href="#m5a9938f79d" x="283.552895" y="279.70048" style="fill: #ff0000; stroke: #ff0000"/>
     <use xlink:href="#m5a9938f79d" x="287.755055" y="273.993162" style="fill: #ff0000; stroke: #ff0000"/>
     <use xlink:href="#m5a9938f79d" x="291.957216" y="252.9839" style="fill: #ff0000; stroke: #ff0000"/>
     <use xlink:href="#m5a9938f79d" x="296.159376" y="297.916159" style="fill: #ff0000; stroke: #ff0000"/>
     <use xlink:href="#m5a9938f79d" x="300.361537" y="278.636752" style="fill: #ff0000; stroke: #ff0000"/>
     <use xlink:href="#m5a9938f79d" x="304.563697" y="260.06181" style="fill: #ff0000; stroke: #ff0000"/>
     <use xlink:href="#m5a9938f79d" x="308.765858" y="270.353207" style="fill: #ff0000; stroke: #ff0000"/>
     <use xlink:href="#m5a9938f79d" x="312.968018" y="261.040338" style="fill: #ff0000; stroke: #ff0000"/>
     <use xlink:href="#m5a9938f79d" x="317.170179" y="276.351069" style="fill: #ff0000; stroke: #ff0000"/>
     <use xlink:href="#m5a9938f79d" x="321.372339" y="261.687939" style="fill: #ff0000; stroke: #ff0000"/>
     <use xlink:href="#m5a9938f79d" x="325.5745" y="248.047294" style="fill: #ff0000; stroke: #ff0000"/>
     <use xlink:href="#m5a9938f79d" x="329.77666" y="268.261991" style="fill: #ff0000; stroke: #ff0000"/>
     <use xlink:href="#m5a9938f79d" x="333.978821" y="292.499534" style="fill: #ff0000; stroke: #ff0000"/>
     <use xlink:href="#m5a9938f79d" x="338.180981" y="282.747908" style="fill: #ff0000; stroke: #ff0000"/>
     <use xlink:href="#m5a9938f79d" x="342.383142" y="274.272797" style="fill: #ff0000; stroke: #ff0000"/>
     <use xlink:href="#m5a9938f79d" x="346.585302" y="262.234936" style="fill: #ff0000; stroke: #ff0000"/>
     <use xlink:href="#m5a9938f79d" x="350.787463" y="264.377568" style="fill: #ff0000; stroke: #ff0000"/>
     <use xlink:href="#m5a9938f79d" x="354.989623" y="257.47785" style="fill: #ff0000; stroke: #ff0000"/>
     <use xlink:href="#m5a9938f79d" x="359.191784" y="255.019875" style="fill: #ff0000; stroke: #ff0000"/>
     <use xlink:href="#m5a9938f79d" x="363.393944" y="254.227325" style="fill: #ff0000; stroke: #ff0000"/>
     <use xlink:href="#m5a9938f79d" x="367.596105" y="255.267814" style="fill: #ff0000; stroke: #ff0000"/>
     <use xlink:href="#m5a9938f79d" x="371.798266" y="272.376645" style="fill: #ff0000; stroke: #ff0000"/>
     <use xlink:href="#m5a9938f79d" x="376.000426" y="278.307022" style="fill: #ff0000; stroke: #ff0000"/>
     <use xlink:href="#m5a9938f79d" x="380.202587" y="293.58513" style="fill: #ff0000; stroke: #ff0000"/>
     <use xlink:href="#m5a9938f79d" x="384.404747" y="274.450487" style="fill: #ff0000; stroke: #ff0000"/>
     <use xlink:href="#m5a9938f79d" x="388.606908" y="290.855249" style="fill: #ff0000; stroke: #ff0000"/>
     <use xlink:href="#m5a9938f79d" x="392.809068" y="253.748774" style="fill: #ff0000; stroke: #ff0000"/>
     <use xlink:href="#m5a9938f79d" x="397.011229" y="286.716502" style="fill: #ff0000; stroke: #ff0000"/>
     <use xlink:href="#m5a9938f79d" x="401.213389" y="265.222855" style="fill: #ff0000; stroke: #ff0000"/>
     <use xlink:href="#m5a9938f79d" x="405.41555" y="286.231334" style="fill: #ff0000; stroke: #ff0000"/>
     <use xlink:href="#m5a9938f79d" x="409.61771" y="293.624609" style="fill: #ff0000; stroke: #ff0000"/>
     <use xlink:href="#m5a9938f79d" x="413.819871" y="295.210508" style="fill: #ff0000; stroke: #ff0000"/>
     <use xlink:href="#m5a9938f79d" x="418.022031" y="292.522692" style="fill: #ff0000; stroke: #ff0000"/>
     <use xlink:href="#m5a9938f79d" x="422.224192" y="288.269115" style="fill: #ff0000; stroke: #ff0000"/>
     <use xlink:href="#m5a9938f79d" x="426.426352" y="293.038096" style="fill: #ff0000; stroke: #ff0000"/>
     <use xlink:href="#m5a9938f79d" x="430.628513" y="272.061416" style="fill: #ff0000; stroke: #ff0000"/>
     <use xlink:href="#m5a9938f79d" x="434.830673" y="290.59455" style="fill: #ff0000; stroke: #ff0000"/>
     <use xlink:href="#m5a9938f79d" x="439.032834" y="284.413779" style="fill: #ff0000; stroke: #ff0000"/>
     <use xlink:href="#m5a9938f79d" x="443.234994" y="269.311332" style="fill: #ff0000; stroke: #ff0000"/>
     <use xlink:href="#m5a9938f79d" x="447.437155" y="294.128328" style="fill: #ff0000; stroke: #ff0000"/>
     <use xlink:href="#m5a9938f79d" x="451.639315" y="263.227782" style="fill: #ff0000; stroke: #ff0000"/>
     <use xlink:href="#m5a9938f79d" x="455.841476" y="244.871113" style="fill: #ff0000; stroke: #ff0000"/>
     <use xlink:href="#m5a9938f79d" x="460.043636" y="268.493882" style="fill: #ff0000; stroke: #ff0000"/>
     <use xlink:href="#m5a9938f79d" x="464.245797" y="268.419455" style="fill: #ff0000; stroke: #ff0000"/>
     <use xlink:href="#m5a9938f79d" x="468.447958" y="301.981358" style="fill: #ff0000; stroke: #ff0000"/>
    </g>
   </g>
   <g id="patch_3">
    <path d="M 43.78125 316.44327 
L 43.78125 7.2 
" style="fill: none; stroke: #000000; stroke-width: 0.8; stroke-linejoin: miter; stroke-linecap: square"/>
   </g>
   <g id="patch_4">
    <path d="M 468.447958 316.44327 
L 468.447958 7.2 
" style="fill: none; stroke: #000000; stroke-width: 0.8; stroke-linejoin: miter; stroke-linecap: square"/>
   </g>
   <g id="patch_5">
    <path d="M 43.78125 316.44327 
L 468.447958 316.44327 
" style="fill: none; stroke: #000000; stroke-width: 0.8; stroke-linejoin: miter; stroke-linecap: square"/>
   </g>
   <g id="patch_6">
    <path d="M 43.78125 7.2 
L 468.447958 7.2 
" style="fill: none; stroke: #000000; stroke-width: 0.8; stroke-linejoin: miter; stroke-linecap: square"/>
   </g>
   <g id="legend_1">
    <g id="patch_7">
     <path d="M 384.791708 37.085 
L 462.847957 37.085 
Q 464.447957 37.085 464.447957 35.485 
L 464.447957 12.8 
Q 464.447957 11.2 462.847957 11.2 
L 384.791708 11.2 
Q 383.191708 11.2 383.191708 12.8 
L 383.191708 35.485 
Q 383.191708 37.085 384.791708 37.085 
z
" style="fill: #ffffff; opacity: 0.8; stroke: #cccccc; stroke-linejoin: miter"/>
    </g>
    <g id="line2d_29">
     <path d="M 386.391707 17.67875 
L 394.391707 17.67875 
L 402.391707 17.67875 
" style="fill: none; stroke: #006bbd; stroke-width: 2; stroke-linecap: square"/>
     <g>
      <use xlink:href="#mb7adbbcb06" x="394.391707" y="17.67875" style="fill: #006bbd; stroke: #006bbd"/>
     </g>
    </g>
    <g id="text_16">
     <!-- T = 298,15 K -->
     <g transform="translate(408.791707 20.47875) scale(0.08 -0.08)">
      <defs>
       <path id="DejaVuSans-54" d="M -19 4666 
L 3928 4666 
L 3928 4134 
L 2272 4134 
L 2272 0 
L 1638 0 
L 1638 4134 
L -19 4134 
L -19 4666 
z
" transform="scale(0.015625)"/>
       <path id="DejaVuSans-3d" d="M 678 2906 
L 4684 2906 
L 4684 2381 
L 678 2381 
L 678 2906 
z
M 678 1631 
L 4684 1631 
L 4684 1100 
L 678 1100 
L 678 1631 
z
" transform="scale(0.015625)"/>
       <path id="DejaVuSans-39" d="M 703 97 
L 703 672 
Q 941 559 1184 500 
Q 1428 441 1663 441 
Q 2288 441 2617 861 
Q 2947 1281 2994 2138 
Q 2813 1869 2534 1725 
Q 2256 1581 1919 1581 
Q 1219 1581 811 2004 
Q 403 2428 403 3163 
Q 403 3881 828 4315 
Q 1253 4750 1959 4750 
Q 2769 4750 3195 4129 
Q 3622 3509 3622 2328 
Q 3622 1225 3098 567 
Q 2575 -91 1691 -91 
Q 1453 -91 1209 -44 
Q 966 3 703 97 
z
M 1959 2075 
Q 2384 2075 2632 2365 
Q 2881 2656 2881 3163 
Q 2881 3666 2632 3958 
Q 2384 4250 1959 4250 
Q 1534 4250 1286 3958 
Q 1038 3666 1038 3163 
Q 1038 2656 1286 2365 
Q 1534 2075 1959 2075 
z
" transform="scale(0.015625)"/>
       <path id="DejaVuSans-2c" d="M 750 794 
L 1409 794 
L 1409 256 
L 897 -744 
L 494 -744 
L 750 256 
L 750 794 
z
" transform="scale(0.015625)"/>
       <path id="DejaVuSans-35" d="M 691 4666 
L 3169 4666 
L 3169 4134 
L 1269 4134 
L 1269 2991 
Q 1406 3038 1543 3061 
Q 1681 3084 1819 3084 
Q 2600 3084 3056 2656 
Q 3513 2228 3513 1497 
Q 3513 744 3044 326 
Q 2575 -91 1722 -91 
Q 1428 -91 1123 -41 
Q 819 9 494 109 
L 494 744 
Q 775 591 1075 516 
Q 1375 441 1709 441 
Q 2250 441 2565 725 
Q 2881 1009 2881 1497 
Q 2881 1984 2565 2268 
Q 2250 2553 1709 2553 
Q 1456 2553 1204 2497 
Q 953 2441 691 2322 
L 691 4666 
z
" transform="scale(0.015625)"/>
       <path id="DejaVuSans-4b" d="M 628 4666 
L 1259 4666 
L 1259 2694 
L 3353 4666 
L 4166 4666 
L 1850 2491 
L 4331 0 
L 3500 0 
L 1259 2247 
L 1259 0 
L 628 0 
L 628 4666 
z
" transform="scale(0.015625)"/>
      </defs>
      <use xlink:href="#DejaVuSans-54"/>
      <use xlink:href="#DejaVuSans-20" transform="translate(61.083984 0)"/>
      <use xlink:href="#DejaVuSans-3d" transform="translate(92.871094 0)"/>
      <use xlink:href="#DejaVuSans-20" transform="translate(176.660156 0)"/>
      <use xlink:href="#DejaVuSans-32" transform="translate(208.447266 0)"/>
      <use xlink:href="#DejaVuSans-39" transform="translate(272.070312 0)"/>
      <use xlink:href="#DejaVuSans-38" transform="translate(335.693359 0)"/>
      <use xlink:href="#DejaVuSans-2c" transform="translate(399.316406 0)"/>
      <use xlink:href="#DejaVuSans-31" transform="translate(431.103516 0)"/>
      <use xlink:href="#DejaVuSans-35" transform="translate(494.726562 0)"/>
      <use xlink:href="#DejaVuSans-20" transform="translate(558.349609 0)"/>
      <use xlink:href="#DejaVuSans-4b" transform="translate(590.136719 0)"/>
     </g>
    </g>
    <g id="line2d_30">
     <path d="M 386.391707 29.42125 
L 394.391707 29.42125 
L 402.391707 29.42125 
" style="fill: none; stroke: #ff0000; stroke-width: 2; stroke-linecap: square"/>
     <g>
      <use xlink:href="#m5a9938f79d" x="394.391707" y="29.42125" style="fill: #ff0000; stroke: #ff0000"/>
     </g>
    </g>
    <g id="text_17">
     <!-- T = 373,15 K -->
     <g transform="translate(408.791707 32.22125) scale(0.08 -0.08)">
      <defs>
       <path id="DejaVuSans-33" d="M 2597 2516 
Q 3050 2419 3304 2112 
Q 3559 1806 3559 1356 
Q 3559 666 3084 287 
Q 2609 -91 1734 -91 
Q 1441 -91 1130 -33 
Q 819 25 488 141 
L 488 750 
Q 750 597 1062 519 
Q 1375 441 1716 441 
Q 2309 441 2620 675 
Q 2931 909 2931 1356 
Q 2931 1769 2642 2001 
Q 2353 2234 1838 2234 
L 1294 2234 
L 1294 2753 
L 1863 2753 
Q 2328 2753 2575 2939 
Q 2822 3125 2822 3475 
Q 2822 3834 2567 4026 
Q 2313 4219 1838 4219 
Q 1578 4219 1281 4162 
Q 984 4106 628 3988 
L 628 4550 
Q 988 4650 1302 4700 
Q 1616 4750 1894 4750 
Q 2613 4750 3031 4423 
Q 3450 4097 3450 3541 
Q 3450 3153 3228 2886 
Q 3006 2619 2597 2516 
z
" transform="scale(0.015625)"/>
       <path id="DejaVuSans-37" d="M 525 4666 
L 3525 4666 
L 3525 4397 
L 1831 0 
L 1172 0 
L 2766 4134 
L 525 4134 
L 525 4666 
z
" transform="scale(0.015625)"/>
      </defs>
      <use xlink:href="#DejaVuSans-54"/>
      <use xlink:href="#DejaVuSans-20" transform="translate(61.083984 0)"/>
      <use xlink:href="#DejaVuSans-3d" transform="translate(92.871094 0)"/>
      <use xlink:href="#DejaVuSans-20" transform="translate(176.660156 0)"/>
      <use xlink:href="#DejaVuSans-33" transform="translate(208.447266 0)"/>
      <use xlink:href="#DejaVuSans-37" transform="translate(272.070312 0)"/>
      <use xlink:href="#DejaVuSans-33" transform="translate(335.693359 0)"/>
      <use xlink:href="#DejaVuSans-2c" transform="translate(399.316406 0)"/>
      <use xlink:href="#DejaVuSans-31" transform="translate(431.103516 0)"/>
      <use xlink:href="#DejaVuSans-35" transform="translate(494.726562 0)"/>
      <use xlink:href="#DejaVuSans-20" transform="translate(558.349609 0)"/>
      <use xlink:href="#DejaVuSans-4b" transform="translate(590.136719 0)"/>
     </g>
    </g>
   </g>
   <g id="PathCollection_1">
    <defs>
     <path id="m1eae26f932" d="M 0 3.464102 
C 0.91869 3.464102 1.799877 3.099102 2.44949 2.44949 
C 3.099102 1.799877 3.464102 0.91869 3.464102 0 
C 3.464102 -0.91869 3.099102 -1.799877 2.44949 -2.44949 
C 1.799877 -3.099102 0.91869 -3.464102 0 -3.464102 
C -0.91869 -3.464102 -1.799877 -3.099102 -2.44949 -2.44949 
C -3.099102 -1.799877 -3.464102 -0.91869 -3.464102 0 
C -3.464102 0.91869 -3.099102 1.799877 -2.44949 2.44949 
C -1.799877 3.099102 -0.91869 3.464102 0 3.464102 
z
" style="stroke: #8b1a1a; stroke-width: 1.5"/>
    </defs>
    <g clip-path="url(#pa92ed09256)">
     <use xlink:href="#m1eae26f932" x="52.434066" y="21.256512" style="fill: #ffffff; stroke: #8b1a1a; stroke-width: 1.5"/>
    </g>
   </g>
   <g id="PathCollection_2">
    <defs>
     <path id="m172c39add4" d="M 0 3.464102 
C 0.91869 3.464102 1.799877 3.099102 2.44949 2.44949 
C 3.099102 1.799877 3.464102 0.91869 3.464102 0 
C 3.464102 -0.91869 3.099102 -1.799877 2.44949 -2.44949 
C 1.799877 -3.099102 0.91869 -3.464102 0 -3.464102 
C -0.91869 -3.464102 -1.799877 -3.099102 -2.44949 -2.44949 
C -3.099102 -1.799877 -3.464102 -0.91869 -3.464102 0 
C -3.464102 0.91869 -3.099102 1.799877 -2.44949 2.44949 
C -1.799877 3.099102 -0.91869 3.464102 0 3.464102 
z
" style="stroke: #176b3a; stroke-width: 1.5"/>
    </defs>
    <g clip-path="url(#pa92ed09256)">
     <use xlink:href="#m172c39add4" x="275.148574" y="302.386758" style="fill: #ffffff; stroke: #176b3a; stroke-width: 1.5"/>
    </g>
   </g>
   <g id="patch_8">
    <path d="M 125.683933 48.37322 
Q 90.465072 35.335386 56.504404 22.76333 
" style="fill: none; stroke: #8b1a1a; stroke-width: 1.2; stroke-linecap: round"/>
    <path d="M 58.797057 25.211541 
L 56.504404 22.76333 
L 59.838565 22.398134 
" style="fill: none; stroke: #8b1a1a; stroke-width: 1.2; stroke-linecap: round"/>
   </g>
   <g id="text_18">
    <g id="patch_9">
     <path d="M 130.434066 75.711825 
L 190.686019 75.711825 
Q 193.086019 75.711825 193.086019 73.311825 
L 193.086019 49.256512 
Q 193.086019 46.856512 190.686019 46.856512 
L 130.434066 46.856512 
Q 128.034066 46.856512 128.034066 49.256512 
L 128.034066 73.311825 
Q 128.034066 75.711825 130.434066 75.711825 
z
" style="fill: #ffffff; opacity: 0.95; stroke: #8b1a1a; stroke-linejoin: miter"/>
    </g>
    <!-- Máx.: 1,208% -->
    <g style="fill: #222222" transform="translate(130.434066 54.95534) scale(0.075 -0.075)">
     <defs>
      <path id="DejaVuSans-4d" d="M 628 4666 
L 1569 4666 
L 2759 1491 
L 3956 4666 
L 4897 4666 
L 4897 0 
L 4281 0 
L 4281 4097 
L 3078 897 
L 2444 897 
L 1241 4097 
L 1241 0 
L 628 0 
L 628 4666 
z
" transform="scale(0.015625)"/>
      <path id="DejaVuSans-e1" d="M 2194 1759 
Q 1497 1759 1228 1600 
Q 959 1441 959 1056 
Q 959 750 1161 570 
Q 1363 391 1709 391 
Q 2188 391 2477 730 
Q 2766 1069 2766 1631 
L 2766 1759 
L 2194 1759 
z
M 3341 1997 
L 3341 0 
L 2766 0 
L 2766 531 
Q 2569 213 2275 61 
Q 1981 -91 1556 -91 
Q 1019 -91 701 211 
Q 384 513 384 1019 
Q 384 1609 779 1909 
Q 1175 2209 1959 2209 
L 2766 2209 
L 2766 2266 
Q 2766 2663 2505 2880 
Q 2244 3097 1772 3097 
Q 1472 3097 1187 3025 
Q 903 2953 641 2809 
L 641 3341 
Q 956 3463 1253 3523 
Q 1550 3584 1831 3584 
Q 2591 3584 2966 3190 
Q 3341 2797 3341 1997 
z
M 2290 5119 
L 2912 5119 
L 1894 3944 
L 1415 3944 
L 2290 5119 
z
" transform="scale(0.015625)"/>
      <path id="DejaVuSans-78" d="M 3513 3500 
L 2247 1797 
L 3578 0 
L 2900 0 
L 1881 1375 
L 863 0 
L 184 0 
L 1544 1831 
L 300 3500 
L 978 3500 
L 1906 2253 
L 2834 3500 
L 3513 3500 
z
" transform="scale(0.015625)"/>
      <path id="DejaVuSans-3a" d="M 750 794 
L 1409 794 
L 1409 0 
L 750 0 
L 750 794 
z
M 750 3309 
L 1409 3309 
L 1409 2516 
L 750 2516 
L 750 3309 
z
" transform="scale(0.015625)"/>
     </defs>
     <use xlink:href="#DejaVuSans-4d"/>
     <use xlink:href="#DejaVuSans-e1" transform="translate(86.279297 0)"/>
     <use xlink:href="#DejaVuSans-78" transform="translate(147.558594 0)"/>
     <use xlink:href="#DejaVuSans-2e" transform="translate(206.738281 0)"/>
     <use xlink:href="#DejaVuSans-3a" transform="translate(238.525391 0)"/>
     <use xlink:href="#DejaVuSans-20" transform="translate(272.216797 0)"/>
     <use xlink:href="#DejaVuSans-31" transform="translate(304.003906 0)"/>
     <use xlink:href="#DejaVuSans-2c" transform="translate(367.626953 0)"/>
     <use xlink:href="#DejaVuSans-32" transform="translate(399.414062 0)"/>
     <use xlink:href="#DejaVuSans-30" transform="translate(463.037109 0)"/>
     <use xlink:href="#DejaVuSans-38" transform="translate(526.660156 0)"/>
     <use xlink:href="#DejaVuSans-25" transform="translate(590.283203 0)"/>
    </g>
    <!-- em 0,020 A/cm² -->
    <g style="fill: #222222" transform="translate(130.434066 63.3537) scale(0.075 -0.075)">
     <use xlink:href="#DejaVuSans-65"/>
     <use xlink:href="#DejaVuSans-6d" transform="translate(61.523438 0)"/>
     <use xlink:href="#DejaVuSans-20" transform="translate(158.935547 0)"/>
     <use xlink:href="#DejaVuSans-30" transform="translate(190.722656 0)"/>
     <use xlink:href="#DejaVuSans-2c" transform="translate(254.345703 0)"/>
     <use xlink:href="#DejaVuSans-30" transform="translate(286.132812 0)"/>
     <use xlink:href="#DejaVuSans-32" transform="translate(349.755859 0)"/>
     <use xlink:href="#DejaVuSans-30" transform="translate(413.378906 0)"/>
     <use xlink:href="#DejaVuSans-20" transform="translate(477.001953 0)"/>
     <use xlink:href="#DejaVuSans-41" transform="translate(508.789062 0)"/>
     <use xlink:href="#DejaVuSans-2f" transform="translate(577.197266 0)"/>
     <use xlink:href="#DejaVuSans-63" transform="translate(610.888672 0)"/>
     <use xlink:href="#DejaVuSans-6d" transform="translate(665.869141 0)"/>
     <use xlink:href="#DejaVuSans-b2" transform="translate(763.28125 0)"/>
    </g>
    <!-- T = 298,15 K -->
    <g style="fill: #222222" transform="translate(130.434066 71.752059) scale(0.075 -0.075)">
     <use xlink:href="#DejaVuSans-54"/>
     <use xlink:href="#DejaVuSans-20" transform="translate(61.083984 0)"/>
     <use xlink:href="#DejaVuSans-3d" transform="translate(92.871094 0)"/>
     <use xlink:href="#DejaVuSans-20" transform="translate(176.660156 0)"/>
     <use xlink:href="#DejaVuSans-32" transform="translate(208.447266 0)"/>
     <use xlink:href="#DejaVuSans-39" transform="translate(272.070312 0)"/>
     <use xlink:href="#DejaVuSans-38" transform="translate(335.693359 0)"/>
     <use xlink:href="#DejaVuSans-2c" transform="translate(399.316406 0)"/>
     <use xlink:href="#DejaVuSans-31" transform="translate(431.103516 0)"/>
     <use xlink:href="#DejaVuSans-35" transform="translate(494.726562 0)"/>
     <use xlink:href="#DejaVuSans-20" transform="translate(558.349609 0)"/>
     <use xlink:href="#DejaVuSans-4b" transform="translate(590.136719 0)"/>
    </g>
   </g>
   <g id="patch_10">
    <path d="M 325.935514 254.655056 
Q 301.634719 277.493965 278.311558 299.414052 
" style="fill: none; stroke: #176b3a; stroke-width: 1.2; stroke-linecap: round"/>
    <path d="M 281.524887 298.452533 
L 278.311558 299.414052 
L 279.47034 296.266477 
" style="fill: none; stroke: #176b3a; stroke-width: 1.2; stroke-linecap: round"/>
   </g>
   <g id="text_19">
    <g id="patch_11">
     <path d="M 313.148574 252.786758 
L 373.400527 252.786758 
Q 375.800527 252.786758 375.800527 250.386758 
L 375.800527 226.331445 
Q 375.800527 223.931445 373.400527 223.931445 
L 313.148574 223.931445 
Q 310.748574 223.931445 310.748574 226.331445 
L 310.748574 250.386758 
Q 310.748574 252.786758 313.148574 252.786758 
z
" style="fill: #ffffff; opacity: 0.95; stroke: #176b3a; stroke-linejoin: miter"/>
    </g>
    <!-- Mín.: 0,0005% -->
    <g style="fill: #222222" transform="translate(313.148574 232.030273) scale(0.075 -0.075)">
     <defs>
      <path id="DejaVuSans-ed" d="M 1322 5119 
L 1944 5119 
L 926 3944 
L 447 3944 
L 1322 5119 
z
M 603 3500 
L 1178 3500 
L 1178 0 
L 603 0 
L 603 3500 
z
M 891 3584 
L 891 3584 
z
" transform="scale(0.015625)"/>
     </defs>
     <use xlink:href="#DejaVuSans-4d"/>
     <use xlink:href="#DejaVuSans-ed" transform="translate(86.279297 0)"/>
     <use xlink:href="#DejaVuSans-6e" transform="translate(114.0625 0)"/>
     <use xlink:href="#DejaVuSans-2e" transform="translate(177.441406 0)"/>
     <use xlink:href="#DejaVuSans-3a" transform="translate(209.228516 0)"/>
     <use xlink:href="#DejaVuSans-20" transform="translate(242.919922 0)"/>
     <use xlink:href="#DejaVuSans-30" transform="translate(274.707031 0)"/>
     <use xlink:href="#DejaVuSans-2c" transform="translate(338.330078 0)"/>
     <use xlink:href="#DejaVuSans-30" transform="translate(370.117188 0)"/>
     <use xlink:href="#DejaVuSans-30" transform="translate(433.740234 0)"/>
     <use xlink:href="#DejaVuSans-30" transform="translate(497.363281 0)"/>
     <use xlink:href="#DejaVuSans-35" transform="translate(560.986328 0)"/>
     <use xlink:href="#DejaVuSans-25" transform="translate(624.609375 0)"/>
    </g>
    <!-- em 0,545 A/cm² -->
    <g style="fill: #222222" transform="translate(313.148574 240.428633) scale(0.075 -0.075)">
     <use xlink:href="#DejaVuSans-65"/>
     <use xlink:href="#DejaVuSans-6d" transform="translate(61.523438 0)"/>
     <use xlink:href="#DejaVuSans-20" transform="translate(158.935547 0)"/>
     <use xlink:href="#DejaVuSans-30" transform="translate(190.722656 0)"/>
     <use xlink:href="#DejaVuSans-2c" transform="translate(254.345703 0)"/>
     <use xlink:href="#DejaVuSans-35" transform="translate(286.132812 0)"/>
     <use xlink:href="#DejaVuSans-34" transform="translate(349.755859 0)"/>
     <use xlink:href="#DejaVuSans-35" transform="translate(413.378906 0)"/>
     <use xlink:href="#DejaVuSans-20" transform="translate(477.001953 0)"/>
     <use xlink:href="#DejaVuSans-41" transform="translate(508.789062 0)"/>
     <use xlink:href="#DejaVuSans-2f" transform="translate(577.197266 0)"/>
     <use xlink:href="#DejaVuSans-63" transform="translate(610.888672 0)"/>
     <use xlink:href="#DejaVuSans-6d" transform="translate(665.869141 0)"/>
     <use xlink:href="#DejaVuSans-b2" transform="translate(763.28125 0)"/>
    </g>
    <!-- T = 298,15 K -->
    <g style="fill: #222222" transform="translate(313.148574 248.826992) scale(0.075 -0.075)">
     <use xlink:href="#DejaVuSans-54"/>
     <use xlink:href="#DejaVuSans-20" transform="translate(61.083984 0)"/>
     <use xlink:href="#DejaVuSans-3d" transform="translate(92.871094 0)"/>
     <use xlink:href="#DejaVuSans-20" transform="translate(176.660156 0)"/>
     <use xlink:href="#DejaVuSans-32" transform="translate(208.447266 0)"/>
     <use xlink:href="#DejaVuSans-39" transform="translate(272.070312 0)"/>
     <use xlink:href="#DejaVuSans-38" transform="translate(335.693359 0)"/>
     <use xlink:href="#DejaVuSans-2c" transform="translate(399.316406 0)"/>
     <use xlink:href="#DejaVuSans-31" transform="translate(431.103516 0)"/>
     <use xlink:href="#DejaVuSans-35" transform="translate(494.726562 0)"/>
     <use xlink:href="#DejaVuSans-20" transform="translate(558.349609 0)"/>
     <use xlink:href="#DejaVuSans-4b" transform="translate(590.136719 0)"/>
    </g>
   </g>
  </g>
 </g>
 <defs>
  <clipPath id="pa92ed09256">
   <rect x="43.78125" y="7.2" width="424.666708" height="309.24327"/>
  </clipPath>
 </defs>
</svg>
