<?xml version="1.0" encoding="utf-8" standalone="no"?>
<!DOCTYPE svg PUBLIC "-//W3C//DTD SVG 1.1//EN"
  "http://www.w3.org/Graphics/SVG/1.1/DTD/svg11.dtd">
<svg xmlns:xlink="http://www.w3.org/1999/xlink" width="516.6pt" height="624.24pt" viewBox="0 0 516.6 624.24" xmlns="http://www.w3.org/2000/svg" version="1.1">
 <metadata>
  <rdf:RDF xmlns:dc="http://purl.org/dc/elements/1.1/" xmlns:cc="http://creativecommons.org/ns#" xmlns:rdf="http://www.w3.org/1999/02/22-rdf-syntax-ns#">
   <cc:Work>
    <dc:type rdf:resource="http://purl.org/dc/dcmitype/StillImage"/>
    <dc:date>2026-07-20T23:50:32.650672</dc:date>
    <dc:format>image/svg+xml</dc:format>
    <dc:creator>
     <cc:Agent>
      <dc:title>Matplotlib v3.10.8, https://matplotlib.org/</dc:title>
     </cc:Agent>
    </dc:creator>
   </cc:Work>
  </rdf:RDF>
 </metadata>
 <defs>
  <style type="text/css">*{stroke-linejoin: round; stroke-linecap: butt}</style>
 </defs>
 <g id="figure_1">
  <g id="patch_1">
   <path d="M 0 624.24 
L 516.6 624.24 
L 516.6 0 
L 0 0 
z
" style="fill: #ffffff"/>
  </g>
  <g id="axes_1">
   <g id="patch_2">
    <path d="M 62.442 93.769241 
L 454.158 93.769241 
Q 471.735 93.769241 471.735 91.315862 
L 471.735 45.052138 
Q 471.735 42.598759 454.158 42.598759 
L 62.442 42.598759 
Q 44.865 42.598759 44.865 45.052138 
L 44.865 91.315862 
Q 44.865 93.769241 62.442 93.769241 
z
" clip-path="url(#p93293f70c9)" style="fill: #ffffff; stroke: #000000; stroke-width: 1.4; stroke-linejoin: miter"/>
   </g>
   <g id="patch_3">
    <path d="M 62.442 163.865793 
L 454.158 163.865793 
Q 471.735 163.865793 471.735 161.412414 
L 471.735 115.14869 
Q 471.735 112.69531 454.158 112.69531 
L 62.442 112.69531 
Q 44.865 112.69531 44.865 115.14869 
L 44.865 161.412414 
Q 44.865 163.865793 62.442 163.865793 
z
" clip-path="url(#p93293f70c9)" style="fill: #ffffff; stroke: #000000; stroke-width: 1.4; stroke-linejoin: miter"/>
   </g>
   <g id="patch_4">
    <path d="M 62.442 233.962345 
L 454.158 233.962345 
Q 471.735 233.962345 471.735 231.508966 
L 471.735 185.245241 
Q 471.735 182.791862 454.158 182.791862 
L 62.442 182.791862 
Q 44.865 182.791862 44.865 185.245241 
L 44.865 231.508966 
Q 44.865 233.962345 62.442 233.962345 
z
" clip-path="url(#p93293f70c9)" style="fill: #ffffff; stroke: #000000; stroke-width: 1.4; stroke-linejoin: miter"/>
   </g>
   <g id="patch_5">
    <path d="M 62.442 304.058897 
L 454.158 304.058897 
Q 471.735 304.058897 471.735 301.605517 
L 471.735 255.341793 
Q 471.735 252.888414 454.158 252.888414 
L 62.442 252.888414 
Q 44.865 252.888414 44.865 255.341793 
L 44.865 301.605517 
Q 44.865 304.058897 62.442 304.058897 
z
" clip-path="url(#p93293f70c9)" style="fill: #ffffff; stroke: #000000; stroke-width: 1.4; stroke-linejoin: miter"/>
   </g>
   <g id="patch_6">
    <path d="M 62.442 374.155448 
L 454.158 374.155448 
Q 471.735 374.155448 471.735 371.702069 
L 471.735 325.438345 
Q 471.735 322.984966 454.158 322.984966 
L 62.442 322.984966 
Q 44.865 322.984966 44.865 325.438345 
L 44.865 371.702069 
Q 44.865 374.155448 62.442 374.155448 
z
" clip-path="url(#p93293f70c9)" style="fill: #ffffff; stroke: #000000; stroke-width: 1.4; stroke-linejoin: miter"/>
   </g>
   <g id="patch_7">
    <path d="M 62.442 444.252 
L 454.158 444.252 
Q 471.735 444.252 471.735 441.798621 
L 471.735 395.534897 
Q 471.735 393.081517 454.158 393.081517 
L 62.442 393.081517 
Q 44.865 393.081517 44.865 395.534897 
L 44.865 441.798621 
Q 44.865 444.252 62.442 444.252 
z
" clip-path="url(#p93293f70c9)" style="fill: #ffffff; stroke: #000000; stroke-width: 1.4; stroke-linejoin: miter"/>
   </g>
   <g id="patch_8">
    <path d="M 62.442 514.348552 
L 454.158 514.348552 
Q 471.735 514.348552 471.735 511.895172 
L 471.735 465.631448 
Q 471.735 463.178069 454.158 463.178069 
L 62.442 463.178069 
Q 44.865 463.178069 44.865 465.631448 
L 44.865 511.895172 
Q 44.865 514.348552 62.442 514.348552 
z
" clip-path="url(#p93293f70c9)" style="fill: #ffffff; stroke: #000000; stroke-width: 1.4; stroke-linejoin: miter"/>
   </g>
   <g id="patch_9">
    <path d="M 62.442 584.445103 
L 454.158 584.445103 
Q 471.735 584.445103 471.735 581.991724 
L 471.735 535.728 
Q 471.735 533.274621 454.158 533.274621 
L 62.442 533.274621 
Q 44.865 533.274621 44.865 535.728 
L 44.865 581.991724 
Q 44.865 584.445103 62.442 584.445103 
z
" clip-path="url(#p93293f70c9)" style="fill: #ffffff; stroke: #000000; stroke-width: 1.4; stroke-linejoin: miter"/>
   </g>
   <g id="text_1">
    <!-- 1 -->
    <g transform="translate(77.659531 70.645194) scale(0.14 -0.14)">
     <defs>
      <path id="DejaVuSans-Bold-31" d="M 750 831 
L 1813 831 
L 1813 3847 
L 722 3622 
L 722 4441 
L 1806 4666 
L 2950 4666 
L 2950 831 
L 4013 831 
L 4013 0 
L 750 0 
L 750 831 
z
" transform="scale(0.015625)"/>
     </defs>
     <use xlink:href="#DejaVuSans-Bold-31"/>
    </g>
   </g>
   <g id="text_2">
    <!-- Artigo e Figura 3 -->
    <g transform="translate(117.684 63.036789) scale(0.12 -0.12)">
     <defs>
      <path id="DejaVuSans-Bold-41" d="M 3419 850 
L 1538 850 
L 1241 0 
L 31 0 
L 1759 4666 
L 3194 4666 
L 4922 0 
L 3713 0 
L 3419 850 
z
M 1838 1716 
L 3116 1716 
L 2478 3572 
L 1838 1716 
z
" transform="scale(0.015625)"/>
      <path id="DejaVuSans-Bold-72" d="M 3138 2547 
Q 2991 2616 2845 2648 
Q 2700 2681 2553 2681 
Q 2122 2681 1889 2404 
Q 1656 2128 1656 1613 
L 1656 0 
L 538 0 
L 538 3500 
L 1656 3500 
L 1656 2925 
Q 1872 3269 2151 3426 
Q 2431 3584 2822 3584 
Q 2878 3584 2943 3579 
Q 3009 3575 3134 3559 
L 3138 2547 
z
" transform="scale(0.015625)"/>
      <path id="DejaVuSans-Bold-74" d="M 1759 4494 
L 1759 3500 
L 2913 3500 
L 2913 2700 
L 1759 2700 
L 1759 1216 
Q 1759 972 1856 886 
Q 1953 800 2241 800 
L 2816 800 
L 2816 0 
L 1856 0 
Q 1194 0 917 276 
Q 641 553 641 1216 
L 641 2700 
L 84 2700 
L 84 3500 
L 641 3500 
L 641 4494 
L 1759 4494 
z
" transform="scale(0.015625)"/>
      <path id="DejaVuSans-Bold-69" d="M 538 3500 
L 1656 3500 
L 1656 0 
L 538 0 
L 538 3500 
z
M 538 4863 
L 1656 4863 
L 1656 3950 
L 538 3950 
L 538 4863 
z
" transform="scale(0.015625)"/>
      <path id="DejaVuSans-Bold-67" d="M 2919 594 
Q 2688 288 2409 144 
Q 2131 0 1766 0 
Q 1125 0 706 504 
Q 288 1009 288 1791 
Q 288 2575 706 3076 
Q 1125 3578 1766 3578 
Q 2131 3578 2409 3434 
Q 2688 3291 2919 2981 
L 2919 3500 
L 4044 3500 
L 4044 353 
Q 4044 -491 3511 -936 
Q 2978 -1381 1966 -1381 
Q 1638 -1381 1331 -1331 
Q 1025 -1281 716 -1178 
L 716 -306 
Q 1009 -475 1290 -558 
Q 1572 -641 1856 -641 
Q 2406 -641 2662 -400 
Q 2919 -159 2919 353 
L 2919 594 
z
M 2181 2772 
Q 1834 2772 1640 2515 
Q 1447 2259 1447 1791 
Q 1447 1309 1634 1061 
Q 1822 813 2181 813 
Q 2531 813 2725 1069 
Q 2919 1325 2919 1791 
Q 2919 2259 2725 2515 
Q 2531 2772 2181 2772 
z
" transform="scale(0.015625)"/>
      <path id="DejaVuSans-Bold-6f" d="M 2203 2784 
Q 1831 2784 1636 2517 
Q 1441 2250 1441 1747 
Q 1441 1244 1636 976 
Q 1831 709 2203 709 
Q 2569 709 2762 976 
Q 2956 1244 2956 1747 
Q 2956 2250 2762 2517 
Q 2569 2784 2203 2784 
z
M 2203 3584 
Q 3106 3584 3614 3096 
Q 4122 2609 4122 1747 
Q 4122 884 3614 396 
Q 3106 -91 2203 -91 
Q 1297 -91 786 396 
Q 275 884 275 1747 
Q 275 2609 786 3096 
Q 1297 3584 2203 3584 
z
" transform="scale(0.015625)"/>
      <path id="DejaVuSans-Bold-20" transform="scale(0.015625)"/>
      <path id="DejaVuSans-Bold-65" d="M 4031 1759 
L 4031 1441 
L 1416 1441 
Q 1456 1047 1700 850 
Q 1944 653 2381 653 
Q 2734 653 3104 758 
Q 3475 863 3866 1075 
L 3866 213 
Q 3469 63 3072 -14 
Q 2675 -91 2278 -91 
Q 1328 -91 801 392 
Q 275 875 275 1747 
Q 275 2603 792 3093 
Q 1309 3584 2216 3584 
Q 3041 3584 3536 3087 
Q 4031 2591 4031 1759 
z
M 2881 2131 
Q 2881 2450 2695 2645 
Q 2509 2841 2209 2841 
Q 1884 2841 1681 2658 
Q 1478 2475 1428 2131 
L 2881 2131 
z
" transform="scale(0.015625)"/>
      <path id="DejaVuSans-Bold-46" d="M 588 4666 
L 3834 4666 
L 3834 3756 
L 1791 3756 
L 1791 2888 
L 3713 2888 
L 3713 1978 
L 1791 1978 
L 1791 0 
L 588 0 
L 588 4666 
z
" transform="scale(0.015625)"/>
      <path id="DejaVuSans-Bold-75" d="M 500 1363 
L 500 3500 
L 1625 3500 
L 1625 3150 
Q 1625 2866 1622 2436 
Q 1619 2006 1619 1863 
Q 1619 1441 1641 1255 
Q 1663 1069 1716 984 
Q 1784 875 1895 815 
Q 2006 756 2150 756 
Q 2500 756 2700 1025 
Q 2900 1294 2900 1772 
L 2900 3500 
L 4019 3500 
L 4019 0 
L 2900 0 
L 2900 506 
Q 2647 200 2364 54 
Q 2081 -91 1741 -91 
Q 1134 -91 817 281 
Q 500 653 500 1363 
z
" transform="scale(0.015625)"/>
      <path id="DejaVuSans-Bold-61" d="M 2106 1575 
Q 1756 1575 1579 1456 
Q 1403 1338 1403 1106 
Q 1403 894 1545 773 
Q 1688 653 1941 653 
Q 2256 653 2472 879 
Q 2688 1106 2688 1447 
L 2688 1575 
L 2106 1575 
z
M 3816 1997 
L 3816 0 
L 2688 0 
L 2688 519 
Q 2463 200 2181 54 
Q 1900 -91 1497 -91 
Q 953 -91 614 226 
Q 275 544 275 1050 
Q 275 1666 698 1953 
Q 1122 2241 2028 2241 
L 2688 2241 
L 2688 2328 
Q 2688 2594 2478 2717 
Q 2269 2841 1825 2841 
Q 1466 2841 1156 2769 
Q 847 2697 581 2553 
L 581 3406 
Q 941 3494 1303 3539 
Q 1666 3584 2028 3584 
Q 2975 3584 3395 3211 
Q 3816 2838 3816 1997 
z
" transform="scale(0.015625)"/>
      <path id="DejaVuSans-Bold-33" d="M 2981 2516 
Q 3453 2394 3698 2092 
Q 3944 1791 3944 1325 
Q 3944 631 3412 270 
Q 2881 -91 1863 -91 
Q 1503 -91 1142 -33 
Q 781 25 428 141 
L 428 1069 
Q 766 900 1098 814 
Q 1431 728 1753 728 
Q 2231 728 2486 893 
Q 2741 1059 2741 1369 
Q 2741 1688 2480 1852 
Q 2219 2016 1709 2016 
L 1228 2016 
L 1228 2791 
L 1734 2791 
Q 2188 2791 2409 2933 
Q 2631 3075 2631 3366 
Q 2631 3634 2415 3781 
Q 2200 3928 1806 3928 
Q 1516 3928 1219 3862 
Q 922 3797 628 3669 
L 628 4550 
Q 984 4650 1334 4700 
Q 1684 4750 2022 4750 
Q 2931 4750 3382 4451 
Q 3834 4153 3834 3553 
Q 3834 3144 3618 2883 
Q 3403 2622 2981 2516 
z
" transform="scale(0.015625)"/>
     </defs>
     <use xlink:href="#DejaVuSans-Bold-41"/>
     <use xlink:href="#DejaVuSans-Bold-72" transform="translate(77.392578 0)"/>
     <use xlink:href="#DejaVuSans-Bold-74" transform="translate(126.708984 0)"/>
     <use xlink:href="#DejaVuSans-Bold-69" transform="translate(174.511719 0)"/>
     <use xlink:href="#DejaVuSans-Bold-67" transform="translate(208.789062 0)"/>
     <use xlink:href="#DejaVuSans-Bold-6f" transform="translate(280.371094 0)"/>
     <use xlink:href="#DejaVuSans-Bold-20" transform="translate(349.072266 0)"/>
     <use xlink:href="#DejaVuSans-Bold-65" transform="translate(383.886719 0)"/>
     <use xlink:href="#DejaVuSans-Bold-20" transform="translate(451.708984 0)"/>
     <use xlink:href="#DejaVuSans-Bold-46" transform="translate(486.523438 0)"/>
     <use xlink:href="#DejaVuSans-Bold-69" transform="translate(554.833984 0)"/>
     <use xlink:href="#DejaVuSans-Bold-67" transform="translate(589.111328 0)"/>
     <use xlink:href="#DejaVuSans-Bold-75" transform="translate(660.693359 0)"/>
     <use xlink:href="#DejaVuSans-Bold-72" transform="translate(731.884766 0)"/>
     <use xlink:href="#DejaVuSans-Bold-61" transform="translate(781.201172 0)"/>
     <use xlink:href="#DejaVuSans-Bold-20" transform="translate(848.681641 0)"/>
     <use xlink:href="#DejaVuSans-Bold-33" transform="translate(883.496094 0)"/>
    </g>
   </g>
   <g id="text_3">
    <!-- Equações, parâmetros publicados e quatro painéis -->
    <g transform="translate(117.684 78.15303) scale(0.1 -0.1)">
     <defs>
      <path id="DejaVuSans-45" d="M 628 4666 
L 3578 4666 
L 3578 4134 
L 1259 4134 
L 1259 2753 
L 3481 2753 
L 3481 2222 
L 1259 2222 
L 1259 531 
L 3634 531 
L 3634 0 
L 628 0 
L 628 4666 
z
" transform="scale(0.015625)"/>
      <path id="DejaVuSans-71" d="M 947 1747 
Q 947 1113 1208 752 
Q 1469 391 1925 391 
Q 2381 391 2643 752 
Q 2906 1113 2906 1747 
Q 2906 2381 2643 2742 
Q 2381 3103 1925 3103 
Q 1469 3103 1208 2742 
Q 947 2381 947 1747 
z
M 2906 525 
Q 2725 213 2448 61 
Q 2172 -91 1784 -91 
Q 1150 -91 751 415 
Q 353 922 353 1747 
Q 353 2572 751 3078 
Q 1150 3584 1784 3584 
Q 2172 3584 2448 3432 
Q 2725 3281 2906 2969 
L 2906 3500 
L 3481 3500 
L 3481 -1331 
L 2906 -1331 
L 2906 525 
z
" transform="scale(0.015625)"/>
      <path id="DejaVuSans-75" d="M 544 1381 
L 544 3500 
L 1119 3500 
L 1119 1403 
Q 1119 906 1312 657 
Q 1506 409 1894 409 
Q 2359 409 2629 706 
Q 2900 1003 2900 1516 
L 2900 3500 
L 3475 3500 
L 3475 0 
L 2900 0 
L 2900 538 
Q 2691 219 2414 64 
Q 2138 -91 1772 -91 
Q 1169 -91 856 284 
Q 544 659 544 1381 
z
M 1991 3584 
L 1991 3584 
z
" transform="scale(0.015625)"/>
      <path id="DejaVuSans-61" d="M 2194 1759 
Q 1497 1759 1228 1600 
Q 959 1441 959 1056 
Q 959 750 1161 570 
Q 1363 391 1709 391 
Q 2188 391 2477 730 
Q 2766 1069 2766 1631 
L 2766 1759 
L 2194 1759 
z
M 3341 1997 
L 3341 0 
L 2766 0 
L 2766 531 
Q 2569 213 2275 61 
Q 1981 -91 1556 -91 
Q 1019 -91 701 211 
Q 384 513 384 1019 
Q 384 1609 779 1909 
Q 1175 2209 1959 2209 
L 2766 2209 
L 2766 2266 
Q 2766 2663 2505 2880 
Q 2244 3097 1772 3097 
Q 1472 3097 1187 3025 
Q 903 2953 641 2809 
L 641 3341 
Q 956 3463 1253 3523 
Q 1550 3584 1831 3584 
Q 2591 3584 2966 3190 
Q 3341 2797 3341 1997 
z
" transform="scale(0.015625)"/>
      <path id="DejaVuSans-e7" d="M 3122 3366 
L 3122 2828 
Q 2878 2963 2633 3030 
Q 2388 3097 2138 3097 
Q 1578 3097 1268 2742 
Q 959 2388 959 1747 
Q 959 1106 1268 751 
Q 1578 397 2138 397 
Q 2388 397 2633 464 
Q 2878 531 3122 666 
L 3122 134 
Q 2881 22 2623 -34 
Q 2366 -91 2075 -91 
Q 1284 -91 818 406 
Q 353 903 353 1747 
Q 353 2603 823 3093 
Q 1294 3584 2113 3584 
Q 2378 3584 2631 3529 
Q 2884 3475 3122 3366 
z
M 2311 0 
Q 2482 -194 2566 -358 
Q 2651 -522 2651 -672 
Q 2651 -950 2463 -1092 
Q 2276 -1234 1907 -1234 
Q 1764 -1234 1628 -1215 
Q 1492 -1197 1357 -1159 
L 1357 -750 
Q 1464 -803 1579 -826 
Q 1695 -850 1842 -850 
Q 2026 -850 2120 -775 
Q 2214 -700 2214 -556 
Q 2214 -463 2146 -327 
Q 2079 -191 1939 0 
L 2311 0 
z
" transform="scale(0.015625)"/>
      <path id="DejaVuSans-f5" d="M 1959 3097 
Q 1497 3097 1228 2736 
Q 959 2375 959 1747 
Q 959 1119 1226 758 
Q 1494 397 1959 397 
Q 2419 397 2687 759 
Q 2956 1122 2956 1747 
Q 2956 2369 2687 2733 
Q 2419 3097 1959 3097 
z
M 1959 3584 
Q 2709 3584 3137 3096 
Q 3566 2609 3566 1747 
Q 3566 888 3137 398 
Q 2709 -91 1959 -91 
Q 1206 -91 779 398 
Q 353 888 353 1747 
Q 353 2609 779 3096 
Q 1206 3584 1959 3584 
z
M 1948 4281 
L 1769 4453 
Q 1701 4516 1649 4545 
Q 1598 4575 1557 4575 
Q 1438 4575 1382 4461 
Q 1326 4347 1319 4091 
L 929 4091 
Q 935 4513 1094 4742 
Q 1254 4972 1538 4972 
Q 1657 4972 1757 4928 
Q 1857 4884 1973 4781 
L 2151 4609 
Q 2219 4547 2271 4517 
Q 2323 4488 2363 4488 
Q 2482 4488 2538 4602 
Q 2594 4716 2601 4972 
L 2991 4972 
Q 2985 4550 2825 4320 
Q 2666 4091 2382 4091 
Q 2263 4091 2163 4134 
Q 2063 4178 1948 4281 
z
" transform="scale(0.015625)"/>
      <path id="DejaVuSans-65" d="M 3597 1894 
L 3597 1613 
L 953 1613 
Q 991 1019 1311 708 
Q 1631 397 2203 397 
Q 2534 397 2845 478 
Q 3156 559 3463 722 
L 3463 178 
Q 3153 47 2828 -22 
Q 2503 -91 2169 -91 
Q 1331 -91 842 396 
Q 353 884 353 1716 
Q 353 2575 817 3079 
Q 1281 3584 2069 3584 
Q 2775 3584 3186 3129 
Q 3597 2675 3597 1894 
z
M 3022 2063 
Q 3016 2534 2758 2815 
Q 2500 3097 2075 3097 
Q 1594 3097 1305 2825 
Q 1016 2553 972 2059 
L 3022 2063 
z
" transform="scale(0.015625)"/>
      <path id="DejaVuSans-73" d="M 2834 3397 
L 2834 2853 
Q 2591 2978 2328 3040 
Q 2066 3103 1784 3103 
Q 1356 3103 1142 2972 
Q 928 2841 928 2578 
Q 928 2378 1081 2264 
Q 1234 2150 1697 2047 
L 1894 2003 
Q 2506 1872 2764 1633 
Q 3022 1394 3022 966 
Q 3022 478 2636 193 
Q 2250 -91 1575 -91 
Q 1294 -91 989 -36 
Q 684 19 347 128 
L 347 722 
Q 666 556 975 473 
Q 1284 391 1588 391 
Q 1994 391 2212 530 
Q 2431 669 2431 922 
Q 2431 1156 2273 1281 
Q 2116 1406 1581 1522 
L 1381 1569 
Q 847 1681 609 1914 
Q 372 2147 372 2553 
Q 372 3047 722 3315 
Q 1072 3584 1716 3584 
Q 2034 3584 2315 3537 
Q 2597 3491 2834 3397 
z
" transform="scale(0.015625)"/>
      <path id="DejaVuSans-2c" d="M 750 794 
L 1409 794 
L 1409 256 
L 897 -744 
L 494 -744 
L 750 256 
L 750 794 
z
" transform="scale(0.015625)"/>
      <path id="DejaVuSans-20" transform="scale(0.015625)"/>
      <path id="DejaVuSans-70" d="M 1159 525 
L 1159 -1331 
L 581 -1331 
L 581 3500 
L 1159 3500 
L 1159 2969 
Q 1341 3281 1617 3432 
Q 1894 3584 2278 3584 
Q 2916 3584 3314 3078 
Q 3713 2572 3713 1747 
Q 3713 922 3314 415 
Q 2916 -91 2278 -91 
Q 1894 -91 1617 61 
Q 1341 213 1159 525 
z
M 3116 1747 
Q 3116 2381 2855 2742 
Q 2594 3103 2138 3103 
Q 1681 3103 1420 2742 
Q 1159 2381 1159 1747 
Q 1159 1113 1420 752 
Q 1681 391 2138 391 
Q 2594 391 2855 752 
Q 3116 1113 3116 1747 
z
" transform="scale(0.015625)"/>
      <path id="DejaVuSans-72" d="M 2631 2963 
Q 2534 3019 2420 3045 
Q 2306 3072 2169 3072 
Q 1681 3072 1420 2755 
Q 1159 2438 1159 1844 
L 1159 0 
L 581 0 
L 581 3500 
L 1159 3500 
L 1159 2956 
Q 1341 3275 1631 3429 
Q 1922 3584 2338 3584 
Q 2397 3584 2469 3576 
Q 2541 3569 2628 3553 
L 2631 2963 
z
" transform="scale(0.015625)"/>
      <path id="DejaVuSans-e2" d="M 2194 1759 
Q 1497 1759 1228 1600 
Q 959 1441 959 1056 
Q 959 750 1161 570 
Q 1363 391 1709 391 
Q 2188 391 2477 730 
Q 2766 1069 2766 1631 
L 2766 1759 
L 2194 1759 
z
M 3341 1997 
L 3341 0 
L 2766 0 
L 2766 531 
Q 2569 213 2275 61 
Q 1981 -91 1556 -91 
Q 1019 -91 701 211 
Q 384 513 384 1019 
Q 384 1609 779 1909 
Q 1175 2209 1959 2209 
L 2766 2209 
L 2766 2266 
Q 2766 2663 2505 2880 
Q 2244 3097 1772 3097 
Q 1472 3097 1187 3025 
Q 903 2953 641 2809 
L 641 3341 
Q 956 3463 1253 3523 
Q 1550 3584 1831 3584 
Q 2591 3584 2966 3190 
Q 3341 2797 3341 1997 
z
M 1625 5119 
L 2087 5119 
L 2853 3944 
L 2419 3944 
L 1856 4709 
L 1294 3944 
L 859 3944 
L 1625 5119 
z
" transform="scale(0.015625)"/>
      <path id="DejaVuSans-6d" d="M 3328 2828 
Q 3544 3216 3844 3400 
Q 4144 3584 4550 3584 
Q 5097 3584 5394 3201 
Q 5691 2819 5691 2113 
L 5691 0 
L 5113 0 
L 5113 2094 
Q 5113 2597 4934 2840 
Q 4756 3084 4391 3084 
Q 3944 3084 3684 2787 
Q 3425 2491 3425 1978 
L 3425 0 
L 2847 0 
L 2847 2094 
Q 2847 2600 2669 2842 
Q 2491 3084 2119 3084 
Q 1678 3084 1418 2786 
Q 1159 2488 1159 1978 
L 1159 0 
L 581 0 
L 581 3500 
L 1159 3500 
L 1159 2956 
Q 1356 3278 1631 3431 
Q 1906 3584 2284 3584 
Q 2666 3584 2933 3390 
Q 3200 3197 3328 2828 
z
" transform="scale(0.015625)"/>
      <path id="DejaVuSans-74" d="M 1172 4494 
L 1172 3500 
L 2356 3500 
L 2356 3053 
L 1172 3053 
L 1172 1153 
Q 1172 725 1289 603 
Q 1406 481 1766 481 
L 2356 481 
L 2356 0 
L 1766 0 
Q 1100 0 847 248 
Q 594 497 594 1153 
L 594 3053 
L 172 3053 
L 172 3500 
L 594 3500 
L 594 4494 
L 1172 4494 
z
" transform="scale(0.015625)"/>
      <path id="DejaVuSans-6f" d="M 1959 3097 
Q 1497 3097 1228 2736 
Q 959 2375 959 1747 
Q 959 1119 1226 758 
Q 1494 397 1959 397 
Q 2419 397 2687 759 
Q 2956 1122 2956 1747 
Q 2956 2369 2687 2733 
Q 2419 3097 1959 3097 
z
M 1959 3584 
Q 2709 3584 3137 3096 
Q 3566 2609 3566 1747 
Q 3566 888 3137 398 
Q 2709 -91 1959 -91 
Q 1206 -91 779 398 
Q 353 888 353 1747 
Q 353 2609 779 3096 
Q 1206 3584 1959 3584 
z
" transform="scale(0.015625)"/>
      <path id="DejaVuSans-62" d="M 3116 1747 
Q 3116 2381 2855 2742 
Q 2594 3103 2138 3103 
Q 1681 3103 1420 2742 
Q 1159 2381 1159 1747 
Q 1159 1113 1420 752 
Q 1681 391 2138 391 
Q 2594 391 2855 752 
Q 3116 1113 3116 1747 
z
M 1159 2969 
Q 1341 3281 1617 3432 
Q 1894 3584 2278 3584 
Q 2916 3584 3314 3078 
Q 3713 2572 3713 1747 
Q 3713 922 3314 415 
Q 2916 -91 2278 -91 
Q 1894 -91 1617 61 
Q 1341 213 1159 525 
L 1159 0 
L 581 0 
L 581 4863 
L 1159 4863 
L 1159 2969 
z
" transform="scale(0.015625)"/>
      <path id="DejaVuSans-6c" d="M 603 4863 
L 1178 4863 
L 1178 0 
L 603 0 
L 603 4863 
z
" transform="scale(0.015625)"/>
      <path id="DejaVuSans-69" d="M 603 3500 
L 1178 3500 
L 1178 0 
L 603 0 
L 603 3500 
z
M 603 4863 
L 1178 4863 
L 1178 4134 
L 603 4134 
L 603 4863 
z
" transform="scale(0.015625)"/>
      <path id="DejaVuSans-63" d="M 3122 3366 
L 3122 2828 
Q 2878 2963 2633 3030 
Q 2388 3097 2138 3097 
Q 1578 3097 1268 2742 
Q 959 2388 959 1747 
Q 959 1106 1268 751 
Q 1578 397 2138 397 
Q 2388 397 2633 464 
Q 2878 531 3122 666 
L 3122 134 
Q 2881 22 2623 -34 
Q 2366 -91 2075 -91 
Q 1284 -91 818 406 
Q 353 903 353 1747 
Q 353 2603 823 3093 
Q 1294 3584 2113 3584 
Q 2378 3584 2631 3529 
Q 2884 3475 3122 3366 
z
" transform="scale(0.015625)"/>
      <path id="DejaVuSans-64" d="M 2906 2969 
L 2906 4863 
L 3481 4863 
L 3481 0 
L 2906 0 
L 2906 525 
Q 2725 213 2448 61 
Q 2172 -91 1784 -91 
Q 1150 -91 751 415 
Q 353 922 353 1747 
Q 353 2572 751 3078 
Q 1150 3584 1784 3584 
Q 2172 3584 2448 3432 
Q 2725 3281 2906 2969 
z
M 947 1747 
Q 947 1113 1208 752 
Q 1469 391 1925 391 
Q 2381 391 2643 752 
Q 2906 1113 2906 1747 
Q 2906 2381 2643 2742 
Q 2381 3103 1925 3103 
Q 1469 3103 1208 2742 
Q 947 2381 947 1747 
z
" transform="scale(0.015625)"/>
      <path id="DejaVuSans-6e" d="M 3513 2113 
L 3513 0 
L 2938 0 
L 2938 2094 
Q 2938 2591 2744 2837 
Q 2550 3084 2163 3084 
Q 1697 3084 1428 2787 
Q 1159 2491 1159 1978 
L 1159 0 
L 581 0 
L 581 3500 
L 1159 3500 
L 1159 2956 
Q 1366 3272 1645 3428 
Q 1925 3584 2291 3584 
Q 2894 3584 3203 3211 
Q 3513 2838 3513 2113 
z
" transform="scale(0.015625)"/>
      <path id="DejaVuSans-e9" d="M 3597 1894 
L 3597 1613 
L 953 1613 
Q 991 1019 1311 708 
Q 1631 397 2203 397 
Q 2534 397 2845 478 
Q 3156 559 3463 722 
L 3463 178 
Q 3153 47 2828 -22 
Q 2503 -91 2169 -91 
Q 1331 -91 842 396 
Q 353 884 353 1716 
Q 353 2575 817 3079 
Q 1281 3584 2069 3584 
Q 2775 3584 3186 3129 
Q 3597 2675 3597 1894 
z
M 3022 2063 
Q 3016 2534 2758 2815 
Q 2500 3097 2075 3097 
Q 1594 3097 1305 2825 
Q 1016 2553 972 2059 
L 3022 2063 
z
M 2466 5119 
L 3088 5119 
L 2070 3944 
L 1591 3944 
L 2466 5119 
z
" transform="scale(0.015625)"/>
     </defs>
     <use xlink:href="#DejaVuSans-45"/>
     <use xlink:href="#DejaVuSans-71" transform="translate(63.183594 0)"/>
     <use xlink:href="#DejaVuSans-75" transform="translate(126.660156 0)"/>
     <use xlink:href="#DejaVuSans-61" transform="translate(190.039062 0)"/>
     <use xlink:href="#DejaVuSans-e7" transform="translate(251.318359 0)"/>
     <use xlink:href="#DejaVuSans-f5" transform="translate(306.298828 0)"/>
     <use xlink:href="#DejaVuSans-65" transform="translate(367.480469 0)"/>
     <use xlink:href="#DejaVuSans-73" transform="translate(429.003906 0)"/>
     <use xlink:href="#DejaVuSans-2c" transform="translate(481.103516 0)"/>
     <use xlink:href="#DejaVuSans-20" transform="translate(512.890625 0)"/>
     <use xlink:href="#DejaVuSans-70" transform="translate(544.677734 0)"/>
     <use xlink:href="#DejaVuSans-61" transform="translate(608.154297 0)"/>
     <use xlink:href="#DejaVuSans-72" transform="translate(669.433594 0)"/>
     <use xlink:href="#DejaVuSans-e2" transform="translate(710.546875 0)"/>
     <use xlink:href="#DejaVuSans-6d" transform="translate(771.826172 0)"/>
     <use xlink:href="#DejaVuSans-65" transform="translate(869.238281 0)"/>
     <use xlink:href="#DejaVuSans-74" transform="translate(930.761719 0)"/>
     <use xlink:href="#DejaVuSans-72" transform="translate(969.970703 0)"/>
     <use xlink:href="#DejaVuSans-6f" transform="translate(1008.833984 0)"/>
     <use xlink:href="#DejaVuSans-73" transform="translate(1070.015625 0)"/>
     <use xlink:href="#DejaVuSans-20" transform="translate(1122.115234 0)"/>
     <use xlink:href="#DejaVuSans-70" transform="translate(1153.902344 0)"/>
     <use xlink:href="#DejaVuSans-75" transform="translate(1217.378906 0)"/>
     <use xlink:href="#DejaVuSans-62" transform="translate(1280.757812 0)"/>
     <use xlink:href="#DejaVuSans-6c" transform="translate(1344.234375 0)"/>
     <use xlink:href="#DejaVuSans-69" transform="translate(1372.017578 0)"/>
     <use xlink:href="#DejaVuSans-63" transform="translate(1399.800781 0)"/>
     <use xlink:href="#DejaVuSans-61" transform="translate(1454.78125 0)"/>
     <use xlink:href="#DejaVuSans-64" transform="translate(1516.060547 0)"/>
     <use xlink:href="#DejaVuSans-6f" transform="translate(1579.537109 0)"/>
     <use xlink:href="#DejaVuSans-73" transform="translate(1640.71875 0)"/>
     <use xlink:href="#DejaVuSans-20" transform="translate(1692.818359 0)"/>
     <use xlink:href="#DejaVuSans-65" transform="translate(1724.605469 0)"/>
     <use xlink:href="#DejaVuSans-20" transform="translate(1786.128906 0)"/>
     <use xlink:href="#DejaVuSans-71" transform="translate(1817.916016 0)"/>
     <use xlink:href="#DejaVuSans-75" transform="translate(1881.392578 0)"/>
     <use xlink:href="#DejaVuSans-61" transform="translate(1944.771484 0)"/>
     <use xlink:href="#DejaVuSans-74" transform="translate(2006.050781 0)"/>
     <use xlink:href="#DejaVuSans-72" transform="translate(2045.259766 0)"/>
     <use xlink:href="#DejaVuSans-6f" transform="translate(2084.123047 0)"/>
     <use xlink:href="#DejaVuSans-20" transform="translate(2145.304688 0)"/>
     <use xlink:href="#DejaVuSans-70" transform="translate(2177.091797 0)"/>
     <use xlink:href="#DejaVuSans-61" transform="translate(2240.568359 0)"/>
     <use xlink:href="#DejaVuSans-69" transform="translate(2301.847656 0)"/>
     <use xlink:href="#DejaVuSans-6e" transform="translate(2329.630859 0)"/>
     <use xlink:href="#DejaVuSans-e9" transform="translate(2393.009766 0)"/>
     <use xlink:href="#DejaVuSans-69" transform="translate(2454.533203 0)"/>
     <use xlink:href="#DejaVuSans-73" transform="translate(2482.316406 0)"/>
    </g>
   </g>
   <g id="patch_10">
    <path d="M 258.3 93.315565 
Q 258.3 96.57305 258.3 98.153485 
" style="fill: none; stroke: #000000; stroke-width: 1.5; stroke-linecap: round"/>
    <path d="M 260.3 94.153485 
L 258.3 98.153485 
L 256.3 94.153485 
z
" style="fill: #1f77b4; stroke: #000000; stroke-width: 1.5; stroke-linecap: round"/>
   </g>
   <g id="text_4">
    <!-- 2 -->
    <g transform="translate(77.659531 140.741746) scale(0.14 -0.14)">
     <defs>
      <path id="DejaVuSans-Bold-32" d="M 1844 884 
L 3897 884 
L 3897 0 
L 506 0 
L 506 884 
L 2209 2388 
Q 2438 2594 2547 2791 
Q 2656 2988 2656 3200 
Q 2656 3528 2436 3728 
Q 2216 3928 1850 3928 
Q 1569 3928 1234 3808 
Q 900 3688 519 3450 
L 519 4475 
Q 925 4609 1322 4679 
Q 1719 4750 2100 4750 
Q 2938 4750 3402 4381 
Q 3866 4013 3866 3353 
Q 3866 2972 3669 2642 
Q 3472 2313 2841 1759 
L 1844 884 
z
" transform="scale(0.015625)"/>
     </defs>
     <use xlink:href="#DejaVuSans-Bold-32"/>
    </g>
   </g>
   <g id="text_5">
    <!-- Digitalização auditada -->
    <g transform="translate(117.684 133.241153) scale(0.12 -0.12)">
     <defs>
      <path id="DejaVuSans-Bold-44" d="M 1791 3756 
L 1791 909 
L 2222 909 
Q 2959 909 3348 1275 
Q 3738 1641 3738 2338 
Q 3738 3031 3350 3393 
Q 2963 3756 2222 3756 
L 1791 3756 
z
M 588 4666 
L 1856 4666 
Q 2919 4666 3439 4514 
Q 3959 4363 4331 4000 
Q 4659 3684 4818 3271 
Q 4978 2859 4978 2338 
Q 4978 1809 4818 1395 
Q 4659 981 4331 666 
Q 3956 303 3431 151 
Q 2906 0 1856 0 
L 588 0 
L 588 4666 
z
" transform="scale(0.015625)"/>
      <path id="DejaVuSans-Bold-6c" d="M 538 4863 
L 1656 4863 
L 1656 0 
L 538 0 
L 538 4863 
z
" transform="scale(0.015625)"/>
      <path id="DejaVuSans-Bold-7a" d="M 366 3500 
L 3419 3500 
L 3419 2719 
L 1575 800 
L 3419 800 
L 3419 0 
L 288 0 
L 288 781 
L 2131 2700 
L 366 2700 
L 366 3500 
z
" transform="scale(0.015625)"/>
      <path id="DejaVuSans-Bold-e7" d="M 3366 3391 
L 3366 2478 
Q 3138 2634 2908 2709 
Q 2678 2784 2431 2784 
Q 1963 2784 1702 2511 
Q 1441 2238 1441 1747 
Q 1441 1256 1702 982 
Q 1963 709 2431 709 
Q 2694 709 2930 787 
Q 3166 866 3366 1019 
L 3366 103 
Q 3103 6 2833 -42 
Q 2563 -91 2291 -91 
Q 1344 -91 809 395 
Q 275 881 275 1747 
Q 275 2613 809 3098 
Q 1344 3584 2291 3584 
Q 2566 3584 2833 3536 
Q 3100 3488 3366 3391 
z
M 2457 0 
Q 2639 -194 2724 -359 
Q 2810 -525 2810 -672 
Q 2810 -969 2618 -1111 
Q 2426 -1253 2029 -1253 
Q 1879 -1253 1719 -1233 
Q 1560 -1213 1398 -1172 
L 1395 -697 
Q 1551 -747 1680 -770 
Q 1810 -794 1914 -794 
Q 2095 -794 2196 -722 
Q 2298 -650 2298 -525 
Q 2298 -444 2231 -316 
Q 2164 -188 2023 0 
L 2457 0 
z
" transform="scale(0.015625)"/>
      <path id="DejaVuSans-Bold-e3" d="M 2106 1575 
Q 1756 1575 1579 1456 
Q 1403 1338 1403 1106 
Q 1403 894 1545 773 
Q 1688 653 1941 653 
Q 2256 653 2472 879 
Q 2688 1106 2688 1447 
L 2688 1575 
L 2106 1575 
z
M 3816 1997 
L 3816 0 
L 2688 0 
L 2688 519 
Q 2463 200 2181 54 
Q 1900 -91 1497 -91 
Q 953 -91 614 226 
Q 275 544 275 1050 
Q 275 1666 698 1953 
Q 1122 2241 2028 2241 
L 2688 2241 
L 2688 2328 
Q 2688 2594 2478 2717 
Q 2269 2841 1825 2841 
Q 1466 2841 1156 2769 
Q 847 2697 581 2553 
L 581 3406 
Q 941 3494 1303 3539 
Q 1666 3584 2028 3584 
Q 2975 3584 3395 3211 
Q 3816 2838 3816 1997 
z
M 2190 4263 
L 2018 4378 
Q 2006 4384 1987 4397 
Q 1840 4494 1762 4494 
Q 1650 4494 1590 4397 
Q 1531 4300 1531 4116 
L 1531 4091 
L 1097 4091 
Q 1097 4516 1257 4747 
Q 1418 4978 1709 4978 
Q 1822 4978 1936 4936 
Q 2050 4894 2178 4800 
L 2368 4666 
Q 2437 4619 2495 4594 
Q 2553 4569 2600 4569 
Q 2712 4569 2774 4669 
Q 2837 4769 2837 4947 
L 2837 4972 
L 3272 4972 
Q 3272 4547 3111 4315 
Q 2950 4084 2659 4084 
Q 2547 4084 2442 4121 
Q 2337 4159 2190 4263 
z
" transform="scale(0.015625)"/>
      <path id="DejaVuSans-Bold-64" d="M 2919 2988 
L 2919 4863 
L 4044 4863 
L 4044 0 
L 2919 0 
L 2919 506 
Q 2688 197 2409 53 
Q 2131 -91 1766 -91 
Q 1119 -91 703 423 
Q 288 938 288 1747 
Q 288 2556 703 3070 
Q 1119 3584 1766 3584 
Q 2128 3584 2408 3439 
Q 2688 3294 2919 2988 
z
M 2181 722 
Q 2541 722 2730 984 
Q 2919 1247 2919 1747 
Q 2919 2247 2730 2509 
Q 2541 2772 2181 2772 
Q 1825 2772 1636 2509 
Q 1447 2247 1447 1747 
Q 1447 1247 1636 984 
Q 1825 722 2181 722 
z
" transform="scale(0.015625)"/>
     </defs>
     <use xlink:href="#DejaVuSans-Bold-44"/>
     <use xlink:href="#DejaVuSans-Bold-69" transform="translate(83.007812 0)"/>
     <use xlink:href="#DejaVuSans-Bold-67" transform="translate(117.285156 0)"/>
     <use xlink:href="#DejaVuSans-Bold-69" transform="translate(188.867188 0)"/>
     <use xlink:href="#DejaVuSans-Bold-74" transform="translate(223.144531 0)"/>
     <use xlink:href="#DejaVuSans-Bold-61" transform="translate(270.947266 0)"/>
     <use xlink:href="#DejaVuSans-Bold-6c" transform="translate(338.427734 0)"/>
     <use xlink:href="#DejaVuSans-Bold-69" transform="translate(372.705078 0)"/>
     <use xlink:href="#DejaVuSans-Bold-7a" transform="translate(406.982422 0)"/>
     <use xlink:href="#DejaVuSans-Bold-61" transform="translate(465.185547 0)"/>
     <use xlink:href="#DejaVuSans-Bold-e7" transform="translate(532.666016 0)"/>
     <use xlink:href="#DejaVuSans-Bold-e3" transform="translate(591.943359 0)"/>
     <use xlink:href="#DejaVuSans-Bold-6f" transform="translate(659.423828 0)"/>
     <use xlink:href="#DejaVuSans-Bold-20" transform="translate(728.125 0)"/>
     <use xlink:href="#DejaVuSans-Bold-61" transform="translate(762.939453 0)"/>
     <use xlink:href="#DejaVuSans-Bold-75" transform="translate(830.419922 0)"/>
     <use xlink:href="#DejaVuSans-Bold-64" transform="translate(901.611328 0)"/>
     <use xlink:href="#DejaVuSans-Bold-69" transform="translate(973.193359 0)"/>
     <use xlink:href="#DejaVuSans-Bold-74" transform="translate(1007.470703 0)"/>
     <use xlink:href="#DejaVuSans-Bold-61" transform="translate(1055.273438 0)"/>
     <use xlink:href="#DejaVuSans-Bold-64" transform="translate(1122.753906 0)"/>
     <use xlink:href="#DejaVuSans-Bold-61" transform="translate(1194.335938 0)"/>
    </g>
   </g>
   <g id="text_6">
    <!-- Conversão pixel→dados e verificação dos eixos -->
    <g transform="translate(117.684 148.134738) scale(0.1 -0.1)">
     <defs>
      <path id="DejaVuSans-43" d="M 4122 4306 
L 4122 3641 
Q 3803 3938 3442 4084 
Q 3081 4231 2675 4231 
Q 1875 4231 1450 3742 
Q 1025 3253 1025 2328 
Q 1025 1406 1450 917 
Q 1875 428 2675 428 
Q 3081 428 3442 575 
Q 3803 722 4122 1019 
L 4122 359 
Q 3791 134 3420 21 
Q 3050 -91 2638 -91 
Q 1578 -91 968 557 
Q 359 1206 359 2328 
Q 359 3453 968 4101 
Q 1578 4750 2638 4750 
Q 3056 4750 3426 4639 
Q 3797 4528 4122 4306 
z
" transform="scale(0.015625)"/>
      <path id="DejaVuSans-76" d="M 191 3500 
L 800 3500 
L 1894 563 
L 2988 3500 
L 3597 3500 
L 2284 0 
L 1503 0 
L 191 3500 
z
" transform="scale(0.015625)"/>
      <path id="DejaVuSans-e3" d="M 2194 1759 
Q 1497 1759 1228 1600 
Q 959 1441 959 1056 
Q 959 750 1161 570 
Q 1363 391 1709 391 
Q 2188 391 2477 730 
Q 2766 1069 2766 1631 
L 2766 1759 
L 2194 1759 
z
M 3341 1997 
L 3341 0 
L 2766 0 
L 2766 531 
Q 2569 213 2275 61 
Q 1981 -91 1556 -91 
Q 1019 -91 701 211 
Q 384 513 384 1019 
Q 384 1609 779 1909 
Q 1175 2209 1959 2209 
L 2766 2209 
L 2766 2266 
Q 2766 2663 2505 2880 
Q 2244 3097 1772 3097 
Q 1472 3097 1187 3025 
Q 903 2953 641 2809 
L 641 3341 
Q 956 3463 1253 3523 
Q 1550 3584 1831 3584 
Q 2591 3584 2966 3190 
Q 3341 2797 3341 1997 
z
M 1844 4281 
L 1665 4453 
Q 1597 4516 1545 4545 
Q 1494 4575 1453 4575 
Q 1334 4575 1278 4461 
Q 1222 4347 1215 4091 
L 825 4091 
Q 831 4513 990 4742 
Q 1150 4972 1434 4972 
Q 1553 4972 1653 4928 
Q 1753 4884 1869 4781 
L 2047 4609 
Q 2115 4547 2167 4517 
Q 2219 4488 2259 4488 
Q 2378 4488 2434 4602 
Q 2490 4716 2497 4972 
L 2887 4972 
Q 2881 4550 2721 4320 
Q 2562 4091 2278 4091 
Q 2159 4091 2059 4134 
Q 1959 4178 1844 4281 
z
" transform="scale(0.015625)"/>
      <path id="DejaVuSans-78" d="M 3513 3500 
L 2247 1797 
L 3578 0 
L 2900 0 
L 1881 1375 
L 863 0 
L 184 0 
L 1544 1831 
L 300 3500 
L 978 3500 
L 1906 2253 
L 2834 3500 
L 3513 3500 
z
" transform="scale(0.015625)"/>
      <path id="DejaVuSans-2192" d="M 5050 2147 
L 5050 1866 
L 3822 638 
L 3447 1013 
L 4175 1741 
L 366 1741 
L 366 2272 
L 4175 2272 
L 3447 3000 
L 3822 3375 
L 5050 2147 
z
" transform="scale(0.015625)"/>
      <path id="DejaVuSans-66" d="M 2375 4863 
L 2375 4384 
L 1825 4384 
Q 1516 4384 1395 4259 
Q 1275 4134 1275 3809 
L 1275 3500 
L 2222 3500 
L 2222 3053 
L 1275 3053 
L 1275 0 
L 697 0 
L 697 3053 
L 147 3053 
L 147 3500 
L 697 3500 
L 697 3744 
Q 697 4328 969 4595 
Q 1241 4863 1831 4863 
L 2375 4863 
z
" transform="scale(0.015625)"/>
     </defs>
     <use xlink:href="#DejaVuSans-43"/>
     <use xlink:href="#DejaVuSans-6f" transform="translate(69.824219 0)"/>
     <use xlink:href="#DejaVuSans-6e" transform="translate(131.005859 0)"/>
     <use xlink:href="#DejaVuSans-76" transform="translate(194.384766 0)"/>
     <use xlink:href="#DejaVuSans-65" transform="translate(253.564453 0)"/>
     <use xlink:href="#DejaVuSans-72" transform="translate(315.087891 0)"/>
     <use xlink:href="#DejaVuSans-73" transform="translate(356.201172 0)"/>
     <use xlink:href="#DejaVuSans-e3" transform="translate(408.300781 0)"/>
     <use xlink:href="#DejaVuSans-6f" transform="translate(469.580078 0)"/>
     <use xlink:href="#DejaVuSans-20" transform="translate(530.761719 0)"/>
     <use xlink:href="#DejaVuSans-70" transform="translate(562.548828 0)"/>
     <use xlink:href="#DejaVuSans-69" transform="translate(626.025391 0)"/>
     <use xlink:href="#DejaVuSans-78" transform="translate(653.808594 0)"/>
     <use xlink:href="#DejaVuSans-65" transform="translate(709.863281 0)"/>
     <use xlink:href="#DejaVuSans-6c" transform="translate(771.386719 0)"/>
     <use xlink:href="#DejaVuSans-2192" transform="translate(799.169922 0)"/>
     <use xlink:href="#DejaVuSans-64" transform="translate(882.958984 0)"/>
     <use xlink:href="#DejaVuSans-61" transform="translate(946.435547 0)"/>
     <use xlink:href="#DejaVuSans-64" transform="translate(1007.714844 0)"/>
     <use xlink:href="#DejaVuSans-6f" transform="translate(1071.191406 0)"/>
     <use xlink:href="#DejaVuSans-73" transform="translate(1132.373047 0)"/>
     <use xlink:href="#DejaVuSans-20" transform="translate(1184.472656 0)"/>
     <use xlink:href="#DejaVuSans-65" transform="translate(1216.259766 0)"/>
     <use xlink:href="#DejaVuSans-20" transform="translate(1277.783203 0)"/>
     <use xlink:href="#DejaVuSans-76" transform="translate(1309.570312 0)"/>
     <use xlink:href="#DejaVuSans-65" transform="translate(1368.75 0)"/>
     <use xlink:href="#DejaVuSans-72" transform="translate(1430.273438 0)"/>
     <use xlink:href="#DejaVuSans-69" transform="translate(1471.386719 0)"/>
     <use xlink:href="#DejaVuSans-66" transform="translate(1499.169922 0)"/>
     <use xlink:href="#DejaVuSans-69" transform="translate(1534.375 0)"/>
     <use xlink:href="#DejaVuSans-63" transform="translate(1562.158203 0)"/>
     <use xlink:href="#DejaVuSans-61" transform="translate(1617.138672 0)"/>
     <use xlink:href="#DejaVuSans-e7" transform="translate(1678.417969 0)"/>
     <use xlink:href="#DejaVuSans-e3" transform="translate(1733.398438 0)"/>
     <use xlink:href="#DejaVuSans-6f" transform="translate(1794.677734 0)"/>
     <use xlink:href="#DejaVuSans-20" transform="translate(1855.859375 0)"/>
     <use xlink:href="#DejaVuSans-64" transform="translate(1887.646484 0)"/>
     <use xlink:href="#DejaVuSans-6f" transform="translate(1951.123047 0)"/>
     <use xlink:href="#DejaVuSans-73" transform="translate(2012.304688 0)"/>
     <use xlink:href="#DejaVuSans-20" transform="translate(2064.404297 0)"/>
     <use xlink:href="#DejaVuSans-65" transform="translate(2096.191406 0)"/>
     <use xlink:href="#DejaVuSans-69" transform="translate(2157.714844 0)"/>
     <use xlink:href="#DejaVuSans-78" transform="translate(2185.498047 0)"/>
     <use xlink:href="#DejaVuSans-6f" transform="translate(2241.552734 0)"/>
     <use xlink:href="#DejaVuSans-73" transform="translate(2302.734375 0)"/>
    </g>
   </g>
   <g id="patch_11">
    <path d="M 258.3 163.412116 
Q 258.3 166.669602 258.3 168.250036 
" style="fill: none; stroke: #000000; stroke-width: 1.5; stroke-linecap: round"/>
    <path d="M 260.3 164.250036 
L 258.3 168.250036 
L 256.3 164.250036 
z
" style="fill: #1f77b4; stroke: #000000; stroke-width: 1.5; stroke-linecap: round"/>
   </g>
   <g id="text_7">
    <!-- 3 -->
    <g transform="translate(77.659531 210.838297) scale(0.14 -0.14)">
     <use xlink:href="#DejaVuSans-Bold-33"/>
    </g>
   </g>
   <g id="text_8">
    <!-- Engenharia reversa -->
    <g transform="translate(117.684 203.229892) scale(0.12 -0.12)">
     <defs>
      <path id="DejaVuSans-Bold-45" d="M 588 4666 
L 3834 4666 
L 3834 3756 
L 1791 3756 
L 1791 2888 
L 3713 2888 
L 3713 1978 
L 1791 1978 
L 1791 909 
L 3903 909 
L 3903 0 
L 588 0 
L 588 4666 
z
" transform="scale(0.015625)"/>
      <path id="DejaVuSans-Bold-6e" d="M 4056 2131 
L 4056 0 
L 2931 0 
L 2931 347 
L 2931 1631 
Q 2931 2084 2911 2256 
Q 2891 2428 2841 2509 
Q 2775 2619 2662 2680 
Q 2550 2741 2406 2741 
Q 2056 2741 1856 2470 
Q 1656 2200 1656 1722 
L 1656 0 
L 538 0 
L 538 3500 
L 1656 3500 
L 1656 2988 
Q 1909 3294 2193 3439 
Q 2478 3584 2822 3584 
Q 3428 3584 3742 3212 
Q 4056 2841 4056 2131 
z
" transform="scale(0.015625)"/>
      <path id="DejaVuSans-Bold-68" d="M 4056 2131 
L 4056 0 
L 2931 0 
L 2931 347 
L 2931 1625 
Q 2931 2084 2911 2256 
Q 2891 2428 2841 2509 
Q 2775 2619 2662 2680 
Q 2550 2741 2406 2741 
Q 2056 2741 1856 2470 
Q 1656 2200 1656 1722 
L 1656 0 
L 538 0 
L 538 4863 
L 1656 4863 
L 1656 2988 
Q 1909 3294 2193 3439 
Q 2478 3584 2822 3584 
Q 3428 3584 3742 3212 
Q 4056 2841 4056 2131 
z
" transform="scale(0.015625)"/>
      <path id="DejaVuSans-Bold-76" d="M 97 3500 
L 1216 3500 
L 2088 1081 
L 2956 3500 
L 4078 3500 
L 2700 0 
L 1472 0 
L 97 3500 
z
" transform="scale(0.015625)"/>
      <path id="DejaVuSans-Bold-73" d="M 3272 3391 
L 3272 2541 
Q 2913 2691 2578 2766 
Q 2244 2841 1947 2841 
Q 1628 2841 1473 2761 
Q 1319 2681 1319 2516 
Q 1319 2381 1436 2309 
Q 1553 2238 1856 2203 
L 2053 2175 
Q 2913 2066 3209 1816 
Q 3506 1566 3506 1031 
Q 3506 472 3093 190 
Q 2681 -91 1863 -91 
Q 1516 -91 1145 -36 
Q 775 19 384 128 
L 384 978 
Q 719 816 1070 734 
Q 1422 653 1784 653 
Q 2113 653 2278 743 
Q 2444 834 2444 1013 
Q 2444 1163 2330 1236 
Q 2216 1309 1875 1350 
L 1678 1375 
Q 931 1469 631 1722 
Q 331 1975 331 2491 
Q 331 3047 712 3315 
Q 1094 3584 1881 3584 
Q 2191 3584 2531 3537 
Q 2872 3491 3272 3391 
z
" transform="scale(0.015625)"/>
     </defs>
     <use xlink:href="#DejaVuSans-Bold-45"/>
     <use xlink:href="#DejaVuSans-Bold-6e" transform="translate(68.310547 0)"/>
     <use xlink:href="#DejaVuSans-Bold-67" transform="translate(139.501953 0)"/>
     <use xlink:href="#DejaVuSans-Bold-65" transform="translate(211.083984 0)"/>
     <use xlink:href="#DejaVuSans-Bold-6e" transform="translate(278.90625 0)"/>
     <use xlink:href="#DejaVuSans-Bold-68" transform="translate(350.097656 0)"/>
     <use xlink:href="#DejaVuSans-Bold-61" transform="translate(421.289062 0)"/>
     <use xlink:href="#DejaVuSans-Bold-72" transform="translate(488.769531 0)"/>
     <use xlink:href="#DejaVuSans-Bold-69" transform="translate(538.085938 0)"/>
     <use xlink:href="#DejaVuSans-Bold-61" transform="translate(572.363281 0)"/>
     <use xlink:href="#DejaVuSans-Bold-20" transform="translate(639.84375 0)"/>
     <use xlink:href="#DejaVuSans-Bold-72" transform="translate(674.658203 0)"/>
     <use xlink:href="#DejaVuSans-Bold-65" transform="translate(723.974609 0)"/>
     <use xlink:href="#DejaVuSans-Bold-76" transform="translate(791.796875 0)"/>
     <use xlink:href="#DejaVuSans-Bold-65" transform="translate(856.982422 0)"/>
     <use xlink:href="#DejaVuSans-Bold-72" transform="translate(924.804688 0)"/>
     <use xlink:href="#DejaVuSans-Bold-73" transform="translate(974.121094 0)"/>
     <use xlink:href="#DejaVuSans-Bold-61" transform="translate(1033.642578 0)"/>
    </g>
   </g>
   <g id="text_9">
    <!-- A=232 cm², escala N×A, temperatura e unidades -->
    <g transform="translate(117.684 218.146134) scale(0.1 -0.1)">
     <defs>
      <path id="DejaVuSans-41" d="M 2188 4044 
L 1331 1722 
L 3047 1722 
L 2188 4044 
z
M 1831 4666 
L 2547 4666 
L 4325 0 
L 3669 0 
L 3244 1197 
L 1141 1197 
L 716 0 
L 50 0 
L 1831 4666 
z
" transform="scale(0.015625)"/>
      <path id="DejaVuSans-3d" d="M 678 2906 
L 4684 2906 
L 4684 2381 
L 678 2381 
L 678 2906 
z
M 678 1631 
L 4684 1631 
L 4684 1100 
L 678 1100 
L 678 1631 
z
" transform="scale(0.015625)"/>
      <path id="DejaVuSans-32" d="M 1228 531 
L 3431 531 
L 3431 0 
L 469 0 
L 469 531 
Q 828 903 1448 1529 
Q 2069 2156 2228 2338 
Q 2531 2678 2651 2914 
Q 2772 3150 2772 3378 
Q 2772 3750 2511 3984 
Q 2250 4219 1831 4219 
Q 1534 4219 1204 4116 
Q 875 4013 500 3803 
L 500 4441 
Q 881 4594 1212 4672 
Q 1544 4750 1819 4750 
Q 2544 4750 2975 4387 
Q 3406 4025 3406 3419 
Q 3406 3131 3298 2873 
Q 3191 2616 2906 2266 
Q 2828 2175 2409 1742 
Q 1991 1309 1228 531 
z
" transform="scale(0.015625)"/>
      <path id="DejaVuSans-33" d="M 2597 2516 
Q 3050 2419 3304 2112 
Q 3559 1806 3559 1356 
Q 3559 666 3084 287 
Q 2609 -91 1734 -91 
Q 1441 -91 1130 -33 
Q 819 25 488 141 
L 488 750 
Q 750 597 1062 519 
Q 1375 441 1716 441 
Q 2309 441 2620 675 
Q 2931 909 2931 1356 
Q 2931 1769 2642 2001 
Q 2353 2234 1838 2234 
L 1294 2234 
L 1294 2753 
L 1863 2753 
Q 2328 2753 2575 2939 
Q 2822 3125 2822 3475 
Q 2822 3834 2567 4026 
Q 2313 4219 1838 4219 
Q 1578 4219 1281 4162 
Q 984 4106 628 3988 
L 628 4550 
Q 988 4650 1302 4700 
Q 1616 4750 1894 4750 
Q 2613 4750 3031 4423 
Q 3450 4097 3450 3541 
Q 3450 3153 3228 2886 
Q 3006 2619 2597 2516 
z
" transform="scale(0.015625)"/>
      <path id="DejaVuSans-b2" d="M 838 2444 
L 2163 2444 
L 2163 2088 
L 294 2088 
L 294 2431 
Q 400 2528 597 2703 
Q 1672 3656 1672 3950 
Q 1672 4156 1509 4282 
Q 1347 4409 1081 4409 
Q 919 4409 728 4354 
Q 538 4300 313 4191 
L 313 4575 
Q 553 4663 761 4706 
Q 969 4750 1147 4750 
Q 1600 4750 1872 4544 
Q 2144 4338 2144 4000 
Q 2144 3566 1109 2678 
Q 934 2528 838 2444 
z
" transform="scale(0.015625)"/>
      <path id="DejaVuSans-4e" d="M 628 4666 
L 1478 4666 
L 3547 763 
L 3547 4666 
L 4159 4666 
L 4159 0 
L 3309 0 
L 1241 3903 
L 1241 0 
L 628 0 
L 628 4666 
z
" transform="scale(0.015625)"/>
      <path id="DejaVuSans-d7" d="M 4488 3438 
L 3059 2003 
L 4488 575 
L 4116 197 
L 2681 1631 
L 1247 197 
L 878 575 
L 2303 2003 
L 878 3438 
L 1247 3816 
L 2681 2381 
L 4116 3816 
L 4488 3438 
z
" transform="scale(0.015625)"/>
     </defs>
     <use xlink:href="#DejaVuSans-41"/>
     <use xlink:href="#DejaVuSans-3d" transform="translate(68.408203 0)"/>
     <use xlink:href="#DejaVuSans-32" transform="translate(152.197266 0)"/>
     <use xlink:href="#DejaVuSans-33" transform="translate(215.820312 0)"/>
     <use xlink:href="#DejaVuSans-32" transform="translate(279.443359 0)"/>
     <use xlink:href="#DejaVuSans-20" transform="translate(343.066406 0)"/>
     <use xlink:href="#DejaVuSans-63" transform="translate(374.853516 0)"/>
     <use xlink:href="#DejaVuSans-6d" transform="translate(429.833984 0)"/>
     <use xlink:href="#DejaVuSans-b2" transform="translate(527.246094 0)"/>
     <use xlink:href="#DejaVuSans-2c" transform="translate(567.333984 0)"/>
     <use xlink:href="#DejaVuSans-20" transform="translate(599.121094 0)"/>
     <use xlink:href="#DejaVuSans-65" transform="translate(630.908203 0)"/>
     <use xlink:href="#DejaVuSans-73" transform="translate(692.431641 0)"/>
     <use xlink:href="#DejaVuSans-63" transform="translate(744.53125 0)"/>
     <use xlink:href="#DejaVuSans-61" transform="translate(799.511719 0)"/>
     <use xlink:href="#DejaVuSans-6c" transform="translate(860.791016 0)"/>
     <use xlink:href="#DejaVuSans-61" transform="translate(888.574219 0)"/>
     <use xlink:href="#DejaVuSans-20" transform="translate(949.853516 0)"/>
     <use xlink:href="#DejaVuSans-4e" transform="translate(981.640625 0)"/>
     <use xlink:href="#DejaVuSans-d7" transform="translate(1056.445312 0)"/>
     <use xlink:href="#DejaVuSans-41" transform="translate(1140.234375 0)"/>
     <use xlink:href="#DejaVuSans-2c" transform="translate(1208.642578 0)"/>
     <use xlink:href="#DejaVuSans-20" transform="translate(1240.429688 0)"/>
     <use xlink:href="#DejaVuSans-74" transform="translate(1272.216797 0)"/>
     <use xlink:href="#DejaVuSans-65" transform="translate(1311.425781 0)"/>
     <use xlink:href="#DejaVuSans-6d" transform="translate(1372.949219 0)"/>
     <use xlink:href="#DejaVuSans-70" transform="translate(1470.361328 0)"/>
     <use xlink:href="#DejaVuSans-65" transform="translate(1533.837891 0)"/>
     <use xlink:href="#DejaVuSans-72" transform="translate(1595.361328 0)"/>
     <use xlink:href="#DejaVuSans-61" transform="translate(1636.474609 0)"/>
     <use xlink:href="#DejaVuSans-74" transform="translate(1697.753906 0)"/>
     <use xlink:href="#DejaVuSans-75" transform="translate(1736.962891 0)"/>
     <use xlink:href="#DejaVuSans-72" transform="translate(1800.341797 0)"/>
     <use xlink:href="#DejaVuSans-61" transform="translate(1841.455078 0)"/>
     <use xlink:href="#DejaVuSans-20" transform="translate(1902.734375 0)"/>
     <use xlink:href="#DejaVuSans-65" transform="translate(1934.521484 0)"/>
     <use xlink:href="#DejaVuSans-20" transform="translate(1996.044922 0)"/>
     <use xlink:href="#DejaVuSans-75" transform="translate(2027.832031 0)"/>
     <use xlink:href="#DejaVuSans-6e" transform="translate(2091.210938 0)"/>
     <use xlink:href="#DejaVuSans-69" transform="translate(2154.589844 0)"/>
     <use xlink:href="#DejaVuSans-64" transform="translate(2182.373047 0)"/>
     <use xlink:href="#DejaVuSans-61" transform="translate(2245.849609 0)"/>
     <use xlink:href="#DejaVuSans-64" transform="translate(2307.128906 0)"/>
     <use xlink:href="#DejaVuSans-65" transform="translate(2370.605469 0)"/>
     <use xlink:href="#DejaVuSans-73" transform="translate(2432.128906 0)"/>
    </g>
   </g>
   <g id="patch_12">
    <path d="M 258.3 233.508668 
Q 258.3 236.766154 258.3 238.346588 
" style="fill: none; stroke: #000000; stroke-width: 1.5; stroke-linecap: round"/>
    <path d="M 260.3 234.346588 
L 258.3 238.346588 
L 256.3 234.346588 
z
" style="fill: #1f77b4; stroke: #000000; stroke-width: 1.5; stroke-linecap: round"/>
   </g>
   <g id="text_10">
    <!-- 4 -->
    <g transform="translate(77.659531 280.934849) scale(0.14 -0.14)">
     <defs>
      <path id="DejaVuSans-Bold-34" d="M 2356 3675 
L 1038 1722 
L 2356 1722 
L 2356 3675 
z
M 2156 4666 
L 3494 4666 
L 3494 1722 
L 4159 1722 
L 4159 850 
L 3494 850 
L 3494 0 
L 2356 0 
L 2356 850 
L 288 850 
L 288 1881 
L 2156 4666 
z
" transform="scale(0.015625)"/>
     </defs>
     <use xlink:href="#DejaVuSans-Bold-34"/>
    </g>
   </g>
   <g id="text_11">
    <!-- Vetor inicial e limites -->
    <g transform="translate(117.684 273.373319) scale(0.12 -0.12)">
     <defs>
      <path id="DejaVuSans-Bold-56" d="M 31 4666 
L 1241 4666 
L 2478 1222 
L 3713 4666 
L 4922 4666 
L 3194 0 
L 1759 0 
L 31 4666 
z
" transform="scale(0.015625)"/>
      <path id="DejaVuSans-Bold-63" d="M 3366 3391 
L 3366 2478 
Q 3138 2634 2908 2709 
Q 2678 2784 2431 2784 
Q 1963 2784 1702 2511 
Q 1441 2238 1441 1747 
Q 1441 1256 1702 982 
Q 1963 709 2431 709 
Q 2694 709 2930 787 
Q 3166 866 3366 1019 
L 3366 103 
Q 3103 6 2833 -42 
Q 2563 -91 2291 -91 
Q 1344 -91 809 395 
Q 275 881 275 1747 
Q 275 2613 809 3098 
Q 1344 3584 2291 3584 
Q 2566 3584 2833 3536 
Q 3100 3488 3366 3391 
z
" transform="scale(0.015625)"/>
      <path id="DejaVuSans-Bold-6d" d="M 3781 2919 
Q 3994 3244 4286 3414 
Q 4578 3584 4928 3584 
Q 5531 3584 5847 3212 
Q 6163 2841 6163 2131 
L 6163 0 
L 5038 0 
L 5038 1825 
Q 5041 1866 5042 1909 
Q 5044 1953 5044 2034 
Q 5044 2406 4934 2573 
Q 4825 2741 4581 2741 
Q 4263 2741 4089 2478 
Q 3916 2216 3909 1719 
L 3909 0 
L 2784 0 
L 2784 1825 
Q 2784 2406 2684 2573 
Q 2584 2741 2328 2741 
Q 2006 2741 1831 2477 
Q 1656 2213 1656 1722 
L 1656 0 
L 531 0 
L 531 3500 
L 1656 3500 
L 1656 2988 
Q 1863 3284 2130 3434 
Q 2397 3584 2719 3584 
Q 3081 3584 3359 3409 
Q 3638 3234 3781 2919 
z
" transform="scale(0.015625)"/>
     </defs>
     <use xlink:href="#DejaVuSans-Bold-56"/>
     <use xlink:href="#DejaVuSans-Bold-65" transform="translate(71.892578 0)"/>
     <use xlink:href="#DejaVuSans-Bold-74" transform="translate(139.714844 0)"/>
     <use xlink:href="#DejaVuSans-Bold-6f" transform="translate(187.517578 0)"/>
     <use xlink:href="#DejaVuSans-Bold-72" transform="translate(256.21875 0)"/>
     <use xlink:href="#DejaVuSans-Bold-20" transform="translate(305.535156 0)"/>
     <use xlink:href="#DejaVuSans-Bold-69" transform="translate(340.349609 0)"/>
     <use xlink:href="#DejaVuSans-Bold-6e" transform="translate(374.626953 0)"/>
     <use xlink:href="#DejaVuSans-Bold-69" transform="translate(445.818359 0)"/>
     <use xlink:href="#DejaVuSans-Bold-63" transform="translate(480.095703 0)"/>
     <use xlink:href="#DejaVuSans-Bold-69" transform="translate(539.373047 0)"/>
     <use xlink:href="#DejaVuSans-Bold-61" transform="translate(573.650391 0)"/>
     <use xlink:href="#DejaVuSans-Bold-6c" transform="translate(641.130859 0)"/>
     <use xlink:href="#DejaVuSans-Bold-20" transform="translate(675.408203 0)"/>
     <use xlink:href="#DejaVuSans-Bold-65" transform="translate(710.222656 0)"/>
     <use xlink:href="#DejaVuSans-Bold-20" transform="translate(778.044922 0)"/>
     <use xlink:href="#DejaVuSans-Bold-6c" transform="translate(812.859375 0)"/>
     <use xlink:href="#DejaVuSans-Bold-69" transform="translate(847.136719 0)"/>
     <use xlink:href="#DejaVuSans-Bold-6d" transform="translate(881.414062 0)"/>
     <use xlink:href="#DejaVuSans-Bold-69" transform="translate(985.613281 0)"/>
     <use xlink:href="#DejaVuSans-Bold-74" transform="translate(1019.890625 0)"/>
     <use xlink:href="#DejaVuSans-Bold-65" transform="translate(1067.693359 0)"/>
     <use xlink:href="#DejaVuSans-Bold-73" transform="translate(1135.515625 0)"/>
    </g>
   </g>
   <g id="text_12">
    <!-- Coeficientes publicados + estimativas físicas -->
    <g transform="translate(117.684 288.442685) scale(0.1 -0.1)">
     <defs>
      <path id="DejaVuSans-2b" d="M 2944 4013 
L 2944 2272 
L 4684 2272 
L 4684 1741 
L 2944 1741 
L 2944 0 
L 2419 0 
L 2419 1741 
L 678 1741 
L 678 2272 
L 2419 2272 
L 2419 4013 
L 2944 4013 
z
" transform="scale(0.015625)"/>
      <path id="DejaVuSans-ed" d="M 1322 5119 
L 1944 5119 
L 926 3944 
L 447 3944 
L 1322 5119 
z
M 603 3500 
L 1178 3500 
L 1178 0 
L 603 0 
L 603 3500 
z
M 891 3584 
L 891 3584 
z
" transform="scale(0.015625)"/>
     </defs>
     <use xlink:href="#DejaVuSans-43"/>
     <use xlink:href="#DejaVuSans-6f" transform="translate(69.824219 0)"/>
     <use xlink:href="#DejaVuSans-65" transform="translate(131.005859 0)"/>
     <use xlink:href="#DejaVuSans-66" transform="translate(192.529297 0)"/>
     <use xlink:href="#DejaVuSans-69" transform="translate(227.734375 0)"/>
     <use xlink:href="#DejaVuSans-63" transform="translate(255.517578 0)"/>
     <use xlink:href="#DejaVuSans-69" transform="translate(310.498047 0)"/>
     <use xlink:href="#DejaVuSans-65" transform="translate(338.28125 0)"/>
     <use xlink:href="#DejaVuSans-6e" transform="translate(399.804688 0)"/>
     <use xlink:href="#DejaVuSans-74" transform="translate(463.183594 0)"/>
     <use xlink:href="#DejaVuSans-65" transform="translate(502.392578 0)"/>
     <use xlink:href="#DejaVuSans-73" transform="translate(563.916016 0)"/>
     <use xlink:href="#DejaVuSans-20" transform="translate(616.015625 0)"/>
     <use xlink:href="#DejaVuSans-70" transform="translate(647.802734 0)"/>
     <use xlink:href="#DejaVuSans-75" transform="translate(711.279297 0)"/>
     <use xlink:href="#DejaVuSans-62" transform="translate(774.658203 0)"/>
     <use xlink:href="#DejaVuSans-6c" transform="translate(838.134766 0)"/>
     <use xlink:href="#DejaVuSans-69" transform="translate(865.917969 0)"/>
     <use xlink:href="#DejaVuSans-63" transform="translate(893.701172 0)"/>
     <use xlink:href="#DejaVuSans-61" transform="translate(948.681641 0)"/>
     <use xlink:href="#DejaVuSans-64" transform="translate(1009.960938 0)"/>
     <use xlink:href="#DejaVuSans-6f" transform="translate(1073.4375 0)"/>
     <use xlink:href="#DejaVuSans-73" transform="translate(1134.619141 0)"/>
     <use xlink:href="#DejaVuSans-20" transform="translate(1186.71875 0)"/>
     <use xlink:href="#DejaVuSans-2b" transform="translate(1218.505859 0)"/>
     <use xlink:href="#DejaVuSans-20" transform="translate(1302.294922 0)"/>
     <use xlink:href="#DejaVuSans-65" transform="translate(1334.082031 0)"/>
     <use xlink:href="#DejaVuSans-73" transform="translate(1395.605469 0)"/>
     <use xlink:href="#DejaVuSans-74" transform="translate(1447.705078 0)"/>
     <use xlink:href="#DejaVuSans-69" transform="translate(1486.914062 0)"/>
     <use xlink:href="#DejaVuSans-6d" transform="translate(1514.697266 0)"/>
     <use xlink:href="#DejaVuSans-61" transform="translate(1612.109375 0)"/>
     <use xlink:href="#DejaVuSans-74" transform="translate(1673.388672 0)"/>
     <use xlink:href="#DejaVuSans-69" transform="translate(1712.597656 0)"/>
     <use xlink:href="#DejaVuSans-76" transform="translate(1740.380859 0)"/>
     <use xlink:href="#DejaVuSans-61" transform="translate(1799.560547 0)"/>
     <use xlink:href="#DejaVuSans-73" transform="translate(1860.839844 0)"/>
     <use xlink:href="#DejaVuSans-20" transform="translate(1912.939453 0)"/>
     <use xlink:href="#DejaVuSans-66" transform="translate(1944.726562 0)"/>
     <use xlink:href="#DejaVuSans-ed" transform="translate(1979.931641 0)"/>
     <use xlink:href="#DejaVuSans-73" transform="translate(2007.714844 0)"/>
     <use xlink:href="#DejaVuSans-69" transform="translate(2059.814453 0)"/>
     <use xlink:href="#DejaVuSans-63" transform="translate(2087.597656 0)"/>
     <use xlink:href="#DejaVuSans-61" transform="translate(2142.578125 0)"/>
     <use xlink:href="#DejaVuSans-73" transform="translate(2203.857422 0)"/>
    </g>
   </g>
   <g id="patch_13">
    <path d="M 258.3 303.60522 
Q 258.3 306.862705 258.3 308.44314 
" style="fill: none; stroke: #000000; stroke-width: 1.5; stroke-linecap: round"/>
    <path d="M 260.3 304.44314 
L 258.3 308.44314 
L 256.3 304.44314 
z
" style="fill: #1f77b4; stroke: #000000; stroke-width: 1.5; stroke-linecap: round"/>
   </g>
   <g id="text_13">
    <!-- 5 -->
    <g transform="translate(77.659531 351.031401) scale(0.14 -0.14)">
     <defs>
      <path id="DejaVuSans-Bold-35" d="M 678 4666 
L 3669 4666 
L 3669 3781 
L 1638 3781 
L 1638 3059 
Q 1775 3097 1914 3117 
Q 2053 3138 2203 3138 
Q 3056 3138 3531 2711 
Q 4006 2284 4006 1522 
Q 4006 766 3489 337 
Q 2972 -91 2053 -91 
Q 1656 -91 1267 -14 
Q 878 63 494 219 
L 494 1166 
Q 875 947 1217 837 
Q 1559 728 1863 728 
Q 2300 728 2551 942 
Q 2803 1156 2803 1522 
Q 2803 1891 2551 2103 
Q 2300 2316 1863 2316 
Q 1603 2316 1309 2248 
Q 1016 2181 678 2041 
L 678 4666 
z
" transform="scale(0.015625)"/>
     </defs>
     <use xlink:href="#DejaVuSans-Bold-35"/>
    </g>
   </g>
   <g id="text_14">
    <!-- Otimização primária -->
    <g transform="translate(117.684 343.709871) scale(0.12 -0.12)">
     <defs>
      <path id="DejaVuSans-Bold-4f" d="M 2719 3878 
Q 2169 3878 1866 3472 
Q 1563 3066 1563 2328 
Q 1563 1594 1866 1187 
Q 2169 781 2719 781 
Q 3272 781 3575 1187 
Q 3878 1594 3878 2328 
Q 3878 3066 3575 3472 
Q 3272 3878 2719 3878 
z
M 2719 4750 
Q 3844 4750 4481 4106 
Q 5119 3463 5119 2328 
Q 5119 1197 4481 553 
Q 3844 -91 2719 -91 
Q 1597 -91 958 553 
Q 319 1197 319 2328 
Q 319 3463 958 4106 
Q 1597 4750 2719 4750 
z
" transform="scale(0.015625)"/>
      <path id="DejaVuSans-Bold-70" d="M 1656 506 
L 1656 -1331 
L 538 -1331 
L 538 3500 
L 1656 3500 
L 1656 2988 
Q 1888 3294 2169 3439 
Q 2450 3584 2816 3584 
Q 3463 3584 3878 3070 
Q 4294 2556 4294 1747 
Q 4294 938 3878 423 
Q 3463 -91 2816 -91 
Q 2450 -91 2169 54 
Q 1888 200 1656 506 
z
M 2400 2772 
Q 2041 2772 1848 2508 
Q 1656 2244 1656 1747 
Q 1656 1250 1848 986 
Q 2041 722 2400 722 
Q 2759 722 2948 984 
Q 3138 1247 3138 1747 
Q 3138 2247 2948 2509 
Q 2759 2772 2400 2772 
z
" transform="scale(0.015625)"/>
      <path id="DejaVuSans-Bold-e1" d="M 2106 1575 
Q 1756 1575 1579 1456 
Q 1403 1338 1403 1106 
Q 1403 894 1545 773 
Q 1688 653 1941 653 
Q 2256 653 2472 879 
Q 2688 1106 2688 1447 
L 2688 1575 
L 2106 1575 
z
M 3816 1997 
L 3816 0 
L 2688 0 
L 2688 519 
Q 2463 200 2181 54 
Q 1900 -91 1497 -91 
Q 953 -91 614 226 
Q 275 544 275 1050 
Q 275 1666 698 1953 
Q 1122 2241 2028 2241 
L 2688 2241 
L 2688 2328 
Q 2688 2594 2478 2717 
Q 2269 2841 1825 2841 
Q 1466 2841 1156 2769 
Q 847 2697 581 2553 
L 581 3406 
Q 941 3494 1303 3539 
Q 1666 3584 2028 3584 
Q 2975 3584 3395 3211 
Q 3816 2838 3816 1997 
z
M 2606 5119 
L 3490 5119 
L 2337 3944 
L 1725 3944 
L 2606 5119 
z
" transform="scale(0.015625)"/>
     </defs>
     <use xlink:href="#DejaVuSans-Bold-4f"/>
     <use xlink:href="#DejaVuSans-Bold-74" transform="translate(85.009766 0)"/>
     <use xlink:href="#DejaVuSans-Bold-69" transform="translate(132.8125 0)"/>
     <use xlink:href="#DejaVuSans-Bold-6d" transform="translate(167.089844 0)"/>
     <use xlink:href="#DejaVuSans-Bold-69" transform="translate(271.289062 0)"/>
     <use xlink:href="#DejaVuSans-Bold-7a" transform="translate(305.566406 0)"/>
     <use xlink:href="#DejaVuSans-Bold-61" transform="translate(363.769531 0)"/>
     <use xlink:href="#DejaVuSans-Bold-e7" transform="translate(431.25 0)"/>
     <use xlink:href="#DejaVuSans-Bold-e3" transform="translate(490.527344 0)"/>
     <use xlink:href="#DejaVuSans-Bold-6f" transform="translate(558.007812 0)"/>
     <use xlink:href="#DejaVuSans-Bold-20" transform="translate(626.708984 0)"/>
     <use xlink:href="#DejaVuSans-Bold-70" transform="translate(661.523438 0)"/>
     <use xlink:href="#DejaVuSans-Bold-72" transform="translate(733.105469 0)"/>
     <use xlink:href="#DejaVuSans-Bold-69" transform="translate(782.421875 0)"/>
     <use xlink:href="#DejaVuSans-Bold-6d" transform="translate(816.699219 0)"/>
     <use xlink:href="#DejaVuSans-Bold-e1" transform="translate(920.898438 0)"/>
     <use xlink:href="#DejaVuSans-Bold-72" transform="translate(988.378906 0)"/>
     <use xlink:href="#DejaVuSans-Bold-69" transform="translate(1037.695312 0)"/>
     <use xlink:href="#DejaVuSans-Bold-61" transform="translate(1071.972656 0)"/>
    </g>
   </g>
   <g id="text_15">
    <!-- 4 curvas de tensão; multistart + mínimos quadrados -->
    <g transform="translate(117.684 358.539237) scale(0.1 -0.1)">
     <defs>
      <path id="DejaVuSans-34" d="M 2419 4116 
L 825 1625 
L 2419 1625 
L 2419 4116 
z
M 2253 4666 
L 3047 4666 
L 3047 1625 
L 3713 1625 
L 3713 1100 
L 3047 1100 
L 3047 0 
L 2419 0 
L 2419 1100 
L 313 1100 
L 313 1709 
L 2253 4666 
z
" transform="scale(0.015625)"/>
      <path id="DejaVuSans-3b" d="M 750 3309 
L 1409 3309 
L 1409 2516 
L 750 2516 
L 750 3309 
z
M 750 794 
L 1409 794 
L 1409 256 
L 897 -744 
L 494 -744 
L 750 256 
L 750 794 
z
" transform="scale(0.015625)"/>
     </defs>
     <use xlink:href="#DejaVuSans-34"/>
     <use xlink:href="#DejaVuSans-20" transform="translate(63.623047 0)"/>
     <use xlink:href="#DejaVuSans-63" transform="translate(95.410156 0)"/>
     <use xlink:href="#DejaVuSans-75" transform="translate(150.390625 0)"/>
     <use xlink:href="#DejaVuSans-72" transform="translate(213.769531 0)"/>
     <use xlink:href="#DejaVuSans-76" transform="translate(254.882812 0)"/>
     <use xlink:href="#DejaVuSans-61" transform="translate(314.0625 0)"/>
     <use xlink:href="#DejaVuSans-73" transform="translate(375.341797 0)"/>
     <use xlink:href="#DejaVuSans-20" transform="translate(427.441406 0)"/>
     <use xlink:href="#DejaVuSans-64" transform="translate(459.228516 0)"/>
     <use xlink:href="#DejaVuSans-65" transform="translate(522.705078 0)"/>
     <use xlink:href="#DejaVuSans-20" transform="translate(584.228516 0)"/>
     <use xlink:href="#DejaVuSans-74" transform="translate(616.015625 0)"/>
     <use xlink:href="#DejaVuSans-65" transform="translate(655.224609 0)"/>
     <use xlink:href="#DejaVuSans-6e" transform="translate(716.748047 0)"/>
     <use xlink:href="#DejaVuSans-73" transform="translate(780.126953 0)"/>
     <use xlink:href="#DejaVuSans-e3" transform="translate(832.226562 0)"/>
     <use xlink:href="#DejaVuSans-6f" transform="translate(893.505859 0)"/>
     <use xlink:href="#DejaVuSans-3b" transform="translate(954.6875 0)"/>
     <use xlink:href="#DejaVuSans-20" transform="translate(988.378906 0)"/>
     <use xlink:href="#DejaVuSans-6d" transform="translate(1020.166016 0)"/>
     <use xlink:href="#DejaVuSans-75" transform="translate(1117.578125 0)"/>
     <use xlink:href="#DejaVuSans-6c" transform="translate(1180.957031 0)"/>
     <use xlink:href="#DejaVuSans-74" transform="translate(1208.740234 0)"/>
     <use xlink:href="#DejaVuSans-69" transform="translate(1247.949219 0)"/>
     <use xlink:href="#DejaVuSans-73" transform="translate(1275.732422 0)"/>
     <use xlink:href="#DejaVuSans-74" transform="translate(1327.832031 0)"/>
     <use xlink:href="#DejaVuSans-61" transform="translate(1367.041016 0)"/>
     <use xlink:href="#DejaVuSans-72" transform="translate(1428.320312 0)"/>
     <use xlink:href="#DejaVuSans-74" transform="translate(1469.433594 0)"/>
     <use xlink:href="#DejaVuSans-20" transform="translate(1508.642578 0)"/>
     <use xlink:href="#DejaVuSans-2b" transform="translate(1540.429688 0)"/>
     <use xlink:href="#DejaVuSans-20" transform="translate(1624.21875 0)"/>
     <use xlink:href="#DejaVuSans-6d" transform="translate(1656.005859 0)"/>
     <use xlink:href="#DejaVuSans-ed" transform="translate(1753.417969 0)"/>
     <use xlink:href="#DejaVuSans-6e" transform="translate(1781.201172 0)"/>
     <use xlink:href="#DejaVuSans-69" transform="translate(1844.580078 0)"/>
     <use xlink:href="#DejaVuSans-6d" transform="translate(1872.363281 0)"/>
     <use xlink:href="#DejaVuSans-6f" transform="translate(1969.775391 0)"/>
     <use xlink:href="#DejaVuSans-73" transform="translate(2030.957031 0)"/>
     <use xlink:href="#DejaVuSans-20" transform="translate(2083.056641 0)"/>
     <use xlink:href="#DejaVuSans-71" transform="translate(2114.84375 0)"/>
     <use xlink:href="#DejaVuSans-75" transform="translate(2178.320312 0)"/>
     <use xlink:href="#DejaVuSans-61" transform="translate(2241.699219 0)"/>
     <use xlink:href="#DejaVuSans-64" transform="translate(2302.978516 0)"/>
     <use xlink:href="#DejaVuSans-72" transform="translate(2366.455078 0)"/>
     <use xlink:href="#DejaVuSans-61" transform="translate(2407.568359 0)"/>
     <use xlink:href="#DejaVuSans-64" transform="translate(2468.847656 0)"/>
     <use xlink:href="#DejaVuSans-6f" transform="translate(2532.324219 0)"/>
     <use xlink:href="#DejaVuSans-73" transform="translate(2593.505859 0)"/>
    </g>
   </g>
   <g id="patch_14">
    <path d="M 258.3 373.701772 
Q 258.3 376.959257 258.3 378.539692 
" style="fill: none; stroke: #000000; stroke-width: 1.5; stroke-linecap: round"/>
    <path d="M 260.3 374.539692 
L 258.3 378.539692 
L 256.3 374.539692 
z
" style="fill: #1f77b4; stroke: #000000; stroke-width: 1.5; stroke-linecap: round"/>
   </g>
   <g id="text_16">
    <!-- 6 -->
    <g transform="translate(77.659531 421.127953) scale(0.14 -0.14)">
     <defs>
      <path id="DejaVuSans-Bold-36" d="M 2316 2303 
Q 2000 2303 1842 2098 
Q 1684 1894 1684 1484 
Q 1684 1075 1842 870 
Q 2000 666 2316 666 
Q 2634 666 2792 870 
Q 2950 1075 2950 1484 
Q 2950 1894 2792 2098 
Q 2634 2303 2316 2303 
z
M 3803 4544 
L 3803 3681 
Q 3506 3822 3243 3889 
Q 2981 3956 2731 3956 
Q 2194 3956 1894 3657 
Q 1594 3359 1544 2772 
Q 1750 2925 1990 3001 
Q 2231 3078 2516 3078 
Q 3231 3078 3670 2659 
Q 4109 2241 4109 1563 
Q 4109 813 3618 361 
Q 3128 -91 2303 -91 
Q 1394 -91 895 523 
Q 397 1138 397 2266 
Q 397 3422 980 4083 
Q 1563 4744 2578 4744 
Q 2900 4744 3203 4694 
Q 3506 4644 3803 4544 
z
" transform="scale(0.015625)"/>
     </defs>
     <use xlink:href="#DejaVuSans-Bold-36"/>
    </g>
   </g>
   <g id="text_17">
    <!-- Diagnóstico -->
    <g transform="translate(117.684 413.759547) scale(0.12 -0.12)">
     <defs>
      <path id="DejaVuSans-Bold-f3" d="M 2203 2784 
Q 1831 2784 1636 2517 
Q 1441 2250 1441 1747 
Q 1441 1244 1636 976 
Q 1831 709 2203 709 
Q 2569 709 2762 976 
Q 2956 1244 2956 1747 
Q 2956 2250 2762 2517 
Q 2569 2784 2203 2784 
z
M 2203 3584 
Q 3106 3584 3614 3096 
Q 4122 2609 4122 1747 
Q 4122 884 3614 396 
Q 3106 -91 2203 -91 
Q 1297 -91 786 396 
Q 275 884 275 1747 
Q 275 2609 786 3096 
Q 1297 3584 2203 3584 
z
M 2694 5119 
L 3578 5119 
L 2425 3944 
L 1813 3944 
L 2694 5119 
z
" transform="scale(0.015625)"/>
     </defs>
     <use xlink:href="#DejaVuSans-Bold-44"/>
     <use xlink:href="#DejaVuSans-Bold-69" transform="translate(83.007812 0)"/>
     <use xlink:href="#DejaVuSans-Bold-61" transform="translate(117.285156 0)"/>
     <use xlink:href="#DejaVuSans-Bold-67" transform="translate(184.765625 0)"/>
     <use xlink:href="#DejaVuSans-Bold-6e" transform="translate(256.347656 0)"/>
     <use xlink:href="#DejaVuSans-Bold-f3" transform="translate(327.539062 0)"/>
     <use xlink:href="#DejaVuSans-Bold-73" transform="translate(396.240234 0)"/>
     <use xlink:href="#DejaVuSans-Bold-74" transform="translate(455.761719 0)"/>
     <use xlink:href="#DejaVuSans-Bold-69" transform="translate(503.564453 0)"/>
     <use xlink:href="#DejaVuSans-Bold-63" transform="translate(537.841797 0)"/>
     <use xlink:href="#DejaVuSans-Bold-6f" transform="translate(597.119141 0)"/>
    </g>
   </g>
   <g id="text_18">
    <!-- Resíduos, robustez, Jacobiano e correlações -->
    <g transform="translate(117.684 428.596726) scale(0.1 -0.1)">
     <defs>
      <path id="DejaVuSans-52" d="M 2841 2188 
Q 3044 2119 3236 1894 
Q 3428 1669 3622 1275 
L 4263 0 
L 3584 0 
L 2988 1197 
Q 2756 1666 2539 1819 
Q 2322 1972 1947 1972 
L 1259 1972 
L 1259 0 
L 628 0 
L 628 4666 
L 2053 4666 
Q 2853 4666 3247 4331 
Q 3641 3997 3641 3322 
Q 3641 2881 3436 2590 
Q 3231 2300 2841 2188 
z
M 1259 4147 
L 1259 2491 
L 2053 2491 
Q 2509 2491 2742 2702 
Q 2975 2913 2975 3322 
Q 2975 3731 2742 3939 
Q 2509 4147 2053 4147 
L 1259 4147 
z
" transform="scale(0.015625)"/>
      <path id="DejaVuSans-7a" d="M 353 3500 
L 3084 3500 
L 3084 2975 
L 922 459 
L 3084 459 
L 3084 0 
L 275 0 
L 275 525 
L 2438 3041 
L 353 3041 
L 353 3500 
z
" transform="scale(0.015625)"/>
      <path id="DejaVuSans-4a" d="M 628 4666 
L 1259 4666 
L 1259 325 
Q 1259 -519 939 -900 
Q 619 -1281 -91 -1281 
L -331 -1281 
L -331 -750 
L -134 -750 
Q 284 -750 456 -515 
Q 628 -281 628 325 
L 628 4666 
z
" transform="scale(0.015625)"/>
     </defs>
     <use xlink:href="#DejaVuSans-52"/>
     <use xlink:href="#DejaVuSans-65" transform="translate(64.982422 0)"/>
     <use xlink:href="#DejaVuSans-73" transform="translate(126.505859 0)"/>
     <use xlink:href="#DejaVuSans-ed" transform="translate(178.605469 0)"/>
     <use xlink:href="#DejaVuSans-64" transform="translate(206.388672 0)"/>
     <use xlink:href="#DejaVuSans-75" transform="translate(269.865234 0)"/>
     <use xlink:href="#DejaVuSans-6f" transform="translate(333.244141 0)"/>
     <use xlink:href="#DejaVuSans-73" transform="translate(394.425781 0)"/>
     <use xlink:href="#DejaVuSans-2c" transform="translate(446.525391 0)"/>
     <use xlink:href="#DejaVuSans-20" transform="translate(478.3125 0)"/>
     <use xlink:href="#DejaVuSans-72" transform="translate(510.099609 0)"/>
     <use xlink:href="#DejaVuSans-6f" transform="translate(548.962891 0)"/>
     <use xlink:href="#DejaVuSans-62" transform="translate(610.144531 0)"/>
     <use xlink:href="#DejaVuSans-75" transform="translate(673.621094 0)"/>
     <use xlink:href="#DejaVuSans-73" transform="translate(737 0)"/>
     <use xlink:href="#DejaVuSans-74" transform="translate(789.099609 0)"/>
     <use xlink:href="#DejaVuSans-65" transform="translate(828.308594 0)"/>
     <use xlink:href="#DejaVuSans-7a" transform="translate(889.832031 0)"/>
     <use xlink:href="#DejaVuSans-2c" transform="translate(942.322266 0)"/>
     <use xlink:href="#DejaVuSans-20" transform="translate(974.109375 0)"/>
     <use xlink:href="#DejaVuSans-4a" transform="translate(1005.896484 0)"/>
     <use xlink:href="#DejaVuSans-61" transform="translate(1035.388672 0)"/>
     <use xlink:href="#DejaVuSans-63" transform="translate(1096.667969 0)"/>
     <use xlink:href="#DejaVuSans-6f" transform="translate(1151.648438 0)"/>
     <use xlink:href="#DejaVuSans-62" transform="translate(1212.830078 0)"/>
     <use xlink:href="#DejaVuSans-69" transform="translate(1276.306641 0)"/>
     <use xlink:href="#DejaVuSans-61" transform="translate(1304.089844 0)"/>
     <use xlink:href="#DejaVuSans-6e" transform="translate(1365.369141 0)"/>
     <use xlink:href="#DejaVuSans-6f" transform="translate(1428.748047 0)"/>
     <use xlink:href="#DejaVuSans-20" transform="translate(1489.929688 0)"/>
     <use xlink:href="#DejaVuSans-65" transform="translate(1521.716797 0)"/>
     <use xlink:href="#DejaVuSans-20" transform="translate(1583.240234 0)"/>
     <use xlink:href="#DejaVuSans-63" transform="translate(1615.027344 0)"/>
     <use xlink:href="#DejaVuSans-6f" transform="translate(1670.007812 0)"/>
     <use xlink:href="#DejaVuSans-72" transform="translate(1731.189453 0)"/>
     <use xlink:href="#DejaVuSans-72" transform="translate(1770.552734 0)"/>
     <use xlink:href="#DejaVuSans-65" transform="translate(1809.416016 0)"/>
     <use xlink:href="#DejaVuSans-6c" transform="translate(1870.939453 0)"/>
     <use xlink:href="#DejaVuSans-61" transform="translate(1898.722656 0)"/>
     <use xlink:href="#DejaVuSans-e7" transform="translate(1960.001953 0)"/>
     <use xlink:href="#DejaVuSans-f5" transform="translate(2014.982422 0)"/>
     <use xlink:href="#DejaVuSans-65" transform="translate(2076.164062 0)"/>
     <use xlink:href="#DejaVuSans-73" transform="translate(2137.6875 0)"/>
    </g>
   </g>
   <g id="patch_15">
    <path d="M 258.3 443.798323 
Q 258.3 447.055809 258.3 448.636243 
" style="fill: none; stroke: #000000; stroke-width: 1.5; stroke-linecap: round"/>
    <path d="M 260.3 444.636243 
L 258.3 448.636243 
L 256.3 444.636243 
z
" style="fill: #1f77b4; stroke: #000000; stroke-width: 1.5; stroke-linecap: round"/>
   </g>
   <g id="text_19">
    <!-- 7 -->
    <g transform="translate(77.659531 491.224504) scale(0.14 -0.14)">
     <defs>
      <path id="DejaVuSans-Bold-37" d="M 428 4666 
L 3944 4666 
L 3944 3988 
L 2125 0 
L 953 0 
L 2675 3781 
L 428 3781 
L 428 4666 
z
" transform="scale(0.015625)"/>
     </defs>
     <use xlink:href="#DejaVuSans-Bold-37"/>
    </g>
   </g>
   <g id="text_20">
    <!-- Inferências escalares -->
    <g transform="translate(117.684 483.662974) scale(0.12 -0.12)">
     <defs>
      <path id="DejaVuSans-Bold-49" d="M 588 4666 
L 1791 4666 
L 1791 0 
L 588 0 
L 588 4666 
z
" transform="scale(0.015625)"/>
      <path id="DejaVuSans-Bold-66" d="M 2841 4863 
L 2841 4128 
L 2222 4128 
Q 1984 4128 1890 4042 
Q 1797 3956 1797 3744 
L 1797 3500 
L 2753 3500 
L 2753 2700 
L 1797 2700 
L 1797 0 
L 678 0 
L 678 2700 
L 122 2700 
L 122 3500 
L 678 3500 
L 678 3744 
Q 678 4316 997 4589 
Q 1316 4863 1984 4863 
L 2841 4863 
z
" transform="scale(0.015625)"/>
      <path id="DejaVuSans-Bold-ea" d="M 4031 1759 
L 4031 1441 
L 1416 1441 
Q 1456 1047 1700 850 
Q 1944 653 2381 653 
Q 2734 653 3104 758 
Q 3475 863 3866 1075 
L 3866 213 
Q 3469 63 3072 -14 
Q 2675 -91 2278 -91 
Q 1328 -91 801 392 
Q 275 875 275 1747 
Q 275 2603 792 3093 
Q 1309 3584 2216 3584 
Q 3041 3584 3536 3087 
Q 4031 2591 4031 1759 
z
M 2881 2131 
Q 2881 2450 2695 2645 
Q 2509 2841 2209 2841 
Q 1884 2841 1681 2658 
Q 1478 2475 1428 2131 
L 2881 2131 
z
M 1902 5119 
L 2658 5119 
L 3458 3944 
L 2902 3944 
L 2280 4647 
L 1658 3944 
L 1102 3944 
L 1902 5119 
z
" transform="scale(0.015625)"/>
     </defs>
     <use xlink:href="#DejaVuSans-Bold-49"/>
     <use xlink:href="#DejaVuSans-Bold-6e" transform="translate(37.207031 0)"/>
     <use xlink:href="#DejaVuSans-Bold-66" transform="translate(108.398438 0)"/>
     <use xlink:href="#DejaVuSans-Bold-65" transform="translate(151.904297 0)"/>
     <use xlink:href="#DejaVuSans-Bold-72" transform="translate(219.726562 0)"/>
     <use xlink:href="#DejaVuSans-Bold-ea" transform="translate(269.042969 0)"/>
     <use xlink:href="#DejaVuSans-Bold-6e" transform="translate(336.865234 0)"/>
     <use xlink:href="#DejaVuSans-Bold-63" transform="translate(408.056641 0)"/>
     <use xlink:href="#DejaVuSans-Bold-69" transform="translate(467.333984 0)"/>
     <use xlink:href="#DejaVuSans-Bold-61" transform="translate(501.611328 0)"/>
     <use xlink:href="#DejaVuSans-Bold-73" transform="translate(569.091797 0)"/>
     <use xlink:href="#DejaVuSans-Bold-20" transform="translate(628.613281 0)"/>
     <use xlink:href="#DejaVuSans-Bold-65" transform="translate(663.427734 0)"/>
     <use xlink:href="#DejaVuSans-Bold-73" transform="translate(731.25 0)"/>
     <use xlink:href="#DejaVuSans-Bold-63" transform="translate(790.771484 0)"/>
     <use xlink:href="#DejaVuSans-Bold-61" transform="translate(850.048828 0)"/>
     <use xlink:href="#DejaVuSans-Bold-6c" transform="translate(917.529297 0)"/>
     <use xlink:href="#DejaVuSans-Bold-61" transform="translate(951.806641 0)"/>
     <use xlink:href="#DejaVuSans-Bold-72" transform="translate(1019.287109 0)"/>
     <use xlink:href="#DejaVuSans-Bold-65" transform="translate(1068.603516 0)"/>
     <use xlink:href="#DejaVuSans-Bold-73" transform="translate(1136.425781 0)"/>
    </g>
   </g>
   <g id="text_21">
    <!-- N inteiro pela potência e U_f pela eficiência -->
    <g transform="translate(117.684 498.593278) scale(0.1 -0.1)">
     <defs>
      <path id="DejaVuSans-ea" d="M 3597 1894 
L 3597 1613 
L 953 1613 
Q 991 1019 1311 708 
Q 1631 397 2203 397 
Q 2534 397 2845 478 
Q 3156 559 3463 722 
L 3463 178 
Q 3153 47 2828 -22 
Q 2503 -91 2169 -91 
Q 1331 -91 842 396 
Q 353 884 353 1716 
Q 353 2575 817 3079 
Q 1281 3584 2069 3584 
Q 2775 3584 3186 3129 
Q 3597 2675 3597 1894 
z
M 3022 2063 
Q 3016 2534 2758 2815 
Q 2500 3097 2075 3097 
Q 1594 3097 1305 2825 
Q 1016 2553 972 2059 
L 3022 2063 
z
M 1801 5119 
L 2263 5119 
L 3029 3944 
L 2595 3944 
L 2032 4709 
L 1470 3944 
L 1035 3944 
L 1801 5119 
z
" transform="scale(0.015625)"/>
      <path id="DejaVuSans-55" d="M 556 4666 
L 1191 4666 
L 1191 1831 
Q 1191 1081 1462 751 
Q 1734 422 2344 422 
Q 2950 422 3222 751 
Q 3494 1081 3494 1831 
L 3494 4666 
L 4128 4666 
L 4128 1753 
Q 4128 841 3676 375 
Q 3225 -91 2344 -91 
Q 1459 -91 1007 375 
Q 556 841 556 1753 
L 556 4666 
z
" transform="scale(0.015625)"/>
      <path id="DejaVuSans-5f" d="M 3263 -1063 
L 3263 -1509 
L -63 -1509 
L -63 -1063 
L 3263 -1063 
z
" transform="scale(0.015625)"/>
     </defs>
     <use xlink:href="#DejaVuSans-4e"/>
     <use xlink:href="#DejaVuSans-20" transform="translate(74.804688 0)"/>
     <use xlink:href="#DejaVuSans-69" transform="translate(106.591797 0)"/>
     <use xlink:href="#DejaVuSans-6e" transform="translate(134.375 0)"/>
     <use xlink:href="#DejaVuSans-74" transform="translate(197.753906 0)"/>
     <use xlink:href="#DejaVuSans-65" transform="translate(236.962891 0)"/>
     <use xlink:href="#DejaVuSans-69" transform="translate(298.486328 0)"/>
     <use xlink:href="#DejaVuSans-72" transform="translate(326.269531 0)"/>
     <use xlink:href="#DejaVuSans-6f" transform="translate(365.132812 0)"/>
     <use xlink:href="#DejaVuSans-20" transform="translate(426.314453 0)"/>
     <use xlink:href="#DejaVuSans-70" transform="translate(458.101562 0)"/>
     <use xlink:href="#DejaVuSans-65" transform="translate(521.578125 0)"/>
     <use xlink:href="#DejaVuSans-6c" transform="translate(583.101562 0)"/>
     <use xlink:href="#DejaVuSans-61" transform="translate(610.884766 0)"/>
     <use xlink:href="#DejaVuSans-20" transform="translate(672.164062 0)"/>
     <use xlink:href="#DejaVuSans-70" transform="translate(703.951172 0)"/>
     <use xlink:href="#DejaVuSans-6f" transform="translate(767.427734 0)"/>
     <use xlink:href="#DejaVuSans-74" transform="translate(828.609375 0)"/>
     <use xlink:href="#DejaVuSans-ea" transform="translate(867.818359 0)"/>
     <use xlink:href="#DejaVuSans-6e" transform="translate(929.341797 0)"/>
     <use xlink:href="#DejaVuSans-63" transform="translate(992.720703 0)"/>
     <use xlink:href="#DejaVuSans-69" transform="translate(1047.701172 0)"/>
     <use xlink:href="#DejaVuSans-61" transform="translate(1075.484375 0)"/>
     <use xlink:href="#DejaVuSans-20" transform="translate(1136.763672 0)"/>
     <use xlink:href="#DejaVuSans-65" transform="translate(1168.550781 0)"/>
     <use xlink:href="#DejaVuSans-20" transform="translate(1230.074219 0)"/>
     <use xlink:href="#DejaVuSans-55" transform="translate(1261.861328 0)"/>
     <use xlink:href="#DejaVuSans-5f" transform="translate(1335.054688 0)"/>
     <use xlink:href="#DejaVuSans-66" transform="translate(1385.054688 0)"/>
     <use xlink:href="#DejaVuSans-20" transform="translate(1420.259766 0)"/>
     <use xlink:href="#DejaVuSans-70" transform="translate(1452.046875 0)"/>
     <use xlink:href="#DejaVuSans-65" transform="translate(1515.523438 0)"/>
     <use xlink:href="#DejaVuSans-6c" transform="translate(1577.046875 0)"/>
     <use xlink:href="#DejaVuSans-61" transform="translate(1604.830078 0)"/>
     <use xlink:href="#DejaVuSans-20" transform="translate(1666.109375 0)"/>
     <use xlink:href="#DejaVuSans-65" transform="translate(1697.896484 0)"/>
     <use xlink:href="#DejaVuSans-66" transform="translate(1759.419922 0)"/>
     <use xlink:href="#DejaVuSans-69" transform="translate(1794.625 0)"/>
     <use xlink:href="#DejaVuSans-63" transform="translate(1822.408203 0)"/>
     <use xlink:href="#DejaVuSans-69" transform="translate(1877.388672 0)"/>
     <use xlink:href="#DejaVuSans-ea" transform="translate(1905.171875 0)"/>
     <use xlink:href="#DejaVuSans-6e" transform="translate(1966.695312 0)"/>
     <use xlink:href="#DejaVuSans-63" transform="translate(2030.074219 0)"/>
     <use xlink:href="#DejaVuSans-69" transform="translate(2085.054688 0)"/>
     <use xlink:href="#DejaVuSans-61" transform="translate(2112.837891 0)"/>
    </g>
   </g>
   <g id="patch_16">
    <path d="M 258.3 513.894875 
Q 258.3 517.152361 258.3 518.732795 
" style="fill: none; stroke: #000000; stroke-width: 1.5; stroke-linecap: round"/>
    <path d="M 260.3 514.732795 
L 258.3 518.732795 
L 256.3 514.732795 
z
" style="fill: #1f77b4; stroke: #000000; stroke-width: 1.5; stroke-linecap: round"/>
   </g>
   <g id="text_22">
    <!-- 8 -->
    <g transform="translate(77.659531 561.321056) scale(0.14 -0.14)">
     <defs>
      <path id="DejaVuSans-Bold-38" d="M 2228 2088 
Q 1891 2088 1709 1903 
Q 1528 1719 1528 1375 
Q 1528 1031 1709 848 
Q 1891 666 2228 666 
Q 2563 666 2741 848 
Q 2919 1031 2919 1375 
Q 2919 1722 2741 1905 
Q 2563 2088 2228 2088 
z
M 1350 2484 
Q 925 2613 709 2878 
Q 494 3144 494 3541 
Q 494 4131 934 4440 
Q 1375 4750 2228 4750 
Q 3075 4750 3515 4442 
Q 3956 4134 3956 3541 
Q 3956 3144 3739 2878 
Q 3522 2613 3097 2484 
Q 3572 2353 3814 2058 
Q 4056 1763 4056 1313 
Q 4056 619 3595 264 
Q 3134 -91 2228 -91 
Q 1319 -91 855 264 
Q 391 619 391 1313 
Q 391 1763 633 2058 
Q 875 2353 1350 2484 
z
M 1631 3419 
Q 1631 3141 1786 2991 
Q 1941 2841 2228 2841 
Q 2509 2841 2662 2991 
Q 2816 3141 2816 3419 
Q 2816 3697 2662 3845 
Q 2509 3994 2228 3994 
Q 1941 3994 1786 3844 
Q 1631 3694 1631 3419 
z
" transform="scale(0.015625)"/>
     </defs>
     <use xlink:href="#DejaVuSans-Bold-38"/>
    </g>
   </g>
   <g id="text_23">
    <!-- PEMFCModel único -->
    <g transform="translate(117.684 553.759526) scale(0.12 -0.12)">
     <defs>
      <path id="DejaVuSans-Bold-50" d="M 588 4666 
L 2584 4666 
Q 3475 4666 3951 4270 
Q 4428 3875 4428 3144 
Q 4428 2409 3951 2014 
Q 3475 1619 2584 1619 
L 1791 1619 
L 1791 0 
L 588 0 
L 588 4666 
z
M 1791 3794 
L 1791 2491 
L 2456 2491 
Q 2806 2491 2997 2661 
Q 3188 2831 3188 3144 
Q 3188 3456 2997 3625 
Q 2806 3794 2456 3794 
L 1791 3794 
z
" transform="scale(0.015625)"/>
      <path id="DejaVuSans-Bold-4d" d="M 588 4666 
L 2119 4666 
L 3181 2169 
L 4250 4666 
L 5778 4666 
L 5778 0 
L 4641 0 
L 4641 3413 
L 3566 897 
L 2803 897 
L 1728 3413 
L 1728 0 
L 588 0 
L 588 4666 
z
" transform="scale(0.015625)"/>
      <path id="DejaVuSans-Bold-43" d="M 4288 256 
Q 3956 84 3597 -3 
Q 3238 -91 2847 -91 
Q 1681 -91 1000 561 
Q 319 1213 319 2328 
Q 319 3447 1000 4098 
Q 1681 4750 2847 4750 
Q 3238 4750 3597 4662 
Q 3956 4575 4288 4403 
L 4288 3438 
Q 3953 3666 3628 3772 
Q 3303 3878 2944 3878 
Q 2300 3878 1931 3465 
Q 1563 3053 1563 2328 
Q 1563 1606 1931 1193 
Q 2300 781 2944 781 
Q 3303 781 3628 887 
Q 3953 994 4288 1222 
L 4288 256 
z
" transform="scale(0.015625)"/>
      <path id="DejaVuSans-Bold-fa" d="M 500 1363 
L 500 3500 
L 1625 3500 
L 1625 3150 
Q 1625 2866 1622 2436 
Q 1619 2006 1619 1863 
Q 1619 1441 1641 1255 
Q 1663 1069 1716 984 
Q 1784 875 1895 815 
Q 2006 756 2150 756 
Q 2500 756 2700 1025 
Q 2900 1294 2900 1772 
L 2900 3500 
L 4019 3500 
L 4019 0 
L 2900 0 
L 2900 506 
Q 2647 200 2364 54 
Q 2081 -91 1741 -91 
Q 1134 -91 817 281 
Q 500 653 500 1363 
z
M 2782 5119 
L 3666 5119 
L 2513 3944 
L 1901 3944 
L 2782 5119 
z
" transform="scale(0.015625)"/>
     </defs>
     <use xlink:href="#DejaVuSans-Bold-50"/>
     <use xlink:href="#DejaVuSans-Bold-45" transform="translate(73.291016 0)"/>
     <use xlink:href="#DejaVuSans-Bold-4d" transform="translate(141.601562 0)"/>
     <use xlink:href="#DejaVuSans-Bold-46" transform="translate(241.113281 0)"/>
     <use xlink:href="#DejaVuSans-Bold-43" transform="translate(309.423828 0)"/>
     <use xlink:href="#DejaVuSans-Bold-4d" transform="translate(382.8125 0)"/>
     <use xlink:href="#DejaVuSans-Bold-6f" transform="translate(482.324219 0)"/>
     <use xlink:href="#DejaVuSans-Bold-64" transform="translate(551.025391 0)"/>
     <use xlink:href="#DejaVuSans-Bold-65" transform="translate(622.607422 0)"/>
     <use xlink:href="#DejaVuSans-Bold-6c" transform="translate(690.429688 0)"/>
     <use xlink:href="#DejaVuSans-Bold-20" transform="translate(724.707031 0)"/>
     <use xlink:href="#DejaVuSans-Bold-fa" transform="translate(759.521484 0)"/>
     <use xlink:href="#DejaVuSans-Bold-6e" transform="translate(830.712891 0)"/>
     <use xlink:href="#DejaVuSans-Bold-69" transform="translate(901.904297 0)"/>
     <use xlink:href="#DejaVuSans-Bold-63" transform="translate(936.181641 0)"/>
     <use xlink:href="#DejaVuSans-Bold-6f" transform="translate(995.458984 0)"/>
    </g>
   </g>
   <g id="text_24">
    <!-- Parâmetros finais em todas as páginas e gráficos -->
    <g transform="translate(117.684 568.828892) scale(0.1 -0.1)">
     <defs>
      <path id="DejaVuSans-50" d="M 1259 4147 
L 1259 2394 
L 2053 2394 
Q 2494 2394 2734 2622 
Q 2975 2850 2975 3272 
Q 2975 3691 2734 3919 
Q 2494 4147 2053 4147 
L 1259 4147 
z
M 628 4666 
L 2053 4666 
Q 2838 4666 3239 4311 
Q 3641 3956 3641 3272 
Q 3641 2581 3239 2228 
Q 2838 1875 2053 1875 
L 1259 1875 
L 1259 0 
L 628 0 
L 628 4666 
z
" transform="scale(0.015625)"/>
      <path id="DejaVuSans-e1" d="M 2194 1759 
Q 1497 1759 1228 1600 
Q 959 1441 959 1056 
Q 959 750 1161 570 
Q 1363 391 1709 391 
Q 2188 391 2477 730 
Q 2766 1069 2766 1631 
L 2766 1759 
L 2194 1759 
z
M 3341 1997 
L 3341 0 
L 2766 0 
L 2766 531 
Q 2569 213 2275 61 
Q 1981 -91 1556 -91 
Q 1019 -91 701 211 
Q 384 513 384 1019 
Q 384 1609 779 1909 
Q 1175 2209 1959 2209 
L 2766 2209 
L 2766 2266 
Q 2766 2663 2505 2880 
Q 2244 3097 1772 3097 
Q 1472 3097 1187 3025 
Q 903 2953 641 2809 
L 641 3341 
Q 956 3463 1253 3523 
Q 1550 3584 1831 3584 
Q 2591 3584 2966 3190 
Q 3341 2797 3341 1997 
z
M 2290 5119 
L 2912 5119 
L 1894 3944 
L 1415 3944 
L 2290 5119 
z
" transform="scale(0.015625)"/>
      <path id="DejaVuSans-67" d="M 2906 1791 
Q 2906 2416 2648 2759 
Q 2391 3103 1925 3103 
Q 1463 3103 1205 2759 
Q 947 2416 947 1791 
Q 947 1169 1205 825 
Q 1463 481 1925 481 
Q 2391 481 2648 825 
Q 2906 1169 2906 1791 
z
M 3481 434 
Q 3481 -459 3084 -895 
Q 2688 -1331 1869 -1331 
Q 1566 -1331 1297 -1286 
Q 1028 -1241 775 -1147 
L 775 -588 
Q 1028 -725 1275 -790 
Q 1522 -856 1778 -856 
Q 2344 -856 2625 -561 
Q 2906 -266 2906 331 
L 2906 616 
Q 2728 306 2450 153 
Q 2172 0 1784 0 
Q 1141 0 747 490 
Q 353 981 353 1791 
Q 353 2603 747 3093 
Q 1141 3584 1784 3584 
Q 2172 3584 2450 3431 
Q 2728 3278 2906 2969 
L 2906 3500 
L 3481 3500 
L 3481 434 
z
" transform="scale(0.015625)"/>
     </defs>
     <use xlink:href="#DejaVuSans-50"/>
     <use xlink:href="#DejaVuSans-61" transform="translate(55.802734 0)"/>
     <use xlink:href="#DejaVuSans-72" transform="translate(117.082031 0)"/>
     <use xlink:href="#DejaVuSans-e2" transform="translate(158.195312 0)"/>
     <use xlink:href="#DejaVuSans-6d" transform="translate(219.474609 0)"/>
     <use xlink:href="#DejaVuSans-65" transform="translate(316.886719 0)"/>
     <use xlink:href="#DejaVuSans-74" transform="translate(378.410156 0)"/>
     <use xlink:href="#DejaVuSans-72" transform="translate(417.619141 0)"/>
     <use xlink:href="#DejaVuSans-6f" transform="translate(456.482422 0)"/>
     <use xlink:href="#DejaVuSans-73" transform="translate(517.664062 0)"/>
     <use xlink:href="#DejaVuSans-20" transform="translate(569.763672 0)"/>
     <use xlink:href="#DejaVuSans-66" transform="translate(601.550781 0)"/>
     <use xlink:href="#DejaVuSans-69" transform="translate(636.755859 0)"/>
     <use xlink:href="#DejaVuSans-6e" transform="translate(664.539062 0)"/>
     <use xlink:href="#DejaVuSans-61" transform="translate(727.917969 0)"/>
     <use xlink:href="#DejaVuSans-69" transform="translate(789.197266 0)"/>
     <use xlink:href="#DejaVuSans-73" transform="translate(816.980469 0)"/>
     <use xlink:href="#DejaVuSans-20" transform="translate(869.080078 0)"/>
     <use xlink:href="#DejaVuSans-65" transform="translate(900.867188 0)"/>
     <use xlink:href="#DejaVuSans-6d" transform="translate(962.390625 0)"/>
     <use xlink:href="#DejaVuSans-20" transform="translate(1059.802734 0)"/>
     <use xlink:href="#DejaVuSans-74" transform="translate(1091.589844 0)"/>
     <use xlink:href="#DejaVuSans-6f" transform="translate(1130.798828 0)"/>
     <use xlink:href="#DejaVuSans-64" transform="translate(1191.980469 0)"/>
     <use xlink:href="#DejaVuSans-61" transform="translate(1255.457031 0)"/>
     <use xlink:href="#DejaVuSans-73" transform="translate(1316.736328 0)"/>
     <use xlink:href="#DejaVuSans-20" transform="translate(1368.835938 0)"/>
     <use xlink:href="#DejaVuSans-61" transform="translate(1400.623047 0)"/>
     <use xlink:href="#DejaVuSans-73" transform="translate(1461.902344 0)"/>
     <use xlink:href="#DejaVuSans-20" transform="translate(1514.001953 0)"/>
     <use xlink:href="#DejaVuSans-70" transform="translate(1545.789062 0)"/>
     <use xlink:href="#DejaVuSans-e1" transform="translate(1609.265625 0)"/>
     <use xlink:href="#DejaVuSans-67" transform="translate(1670.544922 0)"/>
     <use xlink:href="#DejaVuSans-69" transform="translate(1734.021484 0)"/>
     <use xlink:href="#DejaVuSans-6e" transform="translate(1761.804688 0)"/>
     <use xlink:href="#DejaVuSans-61" transform="translate(1825.183594 0)"/>
     <use xlink:href="#DejaVuSans-73" transform="translate(1886.462891 0)"/>
     <use xlink:href="#DejaVuSans-20" transform="translate(1938.5625 0)"/>
     <use xlink:href="#DejaVuSans-65" transform="translate(1970.349609 0)"/>
     <use xlink:href="#DejaVuSans-20" transform="translate(2031.873047 0)"/>
     <use xlink:href="#DejaVuSans-67" transform="translate(2063.660156 0)"/>
     <use xlink:href="#DejaVuSans-72" transform="translate(2127.136719 0)"/>
     <use xlink:href="#DejaVuSans-e1" transform="translate(2168.25 0)"/>
     <use xlink:href="#DejaVuSans-66" transform="translate(2229.529297 0)"/>
     <use xlink:href="#DejaVuSans-69" transform="translate(2264.734375 0)"/>
     <use xlink:href="#DejaVuSans-63" transform="translate(2292.517578 0)"/>
     <use xlink:href="#DejaVuSans-6f" transform="translate(2347.498047 0)"/>
     <use xlink:href="#DejaVuSans-73" transform="translate(2408.679688 0)"/>
    </g>
   </g>
  </g>
 </g>
 <defs>
  <clipPath id="p93293f70c9">
   <rect x="7.2" y="7.2" width="502.2" height="609.84"/>
  </clipPath>
 </defs>
</svg>
